<?xml version="1.0" encoding="UTF-8" standalone="no"?>
<!-- Created with Friction - https://friction.graphics -->

<svg xmlns:xlink="http://www.w3.org/1999/xlink" viewBox="0 0 1920 540" xmlns="http://www.w3.org/2000/svg">
 <g transform="translate(907.339 500.254)">
  <g transform="translate(-51.3221 -6.0267)">
   <g transform="rotate(0)">
    <g transform="scale(1 1)">
     <g transform="skewX(0) skewY(0)">
      <g opacity="1" transform="translate(-907.339 -500.254)">
       <g id="flexo">
        <g transform="translate(601.407 1084.55)">
         <g transform="translate(305.765 -584.293)">
          <g transform="rotate(0)">
           <g transform="scale(0.45476 0.45476)">
            <g transform="skewX(0) skewY(0)">
             <g opacity="1" transform="translate(-601.407 -1084.55)">
              <path fill-rule="evenodd" stroke-linejoin="round" id="foot" d="M601.406 814.16C558.6 814.16 518.257 847.087 516.674 916.693C516.403 928.595 494.324 969.757 426.869 972.061C320.268 975.7 292.698 1016.44 276.725 1048.03C264.097 1073.01 275.166 1084.55 293.062 1084.55L909.75 1084.55C927.647 1084.55 938.718 1073.01 926.09 1048.03C910.116 1016.44 882.545 975.7 775.943 972.061C708.489 969.757 686.078 928.598 686.141 916.693C686.478 852.927 644.212 814.16 601.406 814.16ZM601.406 854.869C621.829 854.869 638.385 871.425 638.385 891.848C638.385 912.27 621.829 928.826 601.406 928.826C580.984 928.826 564.428 912.27 564.428 891.848C564.428 871.425 580.984 854.869 601.406 854.869Z" stroke-linecap="round" fill="rgba(255, 161, 8, 1)" stroke-width="0" stroke="none"/>
             </g>
            </g>
           </g>
          </g>
         </g>
        </g>
        <g transform="translate(906.826 412.279)">
         <g transform="translate(0 0)">
          <g>
           <animateTransform attributeName="transform" repeatCount="indefinite" calcMode="spline" values="-49.5279;-49.5279;-7.65126;45.9271;18.2251;17.5083;18.2251;18.4041;18.2251;-49.5279;-49.5279" keySplines="0 0 1 1;0.333333 0 0.443862 0.855573;0.238345 0.112883 0.56007 1;0.28514 0 0.800819 0.941779;0.275735 0.75 0.632551 1;0.415505 9.91254e-15 0.855056 1;0.0834376 0 0.582812 1;0.415628 0 0.790316 0.25;0.360357 0.00595113 0.857143 1;0 0 1 1" type="rotate" dur="9s" keyTimes="0;0;0.0555556;0.185185;0.385185;0.433343;0.518519;0.666482;0.740741;0.87037;1"/>
           <g transform="scale(1 1)">
            <g transform="skewX(0) skewY(0)">
             <g opacity="1" transform="translate(-906.826 -412.279)">
              <g id="Group0">
               <g transform="translate(601.407 894.289)">
                <g transform="translate(305.765 -480.556)">
                 <g transform="rotate(0)">
                  <g transform="scale(0.45476 0.45476)">
                   <g transform="skewX(0) skewY(0)">
                    <g opacity="1" transform="translate(-601.407 -894.289)">
                     <path fill-rule="evenodd" stroke-linejoin="round" id="arm1" d="M601.406 532.795C545.502 532.795 499.646 578.65 499.646 634.555L499.646 893.029C499.646 948.934 545.502 994.789 601.406 994.789C657.311 994.789 703.168 948.934 703.168 893.029L703.168 634.555C703.168 578.65 657.311 532.795 601.406 532.795ZM601.074 578.74Q601.982 578.74 602.889 578.785Q603.795 578.829 604.699 578.918Q605.602 579.007 606.5 579.141Q607.398 579.274 608.288 579.451Q609.179 579.628 610.059 579.848Q610.94 580.069 611.808 580.333Q612.677 580.596 613.532 580.902Q614.387 581.208 615.225 581.555Q616.064 581.902 616.885 582.291Q617.705 582.679 618.506 583.107Q619.306 583.535 620.085 584.001Q620.864 584.468 621.618 584.972Q622.373 585.477 623.102 586.017Q623.831 586.558 624.533 587.134Q625.235 587.71 625.908 588.32Q626.58 588.929 627.222 589.571Q627.864 590.213 628.474 590.885Q629.083 591.558 629.659 592.26Q630.235 592.962 630.776 593.691Q631.316 594.42 631.821 595.175Q632.325 595.929 632.792 596.708Q633.258 597.487 633.686 598.287Q634.114 599.088 634.502 599.908Q634.891 600.729 635.238 601.568Q635.585 602.406 635.891 603.261Q636.197 604.116 636.461 604.984Q636.724 605.853 636.945 606.734Q637.165 607.614 637.342 608.505Q637.519 609.395 637.653 610.293Q637.786 611.191 637.875 612.094Q637.964 612.998 638.008 613.904Q638.053 614.811 638.053 615.719Q638.053 616.626 638.008 617.533Q637.964 618.44 637.875 619.343Q637.786 620.247 637.652 621.145Q637.519 622.043 637.342 622.933Q637.165 623.823 636.945 624.704Q636.724 625.584 636.46 626.453Q636.197 627.322 635.891 628.176Q635.585 629.031 635.238 629.87Q634.89 630.708 634.502 631.529Q634.114 632.35 633.686 633.15Q633.258 633.951 632.792 634.73Q632.325 635.508 631.821 636.263Q631.316 637.018 630.776 637.747Q630.235 638.476 629.659 639.178Q629.083 639.88 628.473 640.552Q627.864 641.225 627.222 641.867Q626.58 642.508 625.907 643.118Q625.235 643.728 624.533 644.304Q623.831 644.879 623.102 645.42Q622.373 645.961 621.618 646.465Q620.864 646.97 620.085 647.436Q619.306 647.903 618.506 648.331Q617.705 648.759 616.884 649.147Q616.064 649.535 615.225 649.882Q614.386 650.23 613.532 650.536Q612.677 650.842 611.808 651.105Q610.94 651.369 610.059 651.589Q609.179 651.81 608.288 651.987Q607.398 652.164 606.5 652.297Q605.602 652.43 604.699 652.519Q603.795 652.608 602.889 652.653Q601.982 652.697 601.074 652.697Q600.166 652.697 599.26 652.653Q598.353 652.608 597.45 652.519Q596.546 652.43 595.648 652.297Q594.75 652.164 593.86 651.987Q592.97 651.81 592.089 651.589Q591.209 651.369 590.34 651.105Q589.471 650.841 588.617 650.536Q587.762 650.23 586.923 649.882Q586.085 649.535 585.264 649.147Q584.443 648.759 583.643 648.331Q582.842 647.903 582.064 647.436Q581.285 646.97 580.53 646.465Q579.775 645.961 579.046 645.42Q578.317 644.879 577.615 644.304Q576.914 643.728 576.241 643.118Q575.568 642.508 574.927 641.866Q574.285 641.225 573.675 640.552Q573.065 639.879 572.49 639.178Q571.914 638.476 571.373 637.747Q570.832 637.018 570.328 636.263Q569.823 635.508 569.357 634.729Q568.89 633.951 568.462 633.15Q568.034 632.35 567.646 631.529Q567.258 630.708 566.911 629.87Q566.563 629.031 566.257 628.176Q565.952 627.322 565.688 626.453Q565.424 625.584 565.204 624.704Q564.983 623.823 564.806 622.933Q564.629 622.043 564.496 621.145Q564.363 620.247 564.274 619.343Q564.185 618.44 564.14 617.533Q564.096 616.626 564.096 615.719Q564.096 614.811 564.14 613.904Q564.185 612.998 564.274 612.094Q564.363 611.191 564.496 610.293Q564.629 609.395 564.806 608.505Q564.983 607.614 565.204 606.734Q565.424 605.853 565.688 604.984Q565.952 604.116 566.257 603.261Q566.563 602.406 566.911 601.568Q567.258 600.729 567.646 599.908Q568.034 599.088 568.462 598.287Q568.89 597.487 569.357 596.708Q569.823 595.929 570.328 595.175Q570.832 594.42 571.373 593.691Q571.914 592.962 572.49 592.26Q573.065 591.558 573.675 590.885Q574.285 590.213 574.927 589.571Q575.568 588.929 576.241 588.32Q576.914 587.71 577.615 587.134Q578.317 586.558 579.046 586.017Q579.775 585.477 580.53 584.972Q581.285 584.468 582.064 584.001Q582.842 583.535 583.643 583.107Q584.443 582.679 585.264 582.291Q586.085 581.902 586.923 581.555Q587.762 581.208 588.617 580.902Q589.471 580.596 590.34 580.333Q591.209 580.069 592.089 579.848Q592.97 579.628 593.86 579.451Q594.75 579.274 595.648 579.14Q596.546 579.007 597.45 578.918Q598.353 578.829 599.26 578.785Q600.166 578.74 601.074 578.74ZM601.406 706.062C630.289 706.062 653.168 728.94 653.168 757.822L653.168 893.029C653.168 921.912 630.289 944.789 601.406 944.789C572.524 944.789 549.646 921.912 549.646 893.029L549.646 757.822C549.646 728.94 572.524 706.062 601.406 706.062Z" stroke-linecap="round" fill="rgba(52, 101, 164, 1)" stroke-width="0" stroke="none"/>
                    </g>
                   </g>
                  </g>
                 </g>
                </g>
               </g>
               <g transform="translate(907.046 286.407)">
                <g transform="translate(0 0)">
                 <g>
                  <animateTransform attributeName="transform" repeatCount="indefinite" calcMode="spline" values="103.755;103.755;14.9554;13.4701;23.1123;9.41679;8.87956;9.41679;9.23778;9.41679;103.755;103.755" keySplines="0 0 1 1;0.333333 0 0.493374 0.93189;0.296271 0.708095 0.631569 1;0.255479 0 0.618879 1;0.261071 0 0.866147 0.911678;0.210705 0.75 0.582168 1;0.388986 9.91254e-15 0.864307 1;0.0834376 0 0.582812 1;0.415628 0 0.790316 0.25;0.360357 0.00427407 0.857143 1;0 0 1 1" type="rotate" dur="9s" keyTimes="0;0;0.0555556;0.0722301;0.185185;0.385185;0.427536;0.518519;0.666482;0.740741;0.87037;1"/>
                  <g transform="scale(1 1)">
                   <g transform="skewX(0) skewY(0)">
                    <g opacity="1" transform="translate(-907.046 -286.407)">
                     <g id="Group">
                      <g transform="translate(601.407 616.831)">
                       <g transform="translate(305.765 -329.275)">
                        <g transform="rotate(0)">
                         <g transform="scale(0.45476 0.45476)">
                          <g transform="skewX(0) skewY(0)">
                           <g opacity="1" transform="translate(-601.407 -616.831)">
                            <path fill-rule="evenodd" stroke-linejoin="round" id="arm2" d="M601.406 256.629C545.502 256.629 499.646 302.484 499.646 358.388L499.646 616.863C499.646 672.768 545.502 718.623 601.406 718.623C657.311 718.623 703.168 672.768 703.168 616.863L703.168 358.388C703.168 302.484 657.311 256.629 601.406 256.629ZM601.074 302.574Q601.982 302.574 602.889 302.619Q603.795 302.663 604.699 302.752Q605.602 302.841 606.5 302.974Q607.398 303.108 608.288 303.285Q609.179 303.462 610.059 303.682Q610.94 303.903 611.808 304.166Q612.677 304.43 613.532 304.736Q614.387 305.042 615.225 305.389Q616.064 305.736 616.885 306.124Q617.705 306.513 618.506 306.94Q619.306 307.368 620.085 307.835Q620.864 308.302 621.618 308.806Q622.373 309.31 623.102 309.851Q623.831 310.392 624.533 310.968Q625.235 311.544 625.908 312.153Q626.58 312.763 627.222 313.405Q627.864 314.047 628.474 314.719Q629.083 315.392 629.659 316.094Q630.235 316.795 630.776 317.525Q631.316 318.254 631.821 319.008Q632.325 319.763 632.792 320.542Q633.258 321.321 633.686 322.121Q634.114 322.922 634.502 323.742Q634.891 324.563 635.238 325.402Q635.585 326.24 635.891 327.095Q636.197 327.95 636.461 328.818Q636.724 329.687 636.945 330.568Q637.165 331.448 637.342 332.338Q637.519 333.229 637.653 334.127Q637.786 335.025 637.875 335.928Q637.964 336.831 638.008 337.738Q638.053 338.645 638.053 339.553Q638.053 340.46 638.008 341.367Q637.964 342.274 637.875 343.177Q637.786 344.08 637.652 344.978Q637.519 345.876 637.342 346.767Q637.165 347.657 636.944 348.538Q636.724 349.418 636.46 350.287Q636.197 351.155 635.891 352.01Q635.585 352.865 635.238 353.704Q634.89 354.542 634.502 355.363Q634.114 356.183 633.686 356.984Q633.258 357.785 632.792 358.563Q632.325 359.342 631.821 360.097Q631.316 360.851 630.775 361.581Q630.235 362.31 629.659 363.011Q629.083 363.713 628.473 364.386Q627.864 365.058 627.222 365.7Q626.58 366.342 625.907 366.952Q625.235 367.561 624.533 368.137Q623.831 368.713 623.102 369.254Q622.373 369.795 621.618 370.299Q620.863 370.803 620.085 371.27Q619.306 371.737 618.506 372.165Q617.705 372.593 616.884 372.981Q616.064 373.369 615.225 373.716Q614.386 374.064 613.532 374.369Q612.677 374.675 611.808 374.939Q610.94 375.202 610.059 375.423Q609.179 375.643 608.288 375.82Q607.398 375.998 606.5 376.131Q605.602 376.264 604.699 376.353Q603.795 376.442 602.889 376.487Q601.982 376.531 601.074 376.531Q600.166 376.531 599.26 376.487Q598.353 376.442 597.45 376.353Q596.546 376.264 595.648 376.131Q594.75 375.998 593.86 375.82Q592.97 375.643 592.089 375.423Q591.209 375.202 590.34 374.939Q589.471 374.675 588.617 374.369Q587.762 374.064 586.923 373.716Q586.084 373.369 585.264 372.981Q584.443 372.592 583.643 372.165Q582.842 371.737 582.063 371.27Q581.285 370.803 580.53 370.299Q579.775 369.795 579.046 369.254Q578.317 368.713 577.615 368.137Q576.914 367.561 576.241 366.952Q575.568 366.342 574.926 365.7Q574.285 365.058 573.675 364.386Q573.065 363.713 572.489 363.011Q571.914 362.31 571.373 361.581Q570.832 360.851 570.328 360.097Q569.823 359.342 569.357 358.563Q568.89 357.785 568.462 356.984Q568.034 356.183 567.646 355.363Q567.258 354.542 566.911 353.704Q566.563 352.865 566.257 352.01Q565.951 351.155 565.688 350.287Q565.424 349.418 565.204 348.538Q564.983 347.657 564.806 346.767Q564.629 345.876 564.496 344.978Q564.363 344.08 564.274 343.177Q564.185 342.274 564.14 341.367Q564.096 340.46 564.096 339.553Q564.096 338.645 564.14 337.738Q564.185 336.831 564.274 335.928Q564.363 335.025 564.496 334.127Q564.629 333.229 564.806 332.338Q564.983 331.448 565.204 330.567Q565.424 329.687 565.688 328.818Q565.952 327.95 566.257 327.095Q566.563 326.24 566.911 325.401Q567.258 324.563 567.646 323.742Q568.034 322.922 568.462 322.121Q568.89 321.32 569.357 320.542Q569.823 319.763 570.328 319.008Q570.832 318.254 571.373 317.524Q571.914 316.795 572.49 316.094Q573.065 315.392 573.675 314.719Q574.285 314.047 574.927 313.405Q575.568 312.763 576.241 312.153Q576.914 311.544 577.615 310.968Q578.317 310.392 579.046 309.851Q579.775 309.31 580.53 308.806Q581.285 308.302 582.064 307.835Q582.842 307.368 583.643 306.94Q584.443 306.513 585.264 306.124Q586.085 305.736 586.923 305.389Q587.762 305.042 588.617 304.736Q589.471 304.43 590.34 304.166Q591.209 303.903 592.089 303.682Q592.97 303.462 593.86 303.285Q594.75 303.107 595.648 302.974Q596.546 302.841 597.45 302.752Q598.353 302.663 599.26 302.619Q600.166 302.574 601.074 302.574ZM601.406 429.896C630.289 429.896 653.168 452.773 653.168 481.656L653.168 616.863C653.168 645.746 630.289 668.623 601.406 668.623C572.524 668.623 549.646 645.746 549.646 616.863L549.646 481.656C549.646 452.773 572.524 429.896 601.406 429.896Z" stroke-linecap="round" fill="rgba(255, 161, 8, 1)" stroke-width="0" stroke="none"/>
                           </g>
                          </g>
                         </g>
                        </g>
                       </g>
                      </g>
                      <g transform="translate(903.186 160.466)">
                       <g transform="translate(0 0)">
                        <g>
                         <animateTransform attributeName="transform" repeatCount="indefinite" calcMode="spline" values="0;0;-34.1131;-81.4652;1.02227;1.07929;-35.3493;-35.7606;-35.3493;-0.103709;0;0" keySplines="0 0 1 1;0.580894 0.0104452 0.39435 0.676199;0.259564 0.23327 0.416839 1;0.378024 0 0.646414 1;0.333161 0 0.666494 0.332856;0.530859 0.00978126 0.690913 0.990219;0.180224 0.5 0.609366 1;0.41855 1.72696e-14 0.806896 0.267949;0.317513 0.0200562 0.749507 1;0.334571 0 0.667908 0.332217;0 0 1 1" type="rotate" dur="9s" keyTimes="0;0;0.0555556;0.185185;0.38473;0.385185;0.518519;0.65054;0.740741;0.869878;0.87037;1"/>
                         <g transform="scale(1 1)">
                          <g transform="skewX(0) skewY(0)">
                           <g opacity="1" transform="translate(-903.186 -160.466)">
                            <g id="Group1">
                             <g transform="translate(0 0)">
                              <g transform="translate(1114.44 194.794)">
                               <g transform="rotate(-30.9984)">
                                <g transform="scale(1 1)">
                                 <g transform="skewX(0) skewY(0)">
                                  <g transform="translate(0 0)">
                                   <path stroke-linejoin="round" id="lightbeam" d="M0 0C0 0 163.784 173.259 163.784 173.259C163.784 173.259 -139.419 207.099 -139.419 207.099C-139.419 207.099 -174.613 78.508 -174.613 78.508C-174.613 78.508 0 0 0 0Z" stroke-linecap="round" fill="url(#0x00007f995af5ad80)" stroke-width="0" stroke="none"/>
                                   <animate attributeName="opacity" repeatCount="indefinite" calcMode="spline" values="0;0;1;1;0;1;0;1;1;0;0" keySplines="0 0 1 1;0 0 1 1;0 0.333333 1 0.666667;0 0 1 1;0 0 1 1;0 0 1 1;0 0 1 1;0 0.333333 1 0.666667;0 0 1 1;0 0 1 1" dur="9s" keyTimes="0;0;0.0555556;0.555556;0.566667;0.574074;0.581481;0.588889;0.740741;0.851852;1"/>
                                  </g>
                                 </g>
                                </g>
                               </g>
                              </g>
                             </g>
                             <g transform="translate(598.947 343.913)">
                              <g transform="translate(307.107 -180.469)">
                               <g transform="rotate(35.8374)">
                                <g transform="scale(0.45476 0.45476)">
                                 <g transform="skewX(0) skewY(0)">
                                  <g opacity="1" transform="translate(-598.947 -343.913)">
                                   <path fill-rule="evenodd" stroke-linejoin="round" id="head0" d="M997.961 79.1309C941.903 82.5849 878.097 72.8504 741.623 194.295C719.463 214.015 664.56 245.261 648.809 249.594C630.591 254.604 601.767 263.248 601.406 293.652C601.404 293.866 601.407 294.066 601.404 294.279Q600.177 294.279 598.951 294.34Q597.725 294.4 596.504 294.52Q595.282 294.641 594.068 294.821Q592.854 295.001 591.65 295.24Q590.446 295.48 589.256 295.778Q588.065 296.076 586.89 296.433Q585.716 296.789 584.56 297.203Q583.405 297.616 582.271 298.086Q581.137 298.556 580.027 299.08Q578.918 299.605 577.835 300.184Q576.753 300.762 575.7 301.393Q574.647 302.024 573.627 302.706Q572.606 303.388 571.62 304.12Q570.635 304.851 569.686 305.629Q568.737 306.408 567.828 307.232Q566.918 308.057 566.05 308.925Q565.182 309.793 564.358 310.702Q563.534 311.611 562.755 312.56Q561.977 313.509 561.245 314.495Q560.514 315.481 559.832 316.501Q559.15 317.522 558.519 318.575Q557.888 319.628 557.31 320.71Q556.731 321.792 556.207 322.902Q555.682 324.012 555.212 325.146Q554.742 326.28 554.329 327.435Q553.915 328.591 553.559 329.765Q553.203 330.94 552.905 332.131Q552.606 333.321 552.367 334.525Q552.127 335.729 551.947 336.943Q551.767 338.157 551.647 339.379Q551.527 340.6 551.466 341.826Q551.406 343.052 551.406 344.279Q551.406 345.507 551.466 346.733Q551.527 347.959 551.647 349.18Q551.767 350.402 551.947 351.616Q552.128 352.83 552.367 354.034Q552.606 355.238 552.905 356.428Q553.203 357.619 553.559 358.794Q553.916 359.968 554.329 361.124Q554.743 362.279 555.212 363.413Q555.682 364.547 556.207 365.657Q556.732 366.767 557.31 367.849Q557.889 368.932 558.52 369.984Q559.151 371.037 559.833 372.058Q560.515 373.078 561.246 374.064Q561.977 375.05 562.756 375.999Q563.534 376.948 564.359 377.857Q565.183 378.767 566.051 379.635Q566.919 380.503 567.828 381.327Q568.738 382.151 569.687 382.93Q570.635 383.708 571.621 384.44Q572.607 385.171 573.628 385.853Q574.648 386.535 575.701 387.166Q576.754 387.797 577.836 388.375Q578.919 388.954 580.029 389.479Q581.138 390.004 582.272 390.473Q583.406 390.943 584.562 391.356Q585.717 391.77 586.892 392.126Q588.067 392.483 589.257 392.781Q590.448 393.079 591.652 393.319Q592.856 393.558 594.07 393.738Q595.284 393.918 596.505 394.039Q597.727 394.159 598.953 394.219Q600.179 394.279 601.406 394.279Q601.406 394.279 601.416 394.279C602.669 424.573 630.613 433.228 648.809 438.232C664.56 442.565 719.463 473.811 741.623 493.531C878.097 614.976 941.903 605.241 997.961 608.695C1015.27 609.762 1049.84 600.463 1053.12 573.002C1064.99 473.905 1065.09 214.735 1053.12 114.824C1049.84 87.3628 1015.27 78.0645 997.961 79.1309Z" stroke-linecap="round" fill="url(#0x00007f99568c10c0)" stroke-width="0" stroke="none"/>
                                  </g>
                                 </g>
                                </g>
                               </g>
                              </g>
                             </g>
                            </g>
                           </g>
                          </g>
                         </g>
                        </g>
                       </g>
                      </g>
                     </g>
                    </g>
                   </g>
                  </g>
                 </g>
                </g>
               </g>
              </g>
             </g>
            </g>
           </g>
          </g>
         </g>
        </g>
       </g>
      </g>
     </g>
    </g>
   </g>
  </g>
 </g>
 <defs>
  <linearGradient id="0x00007f996cffbc00">
   <stop stop-color="rgba(52, 101, 164, 1)" offset="0"/>
   <stop stop-color="rgba(20, 38, 62, 1)" offset="1"/>
  </linearGradient>
  <linearGradient id="0x00007f996cfbb600">
   <stop stop-color="rgba(255, 147, 0, 0.4)" offset="0"/>
   <stop stop-color="rgba(255, 147, 0, 0)" offset="1"/>
  </linearGradient>
  <linearGradient x1="-36.1325" x2="-8.53586" id="0x00007f995af5ad80" y2="185.027" gradientUnits="userSpaceOnUse" xlink:href="#0x00007f996cfbb600" y1="5.82869"/>
  <linearGradient x1="846.808" x2="912.804" id="0x00007f99568c10c0" y2="677.185" gradientUnits="userSpaceOnUse" xlink:href="#0x00007f996cffbc00" y1="309.152"/>
 </defs>
</svg>
