<?xml version="1.0" encoding="UTF-8" standalone="no"?>
<!-- Created with Friction - https://friction.graphics -->

<svg viewBox="0 0 1920 540" xmlns="http://www.w3.org/2000/svg" xmlns:xlink="http://www.w3.org/1999/xlink">
 <g transform="translate(0 0)">
  <g transform="translate(960 270)">
   <g transform="rotate(0)">
    <g transform="scale(1 1)">
     <g transform="skewX(0) skewY(0)">
      <g transform="translate(0 0)" opacity="1">
       <ellipse cy="0" fill="url(#0x00007f9922876480)" stroke-linecap="round" cx="0" stroke-linejoin="round" ry="213.695" stroke="none" id="Circle" stroke-width="0" rx="213.695"/>
      </g>
     </g>
    </g>
   </g>
  </g>
 </g>
 <g transform="translate(36 36)">
  <g transform="translate(924 234)">
   <g transform="rotate(0)">
    <g transform="scale(9.01974 9.01974)">
     <g transform="skewX(0) skewY(0)">
      <g transform="translate(-36 -36)" opacity="1">
       <g id="s1" visibility="hidden">
        <g transform="translate(36 36)">
         <g transform="translate(0 0)">
          <g transform="rotate(0)">
           <g transform="scale(1 1)">
            <g transform="skewX(0) skewY(0)">
             <g transform="translate(-36 -36)" opacity="1">
              <g id="color" visibility="hidden">
               <g transform="translate(36 44.5529)">
                <g transform="translate(0 0)">
                 <g transform="rotate(0)">
                  <g transform="scale(1 1)">
                   <g transform="skewX(0) skewY(0)">
                    <g transform="translate(-36 -44.5529)" opacity="1">
                     <path d="M50.595 41.64C50.607 43.1797 50.3112 44.7062 49.725 46.13C37.235 49.16 24.295 46.47 22.235 46C21.6762 44.6148 21.3943 43.1336 21.405 41.64C21.405 41.64 21.515 41.64 21.515 41.64C21.515 41.64 36.315 45.23 50.405 41.71C50.405 41.71 50.595 41.64 50.595 41.64Z" fill="rgba(255, 255, 255, 1)" stroke-linecap="butt" stroke-linejoin="miter" stroke="none" id="path1" fill-rule="evenodd" stroke-width="1" visibility="hidden">
                      <animate repeatCount="indefinite" keyTimes="0;0.258333;1" dur="4s" values="visible;hidden;hidden" attributeName="visibility"/>
                     </path>
                    </g>
                   </g>
                  </g>
                 </g>
                </g>
               </g>
               <g transform="translate(35.9885 49.5792)">
                <g transform="translate(0 0)">
                 <g transform="rotate(0)">
                  <g transform="scale(1 1)">
                   <g transform="skewX(0) skewY(0)">
                    <g transform="translate(-35.9885 -49.5792)" opacity="1">
                     <path d="M49.7251 46.13C47.9351 50.4 43.3751 53.36 36.0351 53.36C28.6251 53.36 24.0051 50.33 22.2351 46C24.2951 46.47 37.235 49.16 49.7251 46.13Z" fill="rgba(234, 90, 71, 1)" stroke-linecap="butt" stroke-linejoin="miter" stroke="none" id="path2" fill-rule="evenodd" stroke-width="1" visibility="hidden">
                      <animate repeatCount="indefinite" keyTimes="0;0.258333;1" dur="4s" values="visible;hidden;hidden" attributeName="visibility"/>
                     </path>
                    </g>
                   </g>
                  </g>
                 </g>
                </g>
               </g>
               <animate repeatCount="indefinite" keyTimes="0;0.258333;1" dur="4s" values="visible;hidden;hidden" attributeName="visibility"/>
              </g>
             </g>
            </g>
           </g>
          </g>
         </g>
        </g>
        <g transform="translate(36 36)">
         <g transform="translate(0 0)">
          <g transform="rotate(0)">
           <g transform="scale(1 1)">
            <g transform="skewX(0) skewY(0)">
             <g transform="translate(-36 -36)" opacity="1">
              <g id="line" visibility="hidden">
               <g transform="translate(36 36)">
                <g transform="translate(0 0)">
                 <g transform="rotate(0)">
                  <g transform="scale(1 1)">
                   <g transform="skewX(0) skewY(0)">
                    <g transform="translate(-36 -36)" opacity="1">
                     <ellipse cy="36" fill="none" stroke-linecap="round" cx="36" stroke-linejoin="miter" ry="23" stroke="rgba(0, 0, 0, 1)" id="circle2" stroke-width="2" rx="23" visibility="hidden">
                      <animate repeatCount="indefinite" keyTimes="0;0.258333;1" dur="4s" values="visible;hidden;hidden" attributeName="visibility"/>
                     </ellipse>
                    </g>
                   </g>
                  </g>
                 </g>
                </g>
               </g>
               <g transform="translate(36 44.4455)">
                <g transform="translate(0 0)">
                 <g transform="rotate(0)">
                  <g transform="scale(1 1)">
                   <g transform="skewX(0) skewY(0)">
                    <g transform="translate(-36 -44.4455)" opacity="1">
                     <path d="M50.595 41.64C50.607 43.1797 50.3112 44.7062 49.725 46.13C37.235 49.16 24.295 46.47 22.235 46C21.6762 44.6148 21.3943 43.1336 21.405 41.64C21.405 41.64 21.515 41.64 21.515 41.64C21.515 41.64 36.315 45.23 50.405 41.71C50.405 41.71 50.595 41.64 50.595 41.64Z" fill="none" stroke-linecap="round" stroke-linejoin="miter" stroke="rgba(0, 0, 0, 1)" id="path3" fill-rule="evenodd" stroke-width="2" visibility="hidden">
                      <animate repeatCount="indefinite" keyTimes="0;0.258333;1" dur="4s" values="visible;hidden;hidden" attributeName="visibility"/>
                     </path>
                    </g>
                   </g>
                  </g>
                 </g>
                </g>
               </g>
               <g transform="translate(35.9968 49.4785)">
                <g transform="translate(0 0)">
                 <g transform="rotate(0)">
                  <g transform="scale(1 1)">
                   <g transform="skewX(0) skewY(0)">
                    <g transform="translate(-35.9968 -49.4785)" opacity="1">
                     <path d="M49.7251 46.13C47.9351 50.4 43.3751 53.36 36.0351 53.36C28.6251 53.36 24.0051 50.33 22.2351 46C24.2951 46.47 37.235 49.16 49.7251 46.13Z" fill="none" stroke-linecap="round" stroke-linejoin="miter" stroke="rgba(0, 0, 0, 1)" id="path4" fill-rule="evenodd" stroke-width="2" visibility="hidden">
                      <animate repeatCount="indefinite" keyTimes="0;0.258333;1" dur="4s" values="visible;hidden;hidden" attributeName="visibility"/>
                     </path>
                    </g>
                   </g>
                  </g>
                 </g>
                </g>
               </g>
               <g transform="translate(27 31)">
                <g transform="translate(0 0)">
                 <g transform="rotate(0)">
                  <g transform="scale(1 1)">
                   <g transform="skewX(0) skewY(0)">
                    <g transform="translate(-27 -31)" opacity="1">
                     <path d="M30 31C30 32.6568 28.6552 34 27 34C25.3447 34 24 32.6567 24 31C24 29.3448 25.3447 28 27 28C28.6552 28 30 29.3448 30 31" fill="rgba(0, 0, 0, 1)" stroke-linecap="round" stroke-linejoin="miter" stroke="none" id="path5" fill-rule="evenodd" stroke-width="1" visibility="hidden">
                      <animate repeatCount="indefinite" keyTimes="0;0.258333;1" dur="4s" values="visible;hidden;hidden" attributeName="visibility"/>
                     </path>
                    </g>
                   </g>
                  </g>
                 </g>
                </g>
               </g>
               <g transform="translate(45 31)">
                <g transform="translate(0 0)">
                 <g transform="rotate(0)">
                  <g transform="scale(1 1)">
                   <g transform="skewX(0) skewY(0)">
                    <g transform="translate(-45 -31)" opacity="1">
                     <path d="M48 31C48 32.6568 46.6553 34 45 34C43.3447 34 42 32.6567 42 31C42 29.3448 43.3447 28 45 28C46.6553 28 48 29.3448 48 31" fill="rgba(0, 0, 0, 1)" stroke-linecap="round" stroke-linejoin="miter" stroke="none" id="path6" fill-rule="evenodd" stroke-width="1" visibility="hidden">
                      <animate repeatCount="indefinite" keyTimes="0;0.258333;1" dur="4s" values="visible;hidden;hidden" attributeName="visibility"/>
                     </path>
                    </g>
                   </g>
                  </g>
                 </g>
                </g>
               </g>
               <animate repeatCount="indefinite" keyTimes="0;0.258333;1" dur="4s" values="visible;hidden;hidden" attributeName="visibility"/>
              </g>
             </g>
            </g>
           </g>
          </g>
         </g>
        </g>
        <animate repeatCount="indefinite" keyTimes="0;0.258333;1" dur="4s" values="visible;hidden;hidden" attributeName="visibility"/>
       </g>
      </g>
     </g>
    </g>
   </g>
  </g>
 </g>
 <g transform="translate(36 36)">
  <g transform="translate(924 234)">
   <g transform="rotate(0)">
    <g transform="scale(9.01974 9.01974)">
     <g transform="skewX(0) skewY(0)">
      <g transform="translate(-36 -36)" opacity="1">
       <g id="s2" visibility="hidden">
        <g transform="translate(36 36)">
         <g transform="translate(0 0)">
          <g transform="rotate(0)">
           <g transform="scale(1 1)">
            <g transform="skewX(0) skewY(0)">
             <g transform="translate(-36 -36)" opacity="1">
              <g id="color" visibility="hidden">
               <g transform="translate(36 44.5529)">
                <g transform="translate(0 0)">
                 <g transform="rotate(0)">
                  <g transform="scale(1 1)">
                   <g transform="skewX(0) skewY(0)">
                    <g transform="translate(-36 -44.5529)" opacity="1">
                     <path d="M50.595 41.64C50.607 43.1797 50.3112 44.7062 49.725 46.13C37.235 49.16 24.295 46.47 22.235 46C21.6762 44.6148 21.3943 43.1336 21.405 41.64C21.405 41.64 21.515 41.64 21.515 41.64C21.515 41.64 36.315 45.23 50.405 41.71C50.405 41.71 50.595 41.64 50.595 41.64Z" fill="rgba(255, 255, 255, 1)" stroke-linecap="butt" stroke-linejoin="miter" stroke="none" id="path1" fill-rule="evenodd" stroke-width="1" visibility="hidden">
                      <animate repeatCount="indefinite" keyTimes="0;0.25;0.508333;1" dur="4s" values="hidden;visible;hidden;hidden" attributeName="visibility"/>
                     </path>
                    </g>
                   </g>
                  </g>
                 </g>
                </g>
               </g>
               <g transform="translate(35.9885 49.5792)">
                <g transform="translate(0 0)">
                 <g transform="rotate(0)">
                  <g transform="scale(1 1)">
                   <g transform="skewX(0) skewY(0)">
                    <g transform="translate(-35.9885 -49.5792)" opacity="1">
                     <path d="M49.7251 46.13C47.9351 50.4 43.3751 53.36 36.0351 53.36C28.6251 53.36 24.0051 50.33 22.2351 46C24.2951 46.47 37.235 49.16 49.7251 46.13Z" fill="rgba(234, 90, 71, 1)" stroke-linecap="butt" stroke-linejoin="miter" stroke="none" id="path2" fill-rule="evenodd" stroke-width="1" visibility="hidden">
                      <animate repeatCount="indefinite" keyTimes="0;0.25;0.508333;1" dur="4s" values="hidden;visible;hidden;hidden" attributeName="visibility"/>
                     </path>
                    </g>
                   </g>
                  </g>
                 </g>
                </g>
               </g>
               <animate repeatCount="indefinite" keyTimes="0;0.25;0.508333;1" dur="4s" values="hidden;visible;hidden;hidden" attributeName="visibility"/>
              </g>
             </g>
            </g>
           </g>
          </g>
         </g>
        </g>
        <g transform="translate(36 36)">
         <g transform="translate(0 0)">
          <g transform="rotate(0)">
           <g transform="scale(1 1)">
            <g transform="skewX(0) skewY(0)">
             <g transform="translate(-36 -36)" opacity="1">
              <g id="g6" visibility="hidden">
               <g transform="translate(36 36)">
                <g transform="translate(0 0)">
                 <g transform="rotate(0)">
                  <g transform="scale(1 1)">
                   <g transform="skewX(0) skewY(0)">
                    <g transform="translate(-36 -36)" opacity="1">
                     <ellipse cy="36" fill="none" stroke-linecap="round" cx="36" stroke-linejoin="miter" ry="23" stroke="rgba(0, 0, 0, 1)" id="circle2" stroke-width="2" rx="23" visibility="hidden">
                      <animate repeatCount="indefinite" keyTimes="0;0.25;0.508333;1" dur="4s" values="hidden;visible;hidden;hidden" attributeName="visibility"/>
                     </ellipse>
                    </g>
                   </g>
                  </g>
                 </g>
                </g>
               </g>
               <g transform="translate(36 44.4455)">
                <g transform="translate(0 0)">
                 <g transform="rotate(0)">
                  <g transform="scale(1 1)">
                   <g transform="skewX(0) skewY(0)">
                    <g transform="translate(-36 -44.4455)" opacity="1">
                     <path d="M50.595 41.64C50.607 43.1797 50.3112 44.7062 49.725 46.13C37.235 49.16 24.295 46.47 22.235 46C21.6762 44.6148 21.3943 43.1336 21.405 41.64C21.405 41.64 21.515 41.64 21.515 41.64C21.515 41.64 36.315 45.23 50.405 41.71C50.405 41.71 50.595 41.64 50.595 41.64Z" fill="none" stroke-linecap="round" stroke-linejoin="miter" stroke="rgba(0, 0, 0, 1)" id="path3" fill-rule="evenodd" stroke-width="2" visibility="hidden">
                      <animate repeatCount="indefinite" keyTimes="0;0.25;0.508333;1" dur="4s" values="hidden;visible;hidden;hidden" attributeName="visibility"/>
                     </path>
                    </g>
                   </g>
                  </g>
                 </g>
                </g>
               </g>
               <g transform="translate(35.9968 49.4785)">
                <g transform="translate(0 0)">
                 <g transform="rotate(0)">
                  <g transform="scale(1 1)">
                   <g transform="skewX(0) skewY(0)">
                    <g transform="translate(-35.9968 -49.4785)" opacity="1">
                     <path d="M49.7251 46.13C47.9351 50.4 43.3751 53.36 36.0351 53.36C28.6251 53.36 24.0051 50.33 22.2351 46C24.2951 46.47 37.235 49.16 49.7251 46.13C49.7251 46.13 49.7251 46.13 49.7251 46.13Z" fill="none" stroke-linecap="round" stroke-linejoin="miter" stroke="rgba(0, 0, 0, 1)" id="path4" fill-rule="evenodd" stroke-width="2" visibility="hidden">
                      <animate repeatCount="indefinite" keyTimes="0;0.25;0.508333;1" dur="4s" values="hidden;visible;hidden;hidden" attributeName="visibility"/>
                     </path>
                    </g>
                   </g>
                  </g>
                 </g>
                </g>
               </g>
               <g transform="translate(27 31)">
                <g transform="translate(0 0)">
                 <g transform="rotate(0)">
                  <g transform="scale(1 1)">
                   <g transform="skewX(0) skewY(0)">
                    <g transform="translate(-27 -31)" opacity="1">
                     <path d="M30 31C30 32.6568 28.6552 34 27 34C25.3447 34 24 32.6567 24 31C24 29.3448 25.3447 28 27 28C28.6552 28 30 29.3448 30 31" fill="rgba(0, 0, 0, 1)" stroke-linecap="round" stroke-linejoin="miter" stroke="none" id="path5" fill-rule="evenodd" stroke-width="1" visibility="hidden">
                      <animate repeatCount="indefinite" keyTimes="0;0.25;0.508333;1" dur="4s" values="hidden;visible;hidden;hidden" attributeName="visibility"/>
                     </path>
                    </g>
                   </g>
                  </g>
                 </g>
                </g>
               </g>
               <g transform="translate(44.625 30.703)">
                <g transform="translate(0 0)">
                 <g transform="rotate(0)">
                  <g transform="scale(1 1)">
                   <g transform="skewX(0) skewY(0)">
                    <g transform="translate(-44.625 -30.703)" opacity="1">
                     <path d="M48.9441 32.4036C48.1857 30.6965 46.493 29.5963 44.625 29.5963C42.757 29.5963 41.0643 30.6965 40.3059 32.4036" fill="none" stroke-linecap="round" stroke-linejoin="miter" stroke="rgba(0, 0, 0, 1)" id="path60" fill-rule="evenodd" stroke-width="2" visibility="hidden">
                      <animate repeatCount="indefinite" keyTimes="0;0.25;0.508333;1" dur="4s" values="hidden;visible;hidden;hidden" attributeName="visibility"/>
                     </path>
                    </g>
                   </g>
                  </g>
                 </g>
                </g>
               </g>
               <animate repeatCount="indefinite" keyTimes="0;0.25;0.508333;1" dur="4s" values="hidden;visible;hidden;hidden" attributeName="visibility"/>
              </g>
             </g>
            </g>
           </g>
          </g>
         </g>
        </g>
        <animate repeatCount="indefinite" keyTimes="0;0.25;0.508333;1" dur="4s" values="hidden;visible;hidden;hidden" attributeName="visibility"/>
       </g>
      </g>
     </g>
    </g>
   </g>
  </g>
 </g>
 <g transform="translate(36 36)">
  <g transform="translate(924 234)">
   <g transform="rotate(0)">
    <g transform="scale(9.01974 9.01974)">
     <g transform="skewX(0) skewY(0)">
      <g transform="translate(-36 -36)" opacity="1">
       <g id="s3" visibility="hidden">
        <g transform="translate(36 36)">
         <g transform="translate(0 0)">
          <g transform="rotate(0)">
           <g transform="scale(1 1)">
            <g transform="skewX(0) skewY(0)">
             <g transform="translate(-36 -36)" opacity="1">
              <g id="color" visibility="hidden">
               <g transform="translate(36 44.5529)">
                <g transform="translate(0 0)">
                 <g transform="rotate(0)">
                  <g transform="scale(1 1)">
                   <g transform="skewX(0) skewY(0)">
                    <g transform="translate(-36 -44.5529)" opacity="1">
                     <path d="M50.595 41.64C50.607 43.1797 50.3112 44.7062 49.725 46.13C37.235 49.16 24.295 46.47 22.235 46C21.6762 44.6148 21.3943 43.1336 21.405 41.64C21.405 41.64 21.515 41.64 21.515 41.64C21.515 41.64 36.315 45.23 50.405 41.71C50.405 41.71 50.595 41.64 50.595 41.64Z" fill="rgba(255, 255, 255, 1)" stroke-linecap="butt" stroke-linejoin="miter" stroke="none" id="path1" fill-rule="evenodd" stroke-width="1" visibility="hidden">
                      <animate repeatCount="indefinite" keyTimes="0;0.5;0.758333;1" dur="4s" values="hidden;visible;hidden;hidden" attributeName="visibility"/>
                     </path>
                    </g>
                   </g>
                  </g>
                 </g>
                </g>
               </g>
               <g transform="translate(35.9885 49.5792)">
                <g transform="translate(0 0)">
                 <g transform="rotate(0)">
                  <g transform="scale(1 1)">
                   <g transform="skewX(0) skewY(0)">
                    <g transform="translate(-35.9885 -49.5792)" opacity="1">
                     <path d="M49.7251 46.13C47.9351 50.4 43.3751 53.36 36.0351 53.36C28.6251 53.36 24.0051 50.33 22.2351 46C24.2951 46.47 37.235 49.16 49.7251 46.13Z" fill="rgba(234, 90, 71, 1)" stroke-linecap="butt" stroke-linejoin="miter" stroke="none" id="path2" fill-rule="evenodd" stroke-width="1" visibility="hidden">
                      <animate repeatCount="indefinite" keyTimes="0;0.5;0.758333;1" dur="4s" values="hidden;visible;hidden;hidden" attributeName="visibility"/>
                     </path>
                    </g>
                   </g>
                  </g>
                 </g>
                </g>
               </g>
               <animate repeatCount="indefinite" keyTimes="0;0.5;0.758333;1" dur="4s" values="hidden;visible;hidden;hidden" attributeName="visibility"/>
              </g>
             </g>
            </g>
           </g>
          </g>
         </g>
        </g>
        <g transform="translate(36 36)">
         <g transform="translate(0 0)">
          <g transform="rotate(0)">
           <g transform="scale(1 1)">
            <g transform="skewX(0) skewY(0)">
             <g transform="translate(-36 -36)" opacity="1">
              <g id="line" visibility="hidden">
               <g transform="translate(36 36)">
                <g transform="translate(0 0)">
                 <g transform="rotate(0)">
                  <g transform="scale(1 1)">
                   <g transform="skewX(0) skewY(0)">
                    <g transform="translate(-36 -36)" opacity="1">
                     <ellipse cy="36" fill="none" stroke-linecap="round" cx="36" stroke-linejoin="miter" ry="23" stroke="rgba(0, 0, 0, 1)" id="circle2" stroke-width="2" rx="23" visibility="hidden">
                      <animate repeatCount="indefinite" keyTimes="0;0.5;0.758333;1" dur="4s" values="hidden;visible;hidden;hidden" attributeName="visibility"/>
                     </ellipse>
                    </g>
                   </g>
                  </g>
                 </g>
                </g>
               </g>
               <g transform="translate(36 44.4455)">
                <g transform="translate(0 0)">
                 <g transform="rotate(0)">
                  <g transform="scale(1 1)">
                   <g transform="skewX(0) skewY(0)">
                    <g transform="translate(-36 -44.4455)" opacity="1">
                     <path d="M50.595 41.64C50.607 43.1797 50.3112 44.7062 49.725 46.13C37.235 49.16 24.295 46.47 22.235 46C21.6762 44.6148 21.3943 43.1336 21.405 41.64C21.405 41.64 21.515 41.64 21.515 41.64C21.515 41.64 36.315 45.23 50.405 41.71C50.405 41.71 50.595 41.64 50.595 41.64Z" fill="none" stroke-linecap="round" stroke-linejoin="miter" stroke="rgba(0, 0, 0, 1)" id="path3" fill-rule="evenodd" stroke-width="2" visibility="hidden">
                      <animate repeatCount="indefinite" keyTimes="0;0.5;0.758333;1" dur="4s" values="hidden;visible;hidden;hidden" attributeName="visibility"/>
                     </path>
                    </g>
                   </g>
                  </g>
                 </g>
                </g>
               </g>
               <g transform="translate(35.9968 49.4785)">
                <g transform="translate(0 0)">
                 <g transform="rotate(0)">
                  <g transform="scale(1 1)">
                   <g transform="skewX(0) skewY(0)">
                    <g transform="translate(-35.9968 -49.4785)" opacity="1">
                     <path d="M49.7251 46.13C47.9351 50.4 43.3751 53.36 36.0351 53.36C28.6251 53.36 24.0051 50.33 22.2351 46C24.2951 46.47 37.235 49.16 49.7251 46.13Z" fill="none" stroke-linecap="round" stroke-linejoin="miter" stroke="rgba(0, 0, 0, 1)" id="path4" fill-rule="evenodd" stroke-width="2" visibility="hidden">
                      <animate repeatCount="indefinite" keyTimes="0;0.5;0.758333;1" dur="4s" values="hidden;visible;hidden;hidden" attributeName="visibility"/>
                     </path>
                    </g>
                   </g>
                  </g>
                 </g>
                </g>
               </g>
               <g transform="translate(27.375 30.703)">
                <g transform="translate(0 0)">
                 <g transform="rotate(0)">
                  <g transform="scale(1 1)">
                   <g transform="skewX(0) skewY(0)">
                    <g transform="translate(-27.375 -30.703)" opacity="1">
                     <path d="M31.6941 32.4036C30.9357 30.6965 29.243 29.5963 27.375 29.5963C25.507 29.5963 23.8143 30.6965 23.0559 32.4036" fill="none" stroke-linecap="round" stroke-linejoin="miter" stroke="rgba(0, 0, 0, 1)" id="path5" fill-rule="evenodd" stroke-width="2" visibility="hidden">
                      <animate repeatCount="indefinite" keyTimes="0;0.5;0.758333;1" dur="4s" values="hidden;visible;hidden;hidden" attributeName="visibility"/>
                     </path>
                    </g>
                   </g>
                  </g>
                 </g>
                </g>
               </g>
               <g transform="translate(44.625 30.703)">
                <g transform="translate(0 0)">
                 <g transform="rotate(0)">
                  <g transform="scale(1 1)">
                   <g transform="skewX(0) skewY(0)">
                    <g transform="translate(-44.625 -30.703)" opacity="1">
                     <path d="M48.9441 32.4036C48.1857 30.6965 46.493 29.5963 44.625 29.5963C42.757 29.5963 41.0643 30.6965 40.3059 32.4036" fill="none" stroke-linecap="round" stroke-linejoin="miter" stroke="rgba(0, 0, 0, 1)" id="path6" fill-rule="evenodd" stroke-width="2" visibility="hidden">
                      <animate repeatCount="indefinite" keyTimes="0;0.5;0.758333;1" dur="4s" values="hidden;visible;hidden;hidden" attributeName="visibility"/>
                     </path>
                    </g>
                   </g>
                  </g>
                 </g>
                </g>
               </g>
               <animate repeatCount="indefinite" keyTimes="0;0.5;0.758333;1" dur="4s" values="hidden;visible;hidden;hidden" attributeName="visibility"/>
              </g>
             </g>
            </g>
           </g>
          </g>
         </g>
        </g>
        <animate repeatCount="indefinite" keyTimes="0;0.5;0.758333;1" dur="4s" values="hidden;visible;hidden;hidden" attributeName="visibility"/>
       </g>
      </g>
     </g>
    </g>
   </g>
  </g>
 </g>
 <g transform="translate(36 36)">
  <g transform="translate(924 234)">
   <g transform="rotate(0)">
    <g transform="scale(9.01974 9.01974)">
     <g transform="skewX(0) skewY(0)">
      <g transform="translate(-36 -36)" opacity="1">
       <g id="s4" visibility="hidden">
        <g transform="translate(36 36)">
         <g transform="translate(0 0)">
          <g transform="rotate(0)">
           <g transform="scale(1 1)">
            <g transform="skewX(0) skewY(0)">
             <g transform="translate(-36 -36)" opacity="1">
              <g id="color" visibility="hidden">
               <g transform="translate(36 44.5529)">
                <g transform="translate(0 0)">
                 <g transform="rotate(0)">
                  <g transform="scale(1 1)">
                   <g transform="skewX(0) skewY(0)">
                    <g transform="translate(-36 -44.5529)" opacity="1">
                     <path d="M50.595 41.64C50.607 43.1797 50.3112 44.7062 49.725 46.13C37.235 49.16 24.295 46.47 22.235 46C21.6762 44.6148 21.3943 43.1336 21.405 41.64C21.405 41.64 21.515 41.64 21.515 41.64C21.515 41.64 36.315 45.23 50.405 41.71C50.405 41.71 50.595 41.64 50.595 41.64Z" fill="rgba(255, 255, 255, 1)" stroke-linecap="butt" stroke-linejoin="miter" stroke="none" id="path1" fill-rule="evenodd" stroke-width="1" visibility="hidden">
                      <animate repeatCount="indefinite" keyTimes="0;0.75;1" dur="4s" values="hidden;visible;hidden" attributeName="visibility"/>
                     </path>
                    </g>
                   </g>
                  </g>
                 </g>
                </g>
               </g>
               <g transform="translate(35.9885 49.5792)">
                <g transform="translate(0 0)">
                 <g transform="rotate(0)">
                  <g transform="scale(1 1)">
                   <g transform="skewX(0) skewY(0)">
                    <g transform="translate(-35.9885 -49.5792)" opacity="1">
                     <path d="M49.7251 46.13C47.9351 50.4 43.3751 53.36 36.0351 53.36C28.6251 53.36 24.0051 50.33 22.2351 46C24.2951 46.47 37.235 49.16 49.7251 46.13Z" fill="rgba(255, 255, 255, 1)" stroke-linecap="butt" stroke-linejoin="miter" stroke="none" id="path2" fill-rule="evenodd" stroke-width="1" visibility="hidden">
                      <animate repeatCount="indefinite" keyTimes="0;0.75;1" dur="4s" values="hidden;visible;hidden" attributeName="visibility"/>
                     </path>
                    </g>
                   </g>
                  </g>
                 </g>
                </g>
               </g>
               <animate repeatCount="indefinite" keyTimes="0;0.75;1" dur="4s" values="hidden;visible;hidden" attributeName="visibility"/>
              </g>
             </g>
            </g>
           </g>
          </g>
         </g>
        </g>
        <g transform="translate(36 36)">
         <g transform="translate(0 0)">
          <g transform="rotate(0)">
           <g transform="scale(1 1)">
            <g transform="skewX(0) skewY(0)">
             <g transform="translate(-36 -36)" opacity="1">
              <g id="line" visibility="hidden">
               <g transform="translate(36 36)">
                <g transform="translate(0 0)">
                 <g transform="rotate(0)">
                  <g transform="scale(1 1)">
                   <g transform="skewX(0) skewY(0)">
                    <g transform="translate(-36 -36)" opacity="1">
                     <ellipse cy="36" fill="none" stroke-linecap="round" cx="36" stroke-linejoin="miter" ry="23" stroke="rgba(0, 0, 0, 1)" id="circle2" stroke-width="2" rx="23" visibility="hidden">
                      <animate repeatCount="indefinite" keyTimes="0;0.75;1" dur="4s" values="hidden;visible;hidden" attributeName="visibility"/>
                     </ellipse>
                    </g>
                   </g>
                  </g>
                 </g>
                </g>
               </g>
               <g transform="translate(36 44.4455)">
                <g transform="translate(0 0)">
                 <g transform="rotate(0)">
                  <g transform="scale(1 1)">
                   <g transform="skewX(0) skewY(0)">
                    <g transform="translate(-36 -44.4455)" opacity="1">
                     <path d="M50.595 41.64C50.607 43.1797 50.3112 44.7062 49.725 46.13C37.235 49.16 24.295 46.47 22.235 46C21.6762 44.6148 21.3943 43.1336 21.405 41.64C21.405 41.64 21.515 41.64 21.515 41.64C21.515 41.64 36.315 45.23 50.405 41.71C50.405 41.71 50.595 41.64 50.595 41.64Z" fill="none" stroke-linecap="round" stroke-linejoin="miter" stroke="rgba(0, 0, 0, 1)" id="path3" fill-rule="evenodd" stroke-width="2" visibility="hidden">
                      <animate repeatCount="indefinite" keyTimes="0;0.75;1" dur="4s" values="hidden;visible;hidden" attributeName="visibility"/>
                     </path>
                    </g>
                   </g>
                  </g>
                 </g>
                </g>
               </g>
               <g transform="translate(35.9968 49.4785)">
                <g transform="translate(0 0)">
                 <g transform="rotate(0)">
                  <g transform="scale(1 1)">
                   <g transform="skewX(0) skewY(0)">
                    <g transform="translate(-35.9968 -49.4785)" opacity="1">
                     <path d="M49.7251 46.13C47.9351 50.4 43.3751 53.36 36.0351 53.36C28.6251 53.36 24.0051 50.33 22.2351 46C24.2951 46.47 37.235 49.16 49.7251 46.13Z" fill="none" stroke-linecap="round" stroke-linejoin="miter" stroke="rgba(0, 0, 0, 1)" id="path4" fill-rule="evenodd" stroke-width="2" visibility="hidden">
                      <animate repeatCount="indefinite" keyTimes="0;0.75;1" dur="4s" values="hidden;visible;hidden" attributeName="visibility"/>
                     </path>
                    </g>
                   </g>
                  </g>
                 </g>
                </g>
               </g>
               <g transform="translate(27.375 30.703)">
                <g transform="translate(0 0)">
                 <g transform="rotate(0)">
                  <g transform="scale(1 1)">
                   <g transform="skewX(0) skewY(0)">
                    <g transform="translate(-27.375 -30.703)" opacity="1">
                     <path d="M31.6941 32.4036C30.9357 30.6965 29.243 29.5963 27.375 29.5963C25.507 29.5963 23.8143 30.6965 23.0559 32.4036" fill="none" stroke-linecap="round" stroke-linejoin="miter" stroke="rgba(0, 0, 0, 1)" id="path5" fill-rule="evenodd" stroke-width="2" visibility="hidden">
                      <animate repeatCount="indefinite" keyTimes="0;0.75;1" dur="4s" values="hidden;visible;hidden" attributeName="visibility"/>
                     </path>
                    </g>
                   </g>
                  </g>
                 </g>
                </g>
               </g>
               <g transform="translate(44.625 30.703)">
                <g transform="translate(0 0)">
                 <g transform="rotate(0)">
                  <g transform="scale(1 1)">
                   <g transform="skewX(0) skewY(0)">
                    <g transform="translate(-44.625 -30.703)" opacity="1">
                     <path d="M48.9441 32.4036C48.1857 30.6965 46.493 29.5963 44.625 29.5963C42.757 29.5963 41.0643 30.6965 40.3059 32.4036" fill="none" stroke-linecap="round" stroke-linejoin="miter" stroke="rgba(0, 0, 0, 1)" id="path6" fill-rule="evenodd" stroke-width="2" visibility="hidden">
                      <animate repeatCount="indefinite" keyTimes="0;0.75;1" dur="4s" values="hidden;visible;hidden" attributeName="visibility"/>
                     </path>
                    </g>
                   </g>
                  </g>
                 </g>
                </g>
               </g>
               <animate repeatCount="indefinite" keyTimes="0;0.75;1" dur="4s" values="hidden;visible;hidden" attributeName="visibility"/>
              </g>
             </g>
            </g>
           </g>
          </g>
         </g>
        </g>
        <animate repeatCount="indefinite" keyTimes="0;0.75;1" dur="4s" values="hidden;visible;hidden" attributeName="visibility"/>
       </g>
      </g>
     </g>
    </g>
   </g>
  </g>
 </g>
 <defs>
  <linearGradient id="0x00007f9909d95890">
   <stop stop-color="rgba(255, 228, 19, 1)" offset="0"/>
   <stop stop-color="rgba(204, 132, 15, 1)" offset="1"/>
  </linearGradient>
  <radialGradient cy="-116.783" xlink:href="#0x00007f9909d95890" cx="-84.6992" id="0x00007f9922876480" r="384.301" gradientUnits="userSpaceOnUse"/>
 </defs>
</svg>
