<?xml version="1.0" encoding="UTF-8" standalone="no"?>
<!-- Created with Friction - https://friction.graphics -->

<svg viewBox="0 0 1920 1080" xmlns="http://www.w3.org/2000/svg" xmlns:xlink="http://www.w3.org/1999/xlink">
 <g transform="translate(0 0)">
  <g transform="translate(960 540)">
   <g transform="rotate(0)">
    <g transform="scale(0.923914 0.923914)">
     <g transform="skewX(0) skewY(0)">
      <g transform="translate(0 0)" opacity="1">
       <ellipse stroke-linecap="round" cx="0" ry="278.314" stroke-width="0" stroke-linejoin="round" rx="278.314" stroke="none" fill="url(#0x00007fdc70aeee90)" cy="0" id="Circle"/>
      </g>
     </g>
    </g>
   </g>
  </g>
 </g>
 <g transform="translate(0 0)">
  <g>
   <animateTransform repeatCount="indefinite" dur="10s" values="960 0;960 0;1306.41 0;1358.99 0;1321.93 0;1122.69 0;767.299 0;585.087 0;560.265 0;574.735 0;711.541 0;1181.36 0;1359.89 0;1359.91 0;1152.7 0;812.75 0;613.59 0;561.036 0;605.519 0;960 0" attributeName="transform" type="translate" keyTimes="0;0;0.0833333;0.125135;0.16;0.216667;0.29;0.346667;0.37506;0.396667;0.446667;0.546667;0.62511;0.626667;0.71;0.78;0.833333;0.875064;0.913333;1" keySplines="0 0 1 1;0.332013 0.401353 0.664293 0.797091;0.333031 0.663951 0.666484 1;0.333364 1.40776e-13 0.666781 0.331103;0.334965 0.203838 0.66814 0.566701;0.33378 0.316171 0.665899 0.696425;0.331823 0.45442 0.665099 0.817567;0.33305 0.664808 0.666515 1;0.333395 2.02975e-13 0.666805 0.331933;0.334568 0.16524 0.668001 0.522151;0.334609 0.280478 0.665797 0.702265;0.331655 0.60956 0.664983 1;0.3333 0 0.666633 0.332373;0.335725 0.0142089 0.668111 0.412243;0.334119 0.302958 0.666343 0.679002;0.33198 0.415364 0.665115 0.774677;0.334071 0.665357 0.666986 1;0.332892 0 0.665874 0.332142;0.33584 0.191158 0.668055 0.592181" calcMode="spline"/>
   <g>
    <animateTransform repeatCount="indefinite" dur="10s" values="0 140;0 140;0 162.249;0 285.03;0 768.285;0 898.285;0 939.993;0 939.649;0 754.331;0 298.16;0 162.249;0 140.131;0 152.567;0 354.682;0 754.331;0 890.523;0 940;0 890.523;0 754.331;0 285.03;0 162.249;0 140" attributeName="transform" type="translate" keyTimes="0;0;0.0266667;0.07;0.173333;0.213333;0.250058;0.253333;0.33;0.426667;0.473333;0.500052;0.52;0.586667;0.67;0.71;0.75;0.79;0.83;0.93;0.973333;1" keySplines="0 0 1 1;0.333675 0.0420958 0.666801 0.340043;0.334437 0.19506 0.667851 0.546114;0.334677 0.277085 0.665737 0.705071;0.332213 0.421795 0.665552 0.770071;0.33276 0.654649 0.666326 1;0.333326 0 0.666661 0.332303;0.335236 0.0291839 0.668265 0.417719;0.334145 0.300426 0.665459 0.716245;0.332058 0.456364 0.665456 0.810168;0.33307 0.664915 0.666527 1;0.33339 0 0.666793 0.332038;0.335124 0.138139 0.668368 0.512871;0.333926 0.310075 0.665718 0.704263;0.332219 0.413987 0.665529 0.762187;0.332653 0.651048 0.666249 1;0.333751 0 0.667347 0.348952;0.334471 0.237813 0.667781 0.586013;0.3341 0.30205 0.665293 0.723855;0.332149 0.453886 0.665563 0.80494;0.333199 0.659957 0.666325 0.957904" calcMode="spline"/>
    <g transform="rotate(0)">
     <g transform="scale(1 1)">
      <g transform="skewX(0) skewY(0)">
       <g transform="translate(0 0)" opacity="1">
        <g id="Group">
         <g transform="translate(0 0)">
          <g transform="translate(0 0)">
           <g transform="rotate(0)">
            <g transform="scale(0.255502 0.255502)">
             <g transform="skewX(0) skewY(0)">
              <g transform="translate(0 0)" opacity="1">
               <path d="M24.1677 -296.838C24.1677 -296.838 103.054 -136.996 103.054 -136.996C103.054 -136.996 279.45 -111.364 279.45 -111.364C288.746 -110.013 296.468 -103.503 299.371 -94.5693C302.273 -85.6362 299.852 -75.8298 293.126 -69.2734C293.126 -69.2734 165.485 55.146 165.485 55.146C165.485 55.146 195.617 230.829 195.617 230.829C197.205 240.087 193.399 249.443 185.8 254.964C178.201 260.485 168.127 261.214 159.813 256.843C159.813 256.843 2.03936 173.896 2.03936 173.896C2.03936 173.896 -155.734 256.843 -155.734 256.843C-164.048 261.214 -174.122 260.485 -181.721 254.964C-189.32 249.443 -193.126 240.087 -191.538 230.829C-191.538 230.829 -161.406 55.146 -161.406 55.146C-161.406 55.146 -289.048 -69.2734 -289.048 -69.2734C-295.774 -75.8298 -298.194 -85.6362 -295.292 -94.5694C-292.389 -103.503 -284.667 -110.013 -275.371 -111.364C-275.371 -111.364 -98.9756 -136.996 -98.9756 -136.996C-98.9756 -136.996 -20.0889 -296.838 -20.0889 -296.838C-15.932 -305.261 -7.35356 -310.593 2.03936 -310.593C11.4323 -310.593 20.0107 -305.261 24.1676 -296.838C24.1676 -296.838 24.1677 -296.838 24.1677 -296.838Z" stroke-linecap="round" stroke-width="2" stroke-linejoin="round" fill-rule="evenodd" stroke="none" fill="rgba(235, 190, 0, 1)" id="star"/>
              </g>
             </g>
            </g>
           </g>
          </g>
         </g>
         <g transform="translate(0 0)">
          <g>
           <animateTransform repeatCount="indefinite" dur="10s" values="0 0;0 0;-95.2628 0;-109.73 0;-99.531 0;-44.741 0;52.9929 0;103.101 0;109.942 0;107.094 0;71.8763 0;-60.8731 0;-99.531 0;-109.97 0;-109.783 0;-52.9929 0;40.4937 0;95.2628 0;109.976 0;109.976 0;97.4824 0;5.38845e-14 0" attributeName="transform" type="translate" keyTimes="0;0;0.0833333;0.125132;0.16;0.216667;0.29;0.346667;0.375071;0.393333;0.443333;0.546667;0.59;0.625071;0.63;0.71;0.78;0.833333;0.873333;0.874969;0.913333;1" keySplines="0 0 1 1;0.333233 0.402827 0.666483 0.798415;0.333309 0.664143 0.666652 1;0.333336 0 0.666677 0.331257;0.333458 0.202922 0.66678 0.564925;0.333368 0.315781 0.666607 0.697069;0.333218 0.45633 0.666547 0.818356;0.33331 0.664103 0.666654 1;0.333337 6.22946e-13 0.666674 0.331706;0.333422 0.149377 0.666766 0.505086;0.333445 0.271519 0.666603 0.70129;0.333241 0.429954 0.666575 0.780091;0.333294 0.657164 0.666644 1;0.333333 3.99466e-13 0.666666 0.33204;0.333482 0.0407624 0.666805 0.431608;0.333394 0.3023 0.666642 0.679289;0.333229 0.416928 0.666548 0.775642;0.333279 0.626051 0.666632 0.973771;0.333334 0.667186 0.666667 1;0.333362 0 0.666714 0.346005;0.333527 0.189842 0.666772 0.590604" calcMode="spline"/>
           <g>
            <animateTransform repeatCount="indefinite" dur="10s" values="0 -110;0 -110;0 -103.881;0 -70.1166;0 58.9409;0 110;0 58.9409;0 -50.9626;0 -106.544;0 -109.874;0 -103.881;0 -66.5059;0 58.9409;0 109.904;0 109.904;0 98.5283;0 58.9409;0 -70.1166;0 -103.881;0 -110" attributeName="transform" type="translate" keyTimes="0;0;0.0266667;0.07;0.17;0.25;0.33;0.413333;0.48;0.499951;0.526667;0.573333;0.67;0.746667;0.749946;0.786667;0.83;0.93;0.973333;1" keySplines="0 0 1 1;0.333359 0.0420559 0.666677 0.339797;0.333417 0.194465 0.666757 0.544619;0.333439 0.275099 0.666607 0.698589;0.333201 0.60913 0.666531 1;0.333469 0 0.666799 0.39087;0.333407 0.294963 0.666621 0.690433;0.333203 0.489436 0.66653 0.862543;0.333323 0.667855 0.666662 1;0.333344 2.10192e-13 0.666687 0.334938;0.333425 0.189197 0.666764 0.542017;0.333427 0.28281 0.666604 0.700247;0.333201 0.584854 0.666533 0.97097;0.333334 0.667618 0.666667 1;0.333359 0 0.66671 0.344376;0.333426 0.224256 0.666759 0.574391;0.333393 0.301411 0.666561 0.724901;0.333243 0.455381 0.666583 0.805535;0.333323 0.660203 0.666641 0.957944" calcMode="spline"/>
            <g transform="rotate(0)">
             <g transform="scale(0.0861412 0.0865991)">
              <g transform="skewX(0) skewY(0)">
               <g transform="translate(0 0)" opacity="1">
                <path d="M24.1677 -296.838C24.1677 -296.838 103.054 -136.996 103.054 -136.996C103.054 -136.996 279.45 -111.364 279.45 -111.364C288.746 -110.013 296.468 -103.503 299.371 -94.5693C302.273 -85.6362 299.852 -75.8298 293.126 -69.2734C293.126 -69.2734 165.485 55.146 165.485 55.146C165.485 55.146 195.617 230.829 195.617 230.829C197.205 240.087 193.399 249.443 185.8 254.964C178.201 260.485 168.127 261.214 159.813 256.843C159.813 256.843 2.03936 173.896 2.03936 173.896C2.03936 173.896 -155.734 256.843 -155.734 256.843C-164.048 261.214 -174.122 260.485 -181.721 254.964C-189.32 249.443 -193.126 240.087 -191.538 230.829C-191.538 230.829 -161.406 55.146 -161.406 55.146C-161.406 55.146 -289.048 -69.2734 -289.048 -69.2734C-295.774 -75.8298 -298.194 -85.6362 -295.292 -94.5694C-292.389 -103.503 -284.667 -110.013 -275.371 -111.364C-275.371 -111.364 -98.9756 -136.996 -98.9756 -136.996C-98.9756 -136.996 -20.0889 -296.838 -20.0889 -296.838C-15.932 -305.261 -7.35356 -310.593 2.03936 -310.593C11.4323 -310.593 20.0107 -305.261 24.1676 -296.838C24.1676 -296.838 24.1677 -296.838 24.1677 -296.838Z" stroke-linecap="round" stroke-width="2" stroke-linejoin="round" fill-rule="evenodd" stroke="none" fill="rgba(250, 144, 0, 1)" id="starmini"/>
               </g>
              </g>
             </g>
            </g>
           </g>
          </g>
         </g>
        </g>
       </g>
      </g>
     </g>
    </g>
   </g>
  </g>
 </g>
 <defs>
  <linearGradient id="0x00007fdc6918e950">
   <stop offset="0" stop-color="rgba(209, 122, 14, 1)"/>
   <stop offset="1" stop-color="rgba(1, 48, 87, 1)"/>
  </linearGradient>
  <radialGradient cx="-132.202" r="544.931" xlink:href="#0x00007fdc6918e950" gradientUnits="userSpaceOnUse" cy="-153.848" id="0x00007fdc70aeee90"/>
 </defs>
</svg>
