<?xml version="1.0" encoding="UTF-8" standalone="no"?>
<!-- Created with Friction - https://friction.graphics -->

<svg xmlns:xlink="http://www.w3.org/1999/xlink" xmlns="http://www.w3.org/2000/svg" viewBox="0 0 1920 1080">
 <g transform="translate(0 0)">
  <g transform="translate(355.439 766.272)">
   <g transform="rotate(0)">
    <g transform="scale(1 1)">
     <g transform="skewX(0) skewY(0)">
      <g transform="translate(0 0)" opacity="1">
       <ellipse cy="0" rx="200.003" stroke-width="50" cx="0" fill="none" stroke="rgba(255, 255, 255, 0.2)" stroke-linecap="round" stroke-linejoin="round" ry="200.003" id="Circle"/>
      </g>
     </g>
    </g>
   </g>
  </g>
 </g>
 <g transform="translate(399.924 350.323)">
  <g transform="translate(-44.4854 415.949)">
   <g>
    <animateTransform repeatCount="indefinite" type="rotate" keyTimes="0;0;0.13;0.139014;0.250115;0.27;0.296593;0.373333;0.443088;0.5;0.562293;0.623333;0.733333;0.743669;0.85893;0.883333;1" calcMode="spline" keySplines="0 0 1 1;0.36581 0.164871 0.615875 0.890078;0.343109 0.682494 0.675889 1;0.351692 0 0.577587 1;0.312666 0 0.644604 0.306282;0.39046 0.653429 0.717539 1;0.449499 0 0.572937 0.283589;0.286424 0.708964 0.658453 1;0.417587 0 0.797997 0.389852;0.215008 0.589279 0.59905 1;0.35391 0 0.720729 0.286623;0.334142 0.793818 0.628484 0.851107;0.319825 0.688995 0.653838 1;0.288226 1.40225e-15 0.670378 1;0.348337 0 0.684253 0.290066;0.366245 0.102004 0.661906 0.833381" dur="10s" values="10.5944;10.5944;77.3463;77.4684;70.0348;70.4613;69.6805;90.2115;98.6943;92.3966;99.2233;91.9043;70.2833;69.9057;80.028;78.2906;10.7848" attributeName="transform"/>
    <g transform="scale(0.700892 0.700892)">
     <g transform="skewX(0) skewY(0)">
      <g transform="translate(-399.924 -350.323)" opacity="1">
       <path d="M424.439 97.8688L612.704 520.008Q612.905 520.458 613.089 520.915Q613.274 521.373 613.442 521.836Q613.611 522.3 613.763 522.769Q613.914 523.238 614.049 523.712Q614.184 524.187 614.302 524.666Q614.421 525.144 614.521 525.627Q614.622 526.11 614.706 526.596Q614.79 527.082 614.856 527.571Q614.923 528.059 614.972 528.55Q615.021 529.041 615.052 529.533Q615.084 530.025 615.098 530.518Q615.112 531.011 615.108 531.504Q615.105 531.997 615.084 532.49Q615.063 532.983 615.024 533.474Q614.986 533.966 614.93 534.456Q614.874 534.946 614.8 535.434Q614.727 535.922 614.636 536.406Q614.545 536.891 614.437 537.372Q614.33 537.854 614.205 538.331Q614.08 538.808 613.938 539.28Q613.796 539.752 613.638 540.219Q613.479 540.686 613.304 541.148Q613.129 541.609 612.938 542.063Q612.747 542.518 612.539 542.965Q612.332 543.413 612.109 543.853Q611.886 544.292 611.648 544.724Q611.409 545.156 611.155 545.579Q610.901 546.002 610.633 546.415Q610.364 546.829 610.081 547.233Q609.798 547.636 609.501 548.03Q609.203 548.423 608.892 548.806Q608.581 549.188 608.256 549.56Q607.932 549.931 607.594 550.291Q607.257 550.65 606.907 550.998Q606.557 551.345 606.194 551.68Q605.832 552.014 605.458 552.336Q605.084 552.658 604.699 552.966Q604.314 553.274 603.918 553.568Q603.523 553.862 603.117 554.142Q602.711 554.422 602.295 554.687Q601.879 554.953 601.454 555.203Q601.029 555.454 600.596 555.689Q600.162 555.924 599.721 556.143Q599.279 556.363 598.83 556.567Q598.381 556.771 597.925 556.958Q597.469 557.146 597.006 557.317Q596.544 557.489 596.076 557.643Q595.607 557.798 595.134 557.936Q594.66 558.074 594.182 558.195Q593.704 558.316 593.222 558.42Q592.74 558.524 592.255 558.611Q591.769 558.698 591.281 558.768Q590.793 558.837 590.302 558.889Q589.812 558.941 589.32 558.976Q588.828 559.011 588.335 559.028Q587.842 559.045 587.349 559.045Q586.856 559.044 586.363 559.026Q585.87 559.009 585.378 558.973Q584.886 558.938 584.396 558.885Q583.906 558.832 583.418 558.762Q582.929 558.691 582.444 558.604Q581.959 558.516 581.477 558.411Q580.995 558.307 580.517 558.185Q580.039 558.063 579.566 557.924L400 505.277L219.936 563.628Q219.476 563.776 219.011 563.909Q218.547 564.041 218.078 564.157Q217.609 564.272 217.136 564.371Q216.663 564.47 216.186 564.551Q215.71 564.633 215.231 564.697Q214.752 564.762 214.272 564.809Q213.791 564.856 213.309 564.886Q212.826 564.916 212.343 564.929Q211.86 564.941 211.377 564.936Q210.894 564.932 210.411 564.909Q209.929 564.887 209.447 564.848Q208.966 564.808 208.486 564.752Q208.006 564.695 207.529 564.621Q207.051 564.547 206.577 564.456Q206.102 564.365 205.631 564.257Q205.16 564.149 204.694 564.025Q204.227 563.9 203.765 563.758Q203.303 563.617 202.846 563.459Q202.39 563.301 201.939 563.127Q201.488 562.952 201.044 562.762Q200.6 562.572 200.163 562.365Q199.726 562.159 199.297 561.938Q198.868 561.716 198.447 561.479Q198.026 561.242 197.614 560.99Q197.201 560.738 196.798 560.471Q196.395 560.205 196.002 559.924Q195.609 559.643 195.226 559.348Q194.844 559.053 194.472 558.745Q194.1 558.436 193.739 558.115Q193.379 557.793 193.03 557.459Q192.681 557.125 192.344 556.778Q192.008 556.432 191.684 556.073Q191.36 555.715 191.049 555.345Q190.738 554.975 190.441 554.594Q190.143 554.213 189.86 553.822Q189.576 553.431 189.307 553.03Q189.038 552.629 188.783 552.218Q188.528 551.807 188.289 551.388Q188.049 550.969 187.824 550.541Q187.6 550.113 187.39 549.678Q187.181 549.242 186.988 548.799Q186.795 548.356 186.617 547.907Q186.44 547.458 186.279 547.002Q186.118 546.547 185.974 546.085Q185.829 545.624 185.701 545.159Q185.573 544.693 185.462 544.222Q185.351 543.752 185.257 543.278Q185.163 542.805 185.086 542.328Q185.009 541.851 184.949 541.371Q184.889 540.892 184.846 540.41Q184.803 539.929 184.778 539.447Q184.753 538.964 184.745 538.481Q184.737 537.998 184.746 537.515Q184.756 537.032 184.782 536.549Q184.809 536.067 184.853 535.586Q184.897 535.105 184.958 534.626Q185.019 534.146 185.098 533.67Q185.176 533.193 185.272 532.719Q185.367 532.246 185.48 531.776Q185.592 531.306 185.721 530.84Q185.851 530.375 185.996 529.914Q186.142 529.453 186.305 528.998Q186.467 528.543 186.645 528.094Q186.824 527.646 187.019 527.203L375.839 97.9918Q376.032 97.5532 376.241 97.1218Q376.449 96.6904 376.673 96.2668Q376.898 95.8432 377.137 95.428Q377.376 95.0128 377.63 94.6064Q377.884 94.2001 378.152 93.8032Q378.421 93.4063 378.704 93.0193Q378.986 92.6323 379.283 92.2558Q379.579 91.8792 379.889 91.5136Q380.198 91.148 380.521 90.7938Q380.844 90.4396 381.179 90.0972Q381.514 89.7549 381.862 89.4249Q382.209 89.0948 382.568 88.7775Q382.928 88.4603 383.298 88.1561Q383.668 87.852 384.049 87.5614Q384.43 87.2708 384.821 86.9941Q385.213 86.7174 385.614 86.4551Q386.015 86.1927 386.425 85.9449Q386.835 85.6971 387.254 85.4643Q387.673 85.2315 388.1 85.0139Q388.527 84.7964 388.961 84.5944Q389.396 84.3923 389.837 84.2061Q390.279 84.0199 390.727 83.8497Q391.175 83.6795 391.628 83.5255Q392.082 83.3716 392.541 83.2341Q393 83.0966 393.464 82.9758Q393.928 82.855 394.395 82.7509Q394.863 82.6469 395.334 82.5598Q395.806 82.4726 396.28 82.4026Q396.754 82.3325 397.23 82.2795Q397.706 82.2266 398.184 82.1909Q398.662 82.1551 399.141 82.1367Q399.62 82.1182 400.099 82.117Q400.578 82.1157 401.057 82.1318Q401.536 82.1479 402.014 82.1812Q402.492 82.2145 402.968 82.265Q403.445 82.3155 403.919 82.3832Q404.394 82.4509 404.865 82.5356Q405.337 82.6204 405.805 82.722Q406.274 82.8237 406.738 82.9422Q407.202 83.0607 407.662 83.1958Q408.122 83.331 408.576 83.4826Q409.031 83.6343 409.48 83.8022Q409.928 83.9701 410.371 84.1541Q410.813 84.3381 411.249 84.538Q411.684 84.7378 412.112 84.9532Q412.54 85.1686 412.961 85.3993Q413.38 85.63 413.792 85.8756Q414.203 86.1213 414.606 86.3817Q415.008 86.642 415.401 86.9167Q415.793 87.1914 416.176 87.4801Q416.558 87.7687 416.93 88.071Q417.302 88.3732 417.663 88.6887Q418.023 89.0042 418.372 89.3325Q418.722 89.6607 419.059 90.0014Q419.396 90.342 419.72 90.6946Q420.045 91.0471 420.356 91.4112Q420.668 91.7752 420.966 92.1503Q421.264 92.5253 421.549 92.9108Q421.834 93.2964 422.104 93.6919Q422.375 94.0875 422.631 94.4925Q422.887 94.8976 423.128 95.3116Q423.369 95.7256 423.595 96.148Q423.822 96.5705 424.033 97.0008Q424.243 97.4311 424.439 97.8688Z" stroke-width="7.10543e-15" fill="url(#0x00007fc01e284630)" stroke="none" stroke-linecap="round" stroke-linejoin="round" fill-rule="evenodd" id="arrow"/>
      </g>
     </g>
    </g>
   </g>
  </g>
 </g>
 <g transform="translate(863.009 377.21)">
  <g>
   <animateTransform repeatCount="indefinite" type="translate" keyTimes="0;0;0.123333;0.13;0.27;0.371172;0.373333;0.5;0.622414;0.623333;0.733333;0.886667;1" calcMode="spline" keySplines="0 0 1 1;0 0 0.780729 0.369834;0.526127 0.316673 0.877531 0.650315;0.0507937 0.531112 0.580635 1;0.573078 0 0.444413 1;0.328189 0 0.661479 0.330552;0.463509 0.0106022 1 1;0 0 0.522405 1;0.333501 0 0.666838 0.332172;0.533737 0.0258938 0.466263 1;0.382899 0 0.922464 0.630324;0.104902 0.434914 1 1" dur="10s" values="-410.976 0;-410.976 0;6.24502 0;113.935 0;731.477 0;909.938 0;909.878 0;474.168 0;909.67 0;909.878 0;731.477 0;113.935 0;-410.976 0" attributeName="transform"/>
   <g>
    <animateTransform repeatCount="indefinite" type="translate" keyTimes="0;0;0.123333;0.127869;0.13;0.27;0.373333;0.433592;0.5;0.561357;0.623333;0.733333;0.884213;0.886667;1" calcMode="spline" keySplines="0 0 1 1;0 0 0.57408 0.946482;0.33688 0.660263 0.670382 1;0.335259 1.2212e-11 0.668632 0.330359;0.378413 0.0324453 0.614762 1;0.521935 0 0.672258 0.200722;0.263192 0.725173 0.63152 1;0.379633 6.66134e-16 0.759445 0.439584;0.38537 0.739849 0.718818 1;0.502828 0 0.836831 0.677679;0.142828 0.248759 0.509697 1;0.35193 0 0.655607 1;0.332708 0 0.666034 0.329878;0.467451 0.0277625 1 1" dur="10s" values="0 -90.6429;0 -90.6429;0 241.544;0 242.271;0 242.144;0 -42.6118;0 390.857;0 614.589;0 434.268;0 606.094;0 390.857;0 -42.6118;0 242.33;0 242.144;0 -90.6429" attributeName="transform"/>
    <g transform="rotate(0)">
     <g transform="scale(1 1)">
      <g transform="skewX(0) skewY(0)">
       <g transform="translate(-863.009 -377.21)" opacity="1">
        <g id="fake_null0">
         <g transform="translate(0 0)">
          <g transform="translate(731.298 349.804)">
           <g transform="rotate(0)">
            <g transform="scale(1 1)">
             <g transform="skewX(0) skewY(0)">
              <g transform="translate(0 0)" opacity="1">
               <path d="M62.9081 -41.3969C62.9081 -41.3969 200.514 96.209 200.514 96.209" stroke-width="15" fill="none" stroke="rgba(255, 123, 0, 1)" stroke-linecap="round" stroke-linejoin="round" id="line2"/>
              </g>
             </g>
            </g>
           </g>
          </g>
         </g>
         <g transform="translate(0 0)">
          <g transform="translate(678.574 510.32)">
           <g transform="rotate(0)">
            <g transform="scale(1 1)">
             <g transform="skewX(0) skewY(0)">
              <g transform="translate(0 0)" opacity="1">
               <path d="M115.632 -64.3071C115.632 -64.3071 253.238 -201.913 253.238 -201.913" stroke-width="15" fill="none" stroke="rgba(255, 123, 0, 1)" stroke-linecap="round" stroke-linejoin="round" id="line1"/>
              </g>
             </g>
            </g>
           </g>
          </g>
         </g>
         <g transform="translate(68.803 68.803)">
          <g transform="translate(794.206 308.407)">
           <g transform="rotate(0)">
            <g transform="scale(1 1)">
             <g transform="skewX(0) skewY(0)">
              <g transform="translate(-68.803 -68.803)" opacity="1">
               <path d="M0 137.606C0 137.606 0 0 0 0C0 0 137.606 0 137.606 0C137.606 0 137.606 137.606 137.606 137.606C137.606 137.606 0 137.606 0 137.606Z" stroke-width="15" fill="none" stroke="rgba(255, 123, 0, 1)" stroke-linecap="round" stroke-linejoin="round" id="rectangle"/>
              </g>
             </g>
            </g>
           </g>
          </g>
         </g>
        </g>
       </g>
      </g>
     </g>
    </g>
   </g>
  </g>
 </g>
 <defs>
  <linearGradient id="0x00007fc01b79ad70">
   <stop stop-color="rgba(32, 167, 232, 1)" offset="0"/>
   <stop stop-color="rgba(2, 50, 110, 1)" offset="1"/>
  </linearGradient>
  <linearGradient x1="181.724" x2="618.125" y1="79.1169" xlink:href="#0x00007fc01b79ad70" y2="567.963" gradientUnits="userSpaceOnUse" id="0x00007fc01e284630"/>
 </defs>
</svg>
