<?xml version="1.0" encoding="UTF-8" standalone="no"?>
<!-- Created with Friction - https://friction.graphics -->

<svg viewBox="0 0 1920 540" xmlns="http://www.w3.org/2000/svg" xmlns:xlink="http://www.w3.org/1999/xlink">
 <rect width="1920" height="540" fill="rgba(0, 0, 0, 1)"/>
 <g transform="translate(948.886 781.537)">
  <g transform="translate(11.1143 -511.537)">
   <g transform="rotate(0)">
    <g transform="scale(1 1)">
     <g transform="skewX(0) skewY(0)">
      <g transform="translate(-948.886 -781.537)" opacity="1">
       <g>
        <g transform="translate(1312.52 897.039)">
         <g transform="translate(0 0)">
          <g transform="rotate(0)">
           <g transform="scale(1 1)">
            <g transform="skewX(0) skewY(0)">
             <g transform="translate(-1312.52 -897.039)" opacity="1">
              <g mask="url(#SubMask)">
               <g transform="translate(0 0)">
                <g>
                 <animateTransform repeatCount="indefinite" keySplines="0 0 1 1;0.333333 0.333333 0.634455 0.678712;0.266429 0.397467 0.599116 0.739683;0.292083 0.736318 0.66074 0.906933;0.332688 0.622848 0.666609 0.843959;0.333319 0.748835 0.666661 0.617094;0 0.333333 1 0.666667;0.333339 0.382906 0.666681 0.251165;0.333391 0.156041 0.667312 0.377152;0.33926 0.093067 0.707917 0.263682;0.400884 0.260317 0.733571 0.602533;0.365545 0.321288 0.666667 0.666667;0 0 1 1" calcMode="spline" attributeName="transform" type="translate" keyTimes="0;0.29375;0.3;0.31875;0.36875;0.4;0.45;0.75;0.8;0.83125;0.88125;0.9;0.90625;1" dur="5.33333s" values="294.105 799.171;294.105 799.171;463.071 799.171;761.717 799.171;966.856 799.171;985.643 799.171;991.905 799.171;991.905 799.171;985.643 799.171;966.856 799.171;761.717 799.171;463.071 799.171;294.105 799.171;294.105 799.171"/>
                 <g transform="rotate(0)">
                  <g transform="scale(1 1)">
                   <g transform="skewX(0) skewY(0)">
                    <g transform="translate(0 0)" opacity="1">
                     <path d="M23.332 -11.9062L28.1719 0L30.5273 0L15.4102 -37.3945L0.234375 0L2.58984 0L7.44141 -11.9062L23.332 -11.9062ZM22.4648 -14.0625L8.30859 -14.0625L15.4102 -31.5352L22.4648 -14.0625ZM68.2773 -31.582C66.543 -34.6992 63.0859 -36.668 59.4414 -36.668C54.0156 -36.668 50.1719 -32.8828 50.1719 -27.5039C50.1719 -24.6211 51.5195 -22.5117 53.9219 -21.0234L60.4492 -17.5664C63.5664 -16.0312 67.7383 -14.3086 67.7383 -10.2188C67.7383 -5.42578 63.5664 -1.67578 58.8203 -1.67578C54.4492 -1.67578 51.6133 -4.37109 50.0781 -8.20312L48.0625 -7.30078C49.7383 -2.63672 53.6758 0.480469 58.7148 0.480469C64.5742 0.480469 70.0469 -4.03125 70.0469 -10.0312C70.0469 -13.3008 68.6523 -15.5039 65.9219 -17.2266L59.0078 -20.8359C56.0781 -22.2188 52.4805 -23.8125 52.4805 -27.5977C52.4805 -31.3945 55.4102 -34.5117 59.3008 -34.5117C62.6992 -34.5117 65.0078 -32.8359 66.6367 -30.2344L68.2773 -31.582ZM78.668 -22.1719L76.5117 -22.1719L76.5117 0L78.668 0L78.668 -22.1719ZM77.6133 -31.5352C76.5117 -31.5352 75.6445 -30.6211 75.6445 -29.5664C75.6445 -28.4648 76.5117 -27.5977 77.6133 -27.5977C78.7148 -27.5977 79.582 -28.4648 79.582 -29.5664C79.582 -30.6211 78.7148 -31.5352 77.6133 -31.5352ZM88.8594 -22.1719L86.6914 -22.1719L86.6914 0L88.8594 0L88.8594 -12.1875C88.8594 -15.7969 89.7148 -20.6367 94.3789 -20.6367C98.6914 -20.6367 99.3242 -17.1328 99.3242 -13.6758L99.3242 0L101.48 0L101.48 -12.7734C101.48 -16.6055 102.582 -20.6367 107.188 -20.6367C111.418 -20.6367 111.945 -17.6133 111.945 -14.2031L111.945 0L114.102 0L114.102 -13.9219C114.102 -18.7734 112.953 -22.6523 107.234 -22.6523C104.41 -22.6523 101.961 -21.2695 100.766 -18.6211C99.6055 -21.2109 97.3555 -22.6523 94.5195 -22.6523C92.1641 -22.6523 89.9609 -21.457 88.9531 -19.3945L88.8594 -19.3945L88.8594 -22.1719ZM132.449 -20.6367C137.875 -20.6367 141.18 -15.9375 141.18 -10.8516C141.18 -5.90625 137.723 -1.53516 132.543 -1.53516C127.211 -1.53516 123.707 -5.42578 123.707 -10.6055C123.707 -15.9375 126.789 -20.6367 132.449 -20.6367ZM123.859 -22.1719L121.691 -22.1719L121.691 12.9609L123.859 12.9609L123.859 -3.84375L123.953 -3.84375C125.781 -1.00781 129.086 0.480469 132.496 0.480469C139.164 0.480469 143.348 -4.41797 143.348 -10.8984C143.348 -17.3789 139.164 -22.6523 132.402 -22.6523C129.133 -22.6523 125.582 -21.0234 123.953 -18.1875L123.859 -18.1875L123.859 -22.1719ZM150.859 -39.5977L148.691 -39.5977L148.691 0L150.859 0L150.859 -39.5977ZM177.945 -10.8984C177.992 -17.2852 174.008 -22.6523 167.293 -22.6523C160.812 -22.6523 156.535 -17.332 156.535 -11.1328C156.535 -4.85156 160.707 0.480469 167.293 0.480469C171.652 0.480469 175.203 -1.67578 177.219 -5.51953L175.402 -6.57422C173.82 -3.59766 171.031 -1.53516 167.574 -1.53516C162.441 -1.53516 158.551 -5.28516 158.691 -10.8984L177.945 -10.8984ZM158.691 -12.9141C159.078 -17.0859 162.828 -20.6367 167.34 -20.6367C171.898 -20.6367 175.262 -16.9922 175.789 -12.9141L158.691 -12.9141ZM200.188 -17.6133L205.285 -17.6133C207.676 -17.6133 210.699 -17.5664 212.914 -16.4648C215.363 -15.2695 216.652 -12.6211 216.652 -9.98438C216.652 -7.30078 215.316 -5.03906 213.102 -3.55078C210.898 -2.0625 208.262 -2.15625 205.707 -2.15625L200.188 -2.15625L200.188 -17.6133ZM207.148 0C210.371 0 213.055 -0.433594 215.598 -2.58984C217.859 -4.51172 218.961 -7.14844 218.961 -10.0781C218.961 -14.6836 215.938 -18.293 211.473 -19.1953C214.355 -20.8359 215.645 -23.2852 215.645 -26.5898C215.645 -29.4727 214.836 -32.1562 212.621 -34.0781C210.465 -36 207.875 -36.1875 205.133 -36.1875L197.891 -36.1875L197.891 0L207.148 0ZM200.188 -34.0312L204.172 -34.0312C206.293 -34.0312 208.543 -34.0312 210.371 -32.8828C212.434 -31.582 213.348 -29.2852 213.348 -26.9297C213.348 -24.4336 212.715 -22.6055 210.652 -21.1172C208.59 -19.6289 206.621 -19.7812 204.172 -19.7812L200.188 -19.7812L200.188 -34.0312ZM226.859 -39.5977L224.691 -39.5977L224.691 0L226.859 0L226.859 -39.5977ZM253.945 -10.8984C253.992 -17.2852 250.008 -22.6523 243.293 -22.6523C236.812 -22.6523 232.535 -17.332 232.535 -11.1328C232.535 -4.85156 236.707 0.480469 243.293 0.480469C247.652 0.480469 251.203 -1.67578 253.219 -5.51953L251.402 -6.57422C249.82 -3.59766 247.031 -1.53516 243.574 -1.53516C238.441 -1.53516 234.551 -5.28516 234.691 -10.8984L253.945 -10.8984ZM234.691 -12.9141C235.078 -17.0859 238.828 -20.6367 243.34 -20.6367C247.898 -20.6367 251.262 -16.9922 251.789 -12.9141L234.691 -12.9141ZM260.859 -22.1719L258.691 -22.1719L258.691 0L260.859 0L260.859 -10.9453C260.859 -15.457 261.773 -20.6367 267.34 -20.6367C272.18 -20.6367 272.66 -17.3789 272.66 -13.3945L272.66 0L274.828 0L274.828 -13.3945C274.828 -19.1016 273.234 -22.6523 267.527 -22.6523C264.645 -22.6523 262.242 -21.1641 260.953 -18.7148L260.859 -18.7148L260.859 -22.1719ZM291.434 -1.53516C286.055 -1.53516 282.691 -6.14062 282.691 -11.2266C282.691 -16.0312 286.195 -20.6367 291.293 -20.6367C296.66 -20.6367 300.164 -16.6055 300.164 -11.4727C300.164 -6.14062 297.094 -1.53516 291.434 -1.53516ZM300.023 0L302.18 0L302.18 -39.5977L300.023 -39.5977L300.023 -18.3398L299.93 -18.3398C298.055 -21.1172 294.797 -22.6523 291.387 -22.6523C284.707 -22.6523 280.535 -17.707 280.535 -11.2266C280.535 -4.75781 284.766 0.480469 291.48 0.480469C294.738 0.480469 298.301 -1.14844 299.93 -3.98438L300.023 -3.98438L300.023 0ZM361.418 0L363.621 0L355.852 -37.3945L342.504 -4.46484L329.203 -37.3945L321.434 0L323.637 0L329.836 -29.9531L329.93 -29.9531L342.504 1.19531L355.125 -29.9531L355.219 -29.9531L361.418 0ZM377.055 -22.6523C370.621 -22.6523 365.535 -17.4258 365.535 -11.0391C365.535 -4.75781 370.668 0.480469 377.055 0.480469C383.582 0.480469 388.715 -4.51172 388.715 -11.0859C388.715 -17.6602 383.582 -22.6523 377.055 -22.6523ZM376.914 -20.6367C382.387 -20.6367 386.559 -16.5117 386.559 -11.0391C386.559 -5.66016 382.34 -1.53516 376.914 -1.53516C371.676 -1.53516 367.691 -6 367.691 -11.0391C367.691 -16.1719 371.629 -20.6367 376.914 -20.6367ZM402.434 -1.53516C397.055 -1.53516 393.691 -6.14062 393.691 -11.2266C393.691 -16.0312 397.195 -20.6367 402.293 -20.6367C407.66 -20.6367 411.164 -16.6055 411.164 -11.4727C411.164 -6.14062 408.094 -1.53516 402.434 -1.53516ZM411.023 0L413.18 0L413.18 -39.5977L411.023 -39.5977L411.023 -18.3398L410.93 -18.3398C409.055 -21.1172 405.797 -22.6523 402.387 -22.6523C395.707 -22.6523 391.535 -17.707 391.535 -11.2266C391.535 -4.75781 395.766 0.480469 402.48 0.480469C405.738 0.480469 409.301 -1.14844 410.93 -3.98438L411.023 -3.98438L411.023 0ZM439.945 -10.8984C439.992 -17.2852 436.008 -22.6523 429.293 -22.6523C422.812 -22.6523 418.535 -17.332 418.535 -11.1328C418.535 -4.85156 422.707 0.480469 429.293 0.480469C433.652 0.480469 437.203 -1.67578 439.219 -5.51953L437.402 -6.57422C435.82 -3.59766 433.031 -1.53516 429.574 -1.53516C424.441 -1.53516 420.551 -5.28516 420.691 -10.8984L439.945 -10.8984ZM420.691 -12.9141C421.078 -17.0859 424.828 -20.6367 429.34 -20.6367C433.898 -20.6367 437.262 -16.9922 437.789 -12.9141L420.691 -12.9141ZM479.332 -11.9062L484.172 0L486.527 0L471.41 -37.3945L456.234 0L458.59 0L463.441 -11.9062L479.332 -11.9062ZM478.465 -14.0625L464.309 -14.0625L471.41 -31.5352L478.465 -14.0625ZM501.449 -20.6367C506.875 -20.6367 510.18 -15.9375 510.18 -10.8516C510.18 -5.90625 506.723 -1.53516 501.543 -1.53516C496.211 -1.53516 492.707 -5.42578 492.707 -10.6055C492.707 -15.9375 495.789 -20.6367 501.449 -20.6367ZM492.859 -22.1719L490.691 -22.1719L490.691 12.9609L492.859 12.9609L492.859 -3.84375L492.953 -3.84375C494.781 -1.00781 498.086 0.480469 501.496 0.480469C508.164 0.480469 512.348 -4.41797 512.348 -10.8984C512.348 -17.3789 508.164 -22.6523 501.402 -22.6523C498.133 -22.6523 494.582 -21.0234 492.953 -18.1875L492.859 -18.1875L492.859 -22.1719ZM528.449 -20.6367C533.875 -20.6367 537.18 -15.9375 537.18 -10.8516C537.18 -5.90625 533.723 -1.53516 528.543 -1.53516C523.211 -1.53516 519.707 -5.42578 519.707 -10.6055C519.707 -15.9375 522.789 -20.6367 528.449 -20.6367ZM519.859 -22.1719L517.691 -22.1719L517.691 12.9609L519.859 12.9609L519.859 -3.84375L519.953 -3.84375C521.781 -1.00781 525.086 0.480469 528.496 0.480469C535.164 0.480469 539.348 -4.41797 539.348 -10.8984C539.348 -17.3789 535.164 -22.6523 528.402 -22.6523C525.133 -22.6523 521.582 -21.0234 519.953 -18.1875L519.859 -18.1875L519.859 -22.1719ZM546.859 -22.1719L544.691 -22.1719L544.691 0L546.859 0L546.859 -11.332C546.859 -14.5898 546.566 -20.6367 551.418 -20.6367C551.992 -20.6367 552.426 -20.4961 552.953 -20.2031L554.102 -22.125C553.34 -22.4648 552.613 -22.6523 551.758 -22.6523C549.402 -22.6523 547.82 -21.3164 546.953 -19.3008L546.859 -19.3008L546.859 -22.1719ZM567.055 -22.6523C560.621 -22.6523 555.535 -17.4258 555.535 -11.0391C555.535 -4.75781 560.668 0.480469 567.055 0.480469C573.582 0.480469 578.715 -4.51172 578.715 -11.0859C578.715 -17.6602 573.582 -22.6523 567.055 -22.6523ZM566.914 -20.6367C572.387 -20.6367 576.559 -16.5117 576.559 -11.0391C576.559 -5.66016 572.34 -1.53516 566.914 -1.53516C561.676 -1.53516 557.691 -6 557.691 -11.0391C557.691 -16.1719 561.629 -20.6367 566.914 -20.6367ZM592.293 -20.6367C597.66 -20.6367 601.164 -16.6055 601.164 -11.4727C601.164 -6.14062 598.094 -1.53516 592.434 -1.53516C587.055 -1.53516 583.691 -6.14062 583.691 -11.2266C583.691 -16.0312 587.195 -20.6367 592.293 -20.6367ZM603.18 -22.1719L601.023 -22.1719L601.023 -18.3398L600.93 -18.3398C599.055 -21.1172 595.797 -22.6523 592.387 -22.6523C585.707 -22.6523 581.535 -17.707 581.535 -11.2266C581.535 -4.75781 585.766 0.480469 592.48 0.480469C595.738 0.480469 599.301 -1.14844 600.93 -3.98438L601.023 -3.98438L601.023 0L603.18 0L603.18 -22.1719ZM627.684 -19.9219C625.48 -21.7969 622.844 -22.6523 619.961 -22.6523C613.434 -22.6523 608.535 -17.5664 608.535 -11.1328C608.535 -4.65234 613.34 0.480469 619.914 0.480469C622.891 0.480469 625.715 -0.621094 627.977 -2.58984L627.977 -5.51953C625.961 -3.07031 622.984 -1.53516 619.82 -1.53516C614.582 -1.53516 610.691 -6.09375 610.691 -11.1328C610.691 -16.1719 614.629 -20.6367 619.867 -20.6367C623.031 -20.6367 625.574 -19.3477 627.684 -17.0391L627.684 -19.9219ZM633.691 -39.5977L633.691 0L635.859 0L635.859 -10.9453C635.859 -15.457 636.773 -20.6367 642.34 -20.6367C647.18 -20.6367 647.66 -17.3789 647.66 -13.3945L647.66 0L649.828 0L649.828 -13.3945C649.828 -19.1016 648.234 -22.6523 642.527 -22.6523C639.645 -22.6523 637.242 -21.1641 635.953 -18.7148L635.859 -18.7148L635.859 -39.5977L633.691 -39.5977Z" stroke="none" stroke-linejoin="round" stroke-width="2" fill="rgba(255, 255, 255, 1)" stroke-linecap="round"/>
                    </g>
                   </g>
                  </g>
                 </g>
                </g>
               </g>
              </g>
             </g>
            </g>
           </g>
          </g>
         </g>
        </g>
        <g transform="translate(603.883 780.295)">
         <g transform="translate(0 0)">
          <g transform="rotate(0)">
           <g transform="scale(1 1)">
            <g transform="skewX(0) skewY(0)">
             <g transform="translate(-603.883 -780.295)" opacity="1">
              <g mask="url(#MainMask)">
               <g transform="translate(0 0)">
                <g>
                 <animateTransform repeatCount="indefinite" keySplines="0 0 1 1;0 0.333333 1 0.666667;0.333333 0.333333 0.633489 0.677863;0.263657 0.393332 0.594923 0.73696;0.288681 0.727743 0.659836 0.906685;0.332619 0.622718 0.666602 0.843956;0.333318 0.748832 0.666661 0.617094;0 0.333333 1 0.666667;0.333339 0.382906 0.666682 0.251168;0.333398 0.156044 0.667381 0.377282;0.340164 0.0933152 0.711319 0.272257;0.405077 0.26304 0.736343 0.606668;0.366511 0.322137 0.666667 0.666667;0 0 1 1" calcMode="spline" attributeName="transform" type="translate" keyTimes="0;0.20625;0.23125;0.2375;0.25625;0.30625;0.3375;0.3875;0.75;0.8;0.83125;0.88125;0.9;0.90625;1" dur="5.33333s" values="973.924 816.349;973.924 816.349;973.924 816.349;796.047 816.349;481.652 816.349;265.694 816.349;245.916 816.349;239.324 816.349;239.324 816.349;245.916 816.349;265.694 816.349;481.652 816.349;796.047 816.349;973.924 816.349;973.924 816.349"/>
                 <g transform="rotate(0)">
                  <g transform="scale(1 1)">
                   <g transform="skewX(0) skewY(0)">
                    <g transform="translate(0 0)" opacity="1">
                     <path d="M10.3125 -90.4688L2.87109 0L14.2676 0L17.7539 -62.4023L17.9883 -62.4023L29.6484 0L37.9102 0L47.2852 -49.4531L49.3066 -62.4023L49.5703 -62.4023L49.8047 -50.5078L50.5078 -33.7207L52.6758 0L64.4531 0L56.0449 -90.4688L45.4688 -90.4688L37.6758 -50.6543L34.0723 -28.916L33.7207 -25.1953L33.4863 -25.1953L20.6543 -90.4688L10.3125 -90.4688ZM89.4414 -9.11133C81.0332 -9.11133 82 -25.3125 82 -30.3516C82 -35.2734 81.0332 -51.4746 89.4414 -51.4746C97 -51.4746 96.5312 -35.1562 96.5312 -30.3516C96.5312 -25.5469 97 -9.11133 89.4414 -9.11133ZM96.1504 0L107.43 0L107.43 -60.5859L96.1504 -60.5859L96.1504 -53.877L95.916 -53.877C93.8945 -58.3301 90.4082 -61.5527 85.1055 -61.5527C70.8379 -61.5527 70.4863 -41.1621 70.4863 -31.084C70.4863 -21.2402 70.7207 0.966797 84.7539 0.966797C91.2285 0.966797 93.6309 -2.51953 95.916 -7.79297L96.1504 -7.79297L96.1504 0ZM141.066 -58.916C137.844 -60.8496 134.709 -61.5527 130.871 -61.5527C121.291 -61.5527 114.67 -54.6094 114.67 -45C114.67 -28.2129 133.654 -27.4805 133.654 -16.7871C133.654 -12.1289 130.988 -9.11133 126.066 -9.11133C122.229 -9.11133 119.592 -10.6934 116.721 -12.9492L116.721 -1.93359C120.09 0.117188 122.609 0.966797 126.564 0.966797C137.346 0.966797 143.967 -6.35742 143.967 -17.0508C143.967 -34.3066 125.246 -34.8047 125.012 -45C125.012 -49.0723 128.469 -51.4746 132.688 -51.4746C135.441 -51.4746 138.928 -50.1562 141.066 -48.252L141.066 -58.916ZM151.273 -99.6094L151.273 0L162.553 0L162.553 -32.168L162.787 -32.168L178.402 0L191.469 0L173.949 -33.7207L189.447 -60.5859L176.85 -60.5859L162.787 -33.7207L162.553 -33.7207L162.553 -99.6094L151.273 -99.6094ZM209.436 -60.5859L198.156 -60.5859L198.156 0L209.436 0L209.436 -60.5859ZM203.928 -71.3965C207.883 -71.3965 211.369 -74.7656 211.369 -78.9551C211.369 -83.0273 207.883 -86.3965 203.928 -86.3965C199.709 -86.3965 196.369 -83.0273 196.369 -78.9551C196.369 -74.7656 199.709 -71.3965 203.928 -71.3965ZM231.553 -60.5859L220.273 -60.5859L220.273 0L231.553 0L231.553 -37.793C231.553 -42.9492 230.967 -51.4746 238.408 -51.4746C244.414 -51.4746 245.117 -46.084 245.117 -41.8945L245.117 0L256.396 0L256.396 -41.6309C256.396 -50.8887 256.045 -61.5527 244.033 -61.5527C241.045 -61.5527 238.643 -60.8496 236.592 -59.4141C234.688 -58.0664 233.105 -56.1621 231.787 -53.6426L231.553 -53.6426L231.553 -60.5859ZM291.414 -30C291.414 -25.0781 292.586 -9.11133 284.441 -9.11133C276.268 -9.11133 277 -26.0449 277 -30.5859C277 -34.9219 276.268 -51.4746 284.09 -51.4746C291.414 -51.4746 291.414 -34.9219 291.414 -30ZM302.693 -60.5859L291.268 -60.5859L291.268 -53.6426L291.033 -53.4082C288.631 -58.2129 285.994 -61.5527 279.988 -61.5527C265.252 -61.5527 265.486 -39.6094 265.486 -29.8828C265.486 -19.5703 265.838 0.966797 280.252 0.966797C285.76 1.20117 289.48 -2.28516 291.033 -7.20703L291.268 -7.20703L291.268 2.87109C291.268 8.4082 292 15.7324 284.441 15.7324C278.787 15.7324 277 10.9277 277.234 6.5918L266.307 6.5918L266.307 8.29102C266.307 19.5703 273.279 25.8105 284.207 25.8105C296.189 25.8105 302.693 22.0898 302.693 0.46875L302.693 -60.5859ZM349.436 -60.5859L338.156 -60.5859L338.156 0L349.436 0L349.436 -60.5859ZM343.928 -71.3965C347.883 -71.3965 351.369 -74.7656 351.369 -78.9551C351.369 -83.0273 347.883 -86.3965 343.928 -86.3965C339.709 -86.3965 336.369 -83.0273 336.369 -78.9551C336.369 -74.7656 339.709 -71.3965 343.928 -71.3965ZM371.553 -60.5859L360.273 -60.5859L360.273 0L371.553 0L371.553 -37.793C371.553 -42.9492 370.967 -51.4746 378.408 -51.4746C384.414 -51.4746 385.117 -46.084 385.117 -41.8945L385.117 0L396.396 0L396.396 -41.6309C396.396 -50.8887 396.045 -61.5527 384.033 -61.5527C381.045 -61.5527 378.643 -60.8496 376.592 -59.4141C374.688 -58.0664 373.105 -56.1621 371.787 -53.6426L371.553 -53.6426L371.553 -60.5859ZM434.324 -90.4688L434.324 0L446.307 0L446.307 -41.1621L464.793 -41.1621L464.793 -51.5918L446.307 -51.5918L446.307 -80.0391L466.844 -80.0391L466.844 -90.4688L434.324 -90.4688ZM484.553 -60.5859L473.273 -60.5859L473.273 0L484.67 0L484.67 -38.1738C484.67 -45.8496 487.307 -50.5078 495.715 -50.5078L497.648 -50.3906L497.648 -61.5527C491.408 -61.5527 487.453 -58.4473 484.787 -53.1738L484.553 -53.1738L484.553 -60.5859ZM516.436 -60.5859L505.156 -60.5859L505.156 0L516.436 0L516.436 -60.5859ZM510.928 -71.3965C514.883 -71.3965 518.369 -74.7656 518.369 -78.9551C518.369 -83.0273 514.883 -86.3965 510.928 -86.3965C506.709 -86.3965 503.369 -83.0273 503.369 -78.9551C503.369 -74.7656 506.709 -71.3965 510.928 -71.3965ZM552.469 -59.5312C549.48 -60.9668 546.844 -61.5527 543.475 -61.5527C526.922 -61.5527 525.486 -42.2461 525.486 -29.7656C525.486 -17.7539 527.391 0.966797 543.357 0.966797C546.727 0.966797 549.598 0.234375 552.469 -1.43555L552.469 -11.8945C550.682 -10.5469 549.246 -9.60938 546.727 -9.60938C537.234 -9.60938 537 -24.7266 537 -30.8496C537 -37.3242 537.234 -50.8887 546.961 -51.0059C549.48 -50.8887 551.033 -49.9219 552.234 -48.1055L552.469 -48.1055L552.469 -59.5312ZM562.559 -77.7539L562.559 -60.5859L556.436 -60.5859L556.436 -51.709L562.559 -51.709L562.559 0L573.838 0L573.838 -51.709L579.844 -51.709L579.844 -60.5859L573.838 -60.5859L573.838 -77.7539L562.559 -77.7539ZM598.436 -60.5859L587.156 -60.5859L587.156 0L598.436 0L598.436 -60.5859ZM592.928 -71.3965C596.883 -71.3965 600.369 -74.7656 600.369 -78.9551C600.369 -83.0273 596.883 -86.3965 592.928 -86.3965C588.709 -86.3965 585.369 -83.0273 585.369 -78.9551C585.369 -74.7656 588.709 -71.3965 592.928 -71.3965ZM626.559 0.966797C643.844 0.966797 645.631 -17.4023 645.631 -30.1172C645.631 -43.3301 643.844 -61.5527 626.559 -61.5527C609.273 -61.5527 607.486 -43.3301 607.486 -30.1172C607.486 -17.4023 609.273 0.966797 626.559 0.966797ZM626.559 -9.3457C617.916 -9.3457 619 -25.8105 619 -30.1172C619 -34.9219 617.916 -51.2402 626.559 -51.2402C635.201 -51.2402 634.117 -34.9219 634.117 -30.1172C634.117 -25.8105 635.201 -9.3457 626.559 -9.3457ZM665.553 -60.5859L654.273 -60.5859L654.273 0L665.553 0L665.553 -37.793C665.553 -42.9492 664.967 -51.4746 672.408 -51.4746C678.414 -51.4746 679.117 -46.084 679.117 -41.8945L679.117 0L690.396 0L690.396 -41.6309C690.396 -50.8887 690.045 -61.5527 678.033 -61.5527C675.045 -61.5527 672.643 -60.8496 670.592 -59.4141C668.688 -58.0664 667.105 -56.1621 665.787 -53.6426L665.553 -53.6426L665.553 -60.5859Z" stroke="none" stroke-linejoin="round" stroke-width="2" fill="rgba(255, 255, 255, 1)" stroke-linecap="round"/>
                    </g>
                   </g>
                  </g>
                 </g>
                </g>
               </g>
              </g>
             </g>
            </g>
           </g>
          </g>
         </g>
        </g>
        <g transform="translate(5.57086 75.2004)">
         <g transform="translate(954.429 705.094)">
          <g transform="rotate(0)">
           <g>
            <animateTransform repeatCount="indefinite" keySplines="0 0 1 1;0.333333 0.333333 0.666646 0.849991;0.220702 0.696358 0.56468 1;0.255285 0 0.870576 0.97235;0.333333 0.677023 0.666667 1;0.333334 4.23212e-15 0.666666 0.858511;0.220702 0.696358 0.56468 1;0.255286 0 0.870573 0.97235;0.333333 0.700945 0.666667 1;0.333333 1.15063e-13 0.666667 0.873504;0 0.333333 1 0.666667;0.333333 0.333333 0.666667 0.666667;0.333333 0.283333 0.666667 0;0.296296 0.148148 0.703704 0.407407;0.296298 0.148149 0.703704 0.407408;0.333335 0.250001 0.666667 0.666667;0 0 1 1" calcMode="spline" attributeName="transform" type="scale" keyTimes="0;0.075;0.08125;0.0822532;0.09375;0.0940613;0.1;0.101003;0.1125;0.116409;0.1375;0.90625;0.90625;0.9375;0.95;0.9625;0.96875;1" dur="5.33333s" values="1 0;1 0;1 1.25;1 1.25;1 0.875;1 0.875;1 1.03125;1 1.03125;1 0.984375;1 0.984375;1 1;1 1;1 1;1 0.96875;1 0.875;1 0.5;1 0;1 0"/>
            <g transform="skewX(0) skewY(0)">
             <g transform="translate(-5.57086 -75.2004)" opacity="1">
              <rect ry="0" width="11.1417" stroke="none" x="0" rx="0" stroke-linejoin="round" height="150.401" stroke-width="2" fill="rgba(255, 255, 255, 1)" stroke-linecap="round" y="0"/>
             </g>
            </g>
           </g>
          </g>
         </g>
        </g>
       </g>
      </g>
     </g>
    </g>
   </g>
  </g>
 </g>
 <defs>
  <mask id="SubMask">
   <g transform="translate(5 5)">
    <g transform="translate(959.226 695.705)">
     <g transform="rotate(0)">
      <g transform="scale(1 1)">
       <g transform="skewX(0) skewY(0)">
        <g transform="translate(-5 -5)" opacity="1">
         <rect ry="0" width="706.596" stroke="none" x="0" rx="0" stroke-linejoin="round" height="162" stroke-width="2" fill="rgba(255, 255, 255, 1)" stroke-linecap="round" y="0"/>
        </g>
       </g>
      </g>
     </g>
    </g>
   </g>
  </mask>
  <mask id="MainMask">
   <g transform="translate(5 5)">
    <g transform="translate(231.949 696.752)">
     <g transform="rotate(0)">
      <g transform="scale(1 1)">
       <g transform="skewX(0) skewY(0)">
        <g transform="translate(-5 -5)" opacity="1">
         <rect ry="0" width="727.277" stroke="none" x="0" rx="0" stroke-linejoin="round" height="170.617" stroke-width="2" fill="rgba(255, 255, 255, 1)" stroke-linecap="round" y="0"/>
        </g>
       </g>
      </g>
     </g>
    </g>
   </g>
  </mask>
 </defs>
</svg>
