<!--Created with Friction - https://friction.graphics--><svg xmlns:xlink="http://www.w3.org/1999/xlink" xmlns="http://www.w3.org/2000/svg" viewBox="0 0 1920 1500"><rect width="1920" height="1500" fill="rgba(0, 0, 0, 1)"/><g transform="translate(211.802 152.223) translate(596.998 420.077) rotate(0) scale(3.77953 3.77953) skewX(0) skewY(0) translate(-211.802 -152.223)" opacity="1"><rect y="-98.3163" stroke-linecap="butt" width="639.613" x="-108.004" stroke-width="11.3428" height="501.078" ry="0" id="rect6506" stroke="none" rx="0" fill="url(#0x000063d5e9ff0dc0)" stroke-linejoin="miter"/></g><g transform="translate(211.802 152.223) translate(602.946 417.622) rotate(0) scale(3.78 3.77953) skewX(0) skewY(0) translate(-211.802 -152.223)" opacity="1"><g id="layer1"><g transform="translate(232.983 94.725) translate(0 0) translate(0 0) rotate(0) scale(1 1) skewX(0) skewY(0) translate(-232.983 -94.725)" opacity="1"><ellipse stroke-linecap="butt" cx="232.983" stroke-width="7.9375" ry="159.648" id="circle9007" cy="94.725" stroke="rgba(60, 10, 84, 1)" rx="159.648" fill="none" stroke-linejoin="miter"/></g><g transform="translate(203.057 168.033) translate(0 0) translate(0 0) rotate(0) scale(1 1) skewX(0) skewY(0) translate(-203.057 -168.033)" opacity="1"><ellipse stroke-linecap="butt" cx="203.057" stroke-width="7.9375" ry="159.648" id="circle9011" cy="168.033" stroke="rgba(73, 14, 88, 1)" rx="159.648" fill="none" stroke-linejoin="miter"/></g><g transform="translate(185.758 218.923) translate(0 0) translate(0 0) rotate(0) scale(1 1) skewX(0) skewY(0) translate(-185.758 -218.923)" opacity="1"><ellipse stroke-linecap="butt" cx="185.758" stroke-width="7.9375" ry="159.648" id="circle9015" cy="218.923" stroke="rgba(82, 17, 90, 1)" rx="159.648" fill="none" stroke-linejoin="miter"/></g><g transform="translate(196.518 222.977) translate(0 0) translate(0 0) rotate(0) scale(1 1) skewX(0) skewY(0) translate(-196.518 -222.977)" opacity="1"><ellipse stroke-linecap="butt" cx="196.518" stroke-width="7.9375" ry="159.648" id="circle9013" cy="222.977" stroke="rgba(96, 22, 92, 1)" rx="159.648" fill="none" stroke-linejoin="miter"/></g><g transform="translate(229.508 177.864) translate(0 0) translate(0 0) rotate(0) scale(1 1) skewX(0) skewY(0) translate(-229.508 -177.864)" opacity="1"><ellipse stroke-linecap="butt" cx="229.508" stroke-width="7.9375" ry="159.648" id="circle9009" cy="177.864" stroke="rgba(111, 28, 97, 1)" rx="159.648" fill="none" stroke-linejoin="miter"/></g><g transform="translate(272.568 113.1) translate(0 0) translate(0 0) rotate(0) scale(1 1) skewX(0) skewY(0) translate(-272.568 -113.1)" opacity="1"><ellipse stroke-linecap="butt" cx="272.568" stroke-width="7.9375" ry="159.648" id="path231" cy="113.1" stroke="rgba(133, 33, 106, 1)" rx="159.648" fill="none" stroke-linejoin="miter"/></g></g></g><defs><linearGradient id="0x000063d5eacab560"><stop offset="0" stop-color="rgba(33, 3, 72, 1)"/><stop offset="1" stop-color="rgba(68, 6, 99, 1)"/></linearGradient><linearGradient id="0x000063d5eacd6480"><stop offset="0" stop-color="rgba(33, 3, 72, 1)"/><stop offset="1" stop-color="rgba(68, 6, 99, 1)"/></linearGradient><linearGradient xlink:href="#0x000063d5eacd6480" x1="165.252" gradientUnits="userSpaceOnUse" id="0x000063d5e9ff0dc0" y2="434.011" x2="538.531" y1="40.8941"/></defs></svg>