<svg xmlns="http://www.w3.org/2000/svg" viewBox="0 0 448 512"><path d="M 232.3,0 C 218.1,0.2 203.7,2.4 190.7,8.3 180.6,12.9 171.7,19.9 165.1,28.7 156.9,39.6 152.3,52.8 150,66.1 c -3.1,17.9 -2.4,36.2 -1.2,54.2 0.4,7 1.1,13.9 1,20.9 -0.4,6.9 -1.3,13.8 -2.7,20.6 -2.2,10.8 -6.3,21.1 -11.9,30.6 -2.1,3.6 -4.4,7.2 -6.8,10.5 -14.8,17.8 -28.4,36.6 -39.9,56.7 -8.1,14.2 -15.1,29.2 -20,44.8 -4,12.4 -7.1,25.2 -7.1,38.2 0,6.1 0.8,12.2 2.4,18.2 0.9,3.4 1.9,6.7 2.8,10.1 -2.6,3.6 -5.3,7.4 -8.6,10.8 -7.8,6.5 -9.3,6.2 -19.6,9.9 -6.3,2.2 -11.3,4.6 -14.8,11.3 -2.7,5 -2.1,12.2 -0.9,20 1.2,7.9 3,16.3 0.6,23.9 V 447 c -5,13.7 -5,21.7 -2.6,26.4 7.9,15.4 46.6,6.1 76.5,21.9 23.6,12.3 52.6,15.8 66.8,1.9 6,1.2 12.1,1.5 18.1,0.8 8.8,-1 17.3,-3.2 26,-4.5 6.6,-1 13.3,-1.7 20,-1.9 7.8,0 15.4,1.4 23.1,2.4 10.6,1.5 21.3,2.4 31.9,1.6 2,-0.1 4,-0.5 6,-0.7 7.3,12.8 19,18 32.4,16.9 14.2,-1.1 30.4,-9.8 43.6,-25.5 22,-26.6 62.3,-29.7 63.2,-46.5 0.3,-5.1 -3.1,-13 -13.7,-24.6 -10,-11.2 -7.2,-32.9 -17,-41.5 1.1,-3.3 2.3,-6.5 3.4,-9.8 4.7,-13.9 6.1,-28.9 4.8,-43.5 -1.7,-18.4 -7.5,-36.2 -15.4,-52.9 -10.5,-21.8 -24.6,-41.8 -40.1,-60.3 -3.8,-4.6 -7.4,-9.3 -11.1,-14 -7.5,-9.9 -14.5,-20.4 -18.5,-32.2 -2.7,-7.9 -3.9,-16.4 -3.6,-24.8 0.3,-19.3 0.6,-38.7 -2.1,-57.8 C 313.5,64.7 310,50.7 303.4,38.2 298,27.9 290.3,18.8 280.6,12.4 270.5,5.6 258.6,1.9 246.5,0.6 241.8,0.1 237,-0.1 232.3,0 Z m 2.4,7 c 80.9,0.1 76.3,85.4 75.8,131.2 -0.3,30.1 16.3,50.5 33.4,72 15.2,18 35.1,44.3 46.5,74.4 9.3,24.6 13.3,51.9 3.7,79.1 -0.7,2.1 -1.5,4.3 -2.3,6.4 -5,-2 -10.2,-1.7 -16.6,-1.4 -7.7,8.8 -25.8,19.6 -38.4,16.3 -11.5,-2.9 -18,-16.3 -18.8,-29.5 -0.3,0.2 -0.7,0.3 -1,0.5 -7.1,3.9 -11.1,10.8 -13.7,21.1 -2.5,10.2 -3.4,23.5 -4.2,38.7 -0.7,11.8 -6.2,26.4 -9.9,40.6 -3.1,11.5 -5.2,22.1 -2.6,32 -2.3,0.2 -4.7,0.4 -7.1,0.5 -21.5,1 -40.2,-5.3 -55.1,-4.1 -22,1.2 -35.8,6.5 -48.3,6.6 -2.4,0 -4.9,-0.2 -7.3,-0.5 2,-3.8 3.3,-8.3 3.8,-13.6 2.1,-20.5 -31.5,-49 -41,-68.9 l -19.6,-35.6 c -6.8,-9.2 -13.8,-14.8 -21.9,-16 -7.7,-1.2 -12.6,1.4 -17.7,6.9 -0.1,0.1 -0.3,0.3 -0.4,0.5 -0.7,-2.5 -1.4,-5 -2,-7.5 -4.1,-16.9 0.2,-35.4 6.2,-53.3 12.6,-37.9 39.2,-74.2 58.1,-96.7 16.1,-22.9 20.8,-41.3 22.5,-64.7 C 157.9,110.4 132.4,6.8 234.7,7 Z M 245.6,77.7 c -8.5,0 -17.1,5.4 -22,16.5 -3.2,7.2 -3.9,14.9 -2.9,21.8 3.6,0.9 8.9,2.4 13,4.4 -2.1,-12.2 4.5,-23.5 11.8,-23 8.9,0.3 13.9,15.5 9.1,27.3 -0.8,1.9 -2.8,3.4 -3.9,4.6 6.7,2.3 11,4.1 12.6,4.9 7.9,-9.5 10.8,-26.2 4.3,-40.4 -4.9,-10.7 -13.4,-16.1 -22,-16.1 z m -62.7,5 c -18.9,0 -24,37.5 -8.4,52.1 7.8,-5.7 6.9,-4.7 5.9,-5.5 -8,-6.9 -6.6,-27.4 1.8,-28.1 6.3,-0.5 10.8,10.7 9.6,19.6 3.1,-2.1 6.7,-3.6 10.2,-4.6 1.7,-19.3 -9,-33.5 -19.1,-33.5 z m 28.4,36 c -14.4,0 -23.2,9.8 -27.9,14.2 -0.5,0.5 -7.9,5.9 -14.1,10.5 -4.2,3.3 -5.6,7.4 -4.2,12.3 1.5,4.9 6.1,10.5 14.7,15.3 7.8,4.6 12,11.5 20,15 2.6,1.1 5.7,1.9 9.6,2.1 18.4,1.1 27.1,-11.3 38.2,-14.9 11.7,-3.7 20.1,-11 22.7,-18.1 3.2,-8.5 -2.1,-14.7 -10.5,-18.2 -11.3,-4.9 -16.3,-5.2 -22.6,-9.3 -10.3,-6.6 -18.8,-8.9 -25.9,-8.9 z m 9.3,8.1 c 1,0.1 1.9,0.3 2.8,0.7 1.3,0.6 3.4,1.5 3.2,2.9 -0.1,1.1 -1.8,1.5 -2.9,1.5 -1.2,0 -2,-1.2 -3,-1.7 -1.1,-0.6 -3.1,-0.4 -3.4,-1.7 -0.2,-0.4 0.2,-0.9 0.6,-1.1 0.8,-0.4 1.7,-0.6 2.7,-0.6 z m -18.6,0.1 c 1,-0.1 1.9,0.1 2.7,0.5 0.4,0.2 0.8,0.7 0.6,1.1 -0.4,1.2 -2.4,1 -3.5,1.6 -1,0.5 -1.8,1.7 -3,1.7 -1,0.1 -2.7,-0.4 -2.8,-1.4 -0.2,-1.4 1.9,-2.3 3.2,-2.9 0.8,-0.3 1.8,-0.6 2.8,-0.6 z m 56.2,18.5 c 2.8,0.3 0.8,3.2 -3.1,6.6 -3.9,3.4 -9.9,7.8 -14.8,10.4 -9.3,4.9 -20.2,10.8 -31.8,10.8 -11.5,0 -20.7,-5.4 -27.3,-10.6 -3.3,-2.6 -6,-5.2 -8,-7.1 -3.5,-2.8 -3.1,-6.6 -1.7,-6.5 2.4,0.3 2.8,3.5 4.3,4.9 2,1.9 4.6,4.4 7.7,6.9 6.2,4.9 14.5,9.7 24.9,9.7 10.4,0 22.5,-6 29.9,-10.2 4.2,-2.4 9.5,-6.6 13.9,-9.8 3.4,-2.5 3.2,-5.4 6,-5.1 z m 13.1,16.4 c -4.5,6.4 -12.4,11.9 -22.3,15 -4.7,1.5 -9.7,5.5 -15.9,9 -13.9,8 -30,8.8 -42.4,-1.2 -4.5,-3.6 -8,-7.6 -12.6,-10.3 -1.6,-0.9 -5.1,-3.3 -6.2,-4.1 -2,37.8 -27.3,85.3 -39.3,112.6 -8.3,19.7 -13.2,40.8 -13.8,61.5 -21.8,-29.1 -5.9,-66.3 2.6,-82.4 9.5,-17.6 11,-22.5 8.7,-20.8 -8.6,14 -22,36.3 -27.2,59.2 -2.7,11.9 -3.2,24 0.3,35.2 25.6,72.9 194.9,185.8 193.4,39.7 3.1,-12.6 9.3,-23.1 21.4,-27.3 2.3,-21.1 18.7,-21.1 38.3,-12.5 18.9,8.5 26,16 22.8,26.1 1,0 2,-0.1 4.2,0 5.2,-16.9 -14.3,-28 -30.7,-34.8 2.9,-12 2.4,-24.1 -0.4,-35.7 -6,-25.3 -22.6,-47.8 -35.2,-59 -2.3,-0.1 -2.1,1.9 2.6,6.5 11.6,10.7 37.1,49.2 23.3,84.9 -3.9,-1 -7.6,-1.5 -10.9,-1.4 -5.3,-29.1 -17.5,-53.2 -23.6,-64.6 -11.5,-21.4 -29.5,-65.3 -37.2,-95.7 z" fill="white" /></svg>
