<?xml version="1.0" encoding="UTF-8" standalone="no"?>
<svg
   height="1600"
   viewBox="0 0 1600 1600"
   width="1600"
   version="1.1"
   id="svg9"
   sodipodi:docname="question.svg"
   inkscape:version="1.1.2 (0a00cf5339, 2022-02-04)"
   xmlns:inkscape="http://www.inkscape.org/namespaces/inkscape"
   xmlns:sodipodi="http://sodipodi.sourceforge.net/DTD/sodipodi-0.dtd"
   xmlns="http://www.w3.org/2000/svg"
   xmlns:svg="http://www.w3.org/2000/svg">
  <defs
     id="defs11" />
  <sodipodi:namedview
     pagecolor="#303030"
     showgrid="true"
     id="namedview3"
     bordercolor="#ffffff"
     borderopacity="1"
     inkscape:pageshadow="0"
     inkscape:pageopacity="0"
     inkscape:pagecheckerboard="1"
     inkscape:zoom="0.545625"
     inkscape:cx="800"
     inkscape:cy="800"
     inkscape:window-width="3840"
     inkscape:window-height="2075"
     inkscape:window-x="0"
     inkscape:window-y="0"
     inkscape:window-maximized="1"
     inkscape:current-layer="svg9">
    <inkscape:grid
       id="grid5"
       units="px"
       spacingx="100"
       spacingy="100"
       color="#4772b3"
       opacity="0.2"
       visible="true" />
  </sodipodi:namedview>
  <g
     id="g1"
     transform="matrix(0.33332333,0,0,0.33332333,533.3414,533.34134)">
    <path
       id="path2"
       d="m 34,622 c -1.783333,0 -3,1.5 -3,3 h 2 c 0,-0.5 0.283333,-1 1,-1 0.716667,0 1,0.5 1,1 0,0.24702 -0.03644,0.30082 -0.117188,0.41016 -0.08074,0.10934 -0.253932,0.25966 -0.513671,0.4707 C 33.849662,626.30294 33,627.16667 33,628.5 v 0.5 h 2 v -0.5 c 0,-0.66667 0.150338,-0.67794 0.630859,-1.06836 0.240261,-0.19521 0.567072,-0.43551 0.861329,-0.83398 C 36.786444,626.19918 37,625.62798 37,625 c 0,-1.5 -1.216667,-3 -3,-3 z m -1,8.00009 h 2 v 2 H 33 Z M 34,620 c -3.86007,0 -7,3.13991 -7,7 0,3.86009 3.13993,7 7,7 3.86008,0 7,-3.13991 7,-7 0,-3.86009 -3.13992,-7 -7,-7 z m 0,1 c 3.31964,0 6,2.68035 6,6 0,3.31965 -2.68036,6 -6,6 -3.31963,0 -6,-2.68035 -6,-6 0,-3.31965 2.68037,-6 6,-6 z"
       fill="#ffffff"
       transform="matrix(100,0,0,100,-2600.0002,-61900)" />
  </g>
</svg>
