<?xml version="1.0" encoding="UTF-8" standalone="no"?>
<!-- Created with Friction - https://friction.graphics -->

<svg xmlns:xlink="http://www.w3.org/1999/xlink" viewBox="0 0 1000 1000" xmlns="http://www.w3.org/2000/svg">
 <g transform="translate(0 0)">
  <g transform="translate(205.29 314.128)">
   <g transform="rotate(0)">
    <g transform="scale(1 1)">
     <g transform="skewX(0) skewY(0)">
      <g opacity="1" transform="translate(0 0)">
       <path id="path" fill="none" stroke-width="30" stroke-linecap="round" d="M165.188 -90.5333C-85.2839 55.3208 16.8819 418.296 277.613 422.047C538.345 425.799 677.401 95.6628 442.681 7.50307C207.961 -80.6567 4.44373 525.92 552.168 460.268" stroke="rgba(128, 128, 128, 0.500008)" stroke-linejoin="round"/>
      </g>
     </g>
    </g>
   </g>
  </g>
 </g>
 <g transform="translate(0 0)">
  <g transform="translate(205.29 314.128)">
   <g transform="rotate(0)">
    <g transform="scale(1 1)">
     <g transform="skewX(0) skewY(0)">
      <g opacity="1" transform="translate(0 0)">
       <g transform="translate(0 0)">
        <g transform="translate(0 0)">
         <g>
          <animateTransform type="rotate" values="0;0;720" keyTimes="0;0;1" keySplines="0 0 1 1;0 0 1 1" attributeName="transform" dur="12s" repeatCount="indefinite" calcMode="spline"/>
          <g transform="scale(0.3 0.3)">
           <g transform="skewX(0) skewY(0)">
            <g opacity="1" transform="translate(0 0)">
             <path id="star" fill="rgba(235, 190, 0, 1)" stroke-width="0" fill-rule="evenodd" stroke-linecap="round" d="M21.6902 -295.446C21.6902 -295.446 100.577 -135.604 100.577 -135.604C100.577 -135.604 276.973 -109.972 276.973 -109.972C286.268 -108.622 293.991 -102.111 296.893 -93.1778C299.796 -84.2447 297.375 -74.4383 290.649 -67.8819C290.649 -67.8819 163.008 56.5376 163.008 56.5376C163.008 56.5376 193.14 232.221 193.14 232.221C194.727 241.478 190.922 250.835 183.323 256.356C175.724 261.877 165.649 262.605 157.335 258.234C157.335 258.234 -0.438096 175.288 -0.438096 175.288C-0.438096 175.288 -158.211 258.234 -158.211 258.234C-166.525 262.605 -176.6 261.877 -184.199 256.356C-191.798 250.835 -195.604 241.478 -194.016 232.221C-194.016 232.221 -163.884 56.5376 -163.884 56.5376C-163.884 56.5376 -291.525 -67.8819 -291.525 -67.8819C-298.251 -74.4383 -300.672 -84.2447 -297.769 -93.1779C-294.867 -102.111 -287.144 -108.622 -277.849 -109.972C-277.849 -109.972 -101.453 -135.604 -101.453 -135.604C-101.453 -135.604 -22.5664 -295.446 -22.5664 -295.446C-18.4094 -303.869 -9.83101 -309.202 -0.438096 -309.202C8.95482 -309.202 17.5332 -303.869 21.6902 -295.446C21.6902 -295.446 21.6902 -295.446 21.6902 -295.446Z" stroke="none" stroke-linejoin="round"/>
            </g>
           </g>
          </g>
         </g>
        </g>
        <animateMotion values="1;1;0.5;1" keyTimes="0;0;0.5;1" keySplines="0 0 1 1;0 0 1 1;0 0 1 1" dur="12s" repeatCount="indefinite" keyPoints="1;1;0.5;1" calcMode="spline">
         <mpath href="#path"/>
        </animateMotion>
       </g>
      </g>
     </g>
    </g>
   </g>
  </g>
 </g>
 <g transform="translate(0 0)">
  <g transform="translate(205.29 314.128)">
   <g transform="rotate(0)">
    <g transform="scale(1 1)">
     <g transform="skewX(0) skewY(0)">
      <g opacity="1" transform="translate(0 0)">
       <g transform="translate(0 0)">
        <g transform="translate(0 0)">
         <g>
          <animateTransform type="rotate" values="90;90;90;-90;-90;-270" keyTimes="0;0;0.458333;0.5;0.958333;1" keySplines="0 0 1 1;0 0.333333 1 0.666667;0 0 1 1;0 0.333333 1 0.666667;0 0 1 1" attributeName="transform" dur="12s" repeatCount="indefinite" calcMode="spline"/>
          <g transform="scale(0.35 0.35)">
           <g transform="skewX(0) skewY(0)">
            <g opacity="1" transform="translate(0 0)">
             <path id="arrow" fill="url(#0x00007fcbd295d080)" stroke-width="6" fill-rule="evenodd" stroke-linecap="round" d="M25.8813 -310.698C25.8813 -310.698 214.147 111.441 214.147 111.441C218.551 121.317 216.815 132.851 209.699 140.993C202.583 149.135 191.385 152.4 181.009 149.358C181.009 149.358 1.44278 96.7109 1.44278 96.7109C1.44278 96.7109 -178.622 155.061 -178.622 155.061C-188.705 158.328 -199.767 155.37 -206.873 147.507C-213.98 139.643 -215.807 128.339 -211.539 118.637C-211.539 118.637 -22.718 -310.575 -22.718 -310.575C-18.4839 -320.2 -8.9733 -326.423 1.54159 -326.45C12.0565 -326.476 21.5985 -320.301 25.8813 -310.698Z" stroke="none" stroke-linejoin="round"/>
            </g>
           </g>
          </g>
         </g>
        </g>
        <animateMotion values="0;0;1;1;0;0" keyTimes="0;0;0.458333;0.5;0.958333;1" keySplines="0 0 1 1;0 0 1 1;0 0.333333 1 0.666667;0 0 1 1;0 0.333333 1 0.666667" dur="12s" repeatCount="indefinite" keyPoints="0;0;1;1;0;0" rotate="auto" calcMode="spline">
         <mpath href="#path"/>
        </animateMotion>
       </g>
      </g>
     </g>
    </g>
   </g>
  </g>
 </g>
 <defs>
  <linearGradient id="0x00007fcbc4296a00">
   <stop offset="0" stop-color="rgba(26, 36, 203, 1)"/>
   <stop offset="1" stop-color="rgba(0, 172, 255, 1)"/>
  </linearGradient>
  <linearGradient id="0x00007fcba48447b0">
   <stop offset="0" stop-color="rgba(0, 0, 0, 1)"/>
   <stop offset="1" stop-color="rgba(255, 255, 255, 1)"/>
  </linearGradient>
  <linearGradient id="0x00007fcba3360770">
   <stop offset="0" stop-color="rgba(26, 36, 203, 1)"/>
   <stop offset="1" stop-color="rgba(0, 172, 255, 1)"/>
  </linearGradient>
  <linearGradient id="0x00007fcbc41b7c00">
   <stop offset="0" stop-color="rgba(0, 0, 0, 1)"/>
   <stop offset="1" stop-color="rgba(255, 255, 255, 1)"/>
  </linearGradient>
  <linearGradient id="0x00007fcba3364130">
   <stop offset="0" stop-color="rgba(0, 0, 0, 1)"/>
   <stop offset="1" stop-color="rgba(255, 255, 255, 1)"/>
  </linearGradient>
  <linearGradient id="0x00007fcbc2ff8d50">
   <stop offset="0" stop-color="rgba(0, 0, 0, 1)"/>
   <stop offset="1" stop-color="rgba(255, 255, 255, 1)"/>
  </linearGradient>
  <linearGradient id="0x00007fcbc43eabb0">
   <stop offset="0" stop-color="rgba(0, 0, 0, 1)"/>
   <stop offset="1" stop-color="rgba(255, 255, 255, 1)"/>
  </linearGradient>
  <linearGradient id="0x00007fcbd299bf70">
   <stop offset="0" stop-color="rgba(255, 238, 0, 1)"/>
   <stop offset="0.5" stop-color="rgba(231, 222, 0, 1)"/>
   <stop offset="1" stop-color="rgba(167, 160, 0, 1)"/>
  </linearGradient>
  <radialGradient gradientUnits="userSpaceOnUse" xlink:href="#0x00007fcbc4296a00" id="0x00007fcbd295d080" r="644.636" cy="-428.018" cx="-213.706"/>
 </defs>
</svg>
