<?xml version="1.0" encoding="UTF-8" standalone="no"?>
<svg
   width="425.83804"
   height="234.83107"
   viewBox="0 0 515 284"
   version="1.1"
   id="svg921"
   sodipodi:docname="ffmpeg-white.svg"
   inkscape:version="1.1.2 (0a00cf5339, 2022-02-04)"
   xmlns:inkscape="http://www.inkscape.org/namespaces/inkscape"
   xmlns:sodipodi="http://sodipodi.sourceforge.net/DTD/sodipodi-0.dtd"
   xmlns="http://www.w3.org/2000/svg"
   xmlns:svg="http://www.w3.org/2000/svg">
  <defs
     id="defs925">
    <defs
       id="defs915">
      <linearGradient
         id="grad"
         gradientUnits="userSpaceOnUse"
         x1="160"
         y1="290"
         x2="341"
         y2="290"
         gradientTransform="translate(-25,-15)">
        <stop
           offset="0"
           stop-color="rgb(86,86,86)"
           stop-opacity="0.1882353"
           id="stop910" />
        <stop
           offset="1"
           stop-color="rgb(86,86,86)"
           id="stop912" />
      </linearGradient>
    </defs>
    <radialGradient
       id="a"
       cx="-122.39"
       cy="442.72"
       gradientTransform="matrix(1.2093638,0,0,-1.2093638,239.65458,619.98062)"
       gradientUnits="userSpaceOnUse"
       r="29.58">
      <stop
         offset="0"
         stop-color="#fff"
         id="stop2142" />
      <stop
         offset="1"
         stop-color="#007808"
         id="stop2144" />
    </radialGradient>
  </defs>
  <sodipodi:namedview
     id="namedview923"
     pagecolor="#ffffff"
     bordercolor="#666666"
     borderopacity="1.0"
     inkscape:pageshadow="2"
     inkscape:pageopacity="0.0"
     inkscape:pagecheckerboard="true"
     showgrid="false"
     inkscape:zoom="2.3929285"
     inkscape:cx="212.71007"
     inkscape:cy="117.01144"
     inkscape:window-width="1920"
     inkscape:window-height="1026"
     inkscape:window-x="0"
     inkscape:window-y="0"
     inkscape:window-maximized="1"
     inkscape:current-layer="svg921" />
  <g
     id="g2198"
     transform="matrix(1.6388241,0,0,1.6388241,-91.196417,-34.418857)">
    <path
       d="m 77.673603,86.208557 v -8.811425 l 5.914998,2.037778 v 8.197068 z"
       fill="#0b4819"
       id="path2147"
       style="stroke-width:1.20936" />
    <path
       d="M 82.443334,122.43263 V 89.669756 l 5.653775,1.196061 v 30.449363 z"
       fill="#0b4819"
       id="path2149"
       style="stroke-width:1.20936" />
    <path
       d="M 110.09665,77.38262 95.56614,94.047653 v 7.091707 l 21.55086,-24.299744 34.1343,-2.64246 -50.20916,52.334004 6.68415,0.35193 36.46837,-37.300408 v 35.254168 l -4.05137,3.80828 10.27475,0.5551 v 9.75715 l -32.22954,-2.49613 16.42921,-15.9382 v -7.85482 l -23.48827,23.24639 -28.124961,-2.17444 45.112901,-48.516045 -7.42429,0.401509 -32.595981,35.689536 V 90.865817 l 3.087506,-3.645022 -7.596014,0.411183 V 79.43491 Z"
       fill="#105c80"
       id="path2151"
       style="stroke-width:1.20936" />
    <path
       d="m 82.443334,89.669756 3.270119,-3.936479 5.471162,1.487518 -3.087506,3.645022 z"
       fill="#0b4819"
       id="path2153"
       style="stroke-width:1.20936" />
    <path
       d="m 90.363457,93.071697 5.202683,0.975956 v 7.091707 l -5.202683,-0.42569 z"
       fill="#084010"
       id="path2155"
       style="stroke-width:1.20936" />
    <path
       d="m 96.187753,128.10334 4.854387,-1.57218 6.68415,0.35193 -4.41055,1.63143 z"
       fill="#0c541e"
       id="path2157"
       style="stroke-width:1.20936" />
    <path
       d="m 105.84815,75.012267 4.2485,2.370353 -14.53051,16.665033 -5.202683,-0.975956 z"
       fill="#1a5c34"
       id="path2159"
       style="stroke-width:1.20936" />
    <path
       d="M 90.363457,100.71367 113.36314,74.376142 117.117,76.839616 95.56614,101.13936 Z"
       fill="#0b4819"
       id="path2161"
       style="stroke-width:1.20936" />
    <path
       d="m 117.20045,83.872066 3.49264,1.753578 -32.595981,35.689536 -5.653775,1.11745 z"
       fill="#1a5c34"
       id="path2163"
       style="stroke-width:1.20936" />
    <path
       d="m 77.055618,135.76829 48.130262,-52.367876 2.9315,1.823721 -45.112901,48.516045 z"
       fill="#0b4819"
       id="path2165"
       style="stroke-width:1.20936" />
    <path
       d="m 132.19898,113.19309 2.41873,-0.52486 -23.48827,23.24639 -4.17714,2.38486 z"
       fill="#1a5c34"
       id="path2167"
       style="stroke-width:1.20936" />
    <path
       d="m 132.19898,121.7312 v -8.53811 l 2.41873,-0.52486 v 7.85482 z"
       fill="#0b4819"
       id="path2169"
       style="stroke-width:1.20936" />
    <path
       d="m 114.51324,138.93803 17.68574,-17.20683 2.41873,-1.20815 -16.42921,15.9382 z"
       fill="#0b4819"
       id="path2171"
       style="stroke-width:1.20936" />
    <path
       d="m 142.56444,126.46102 -4.38999,4.12514 1.96884,-1.94103 4.05137,-3.80828 z"
       fill="#13802d"
       id="path2173"
       style="stroke-width:1.20936" />
    <path
       d="m 103.31574,128.51452 39.2487,-40.44838 1.63022,1.516542 -36.46837,37.300408 z"
       fill="#0b4819"
       id="path2175"
       style="stroke-width:1.20936" />
    <path
       d="m 142.56444,88.06614 1.63022,1.516542 v 35.254168 l -1.63022,1.62417 z"
       fill="#084010"
       id="path2177"
       style="stroke-width:1.20936" />
    <path
       d="m 149.32599,131.24526 1.09205,-2.04503 v 9.75715 l -1.09205,2.92908 z"
       fill="#084010"
       id="path2179"
       style="stroke-width:1.20936" />
    <path
       d="m 150.23059,71.255983 1.02071,2.941173 -50.20916,52.334004 -4.854387,1.57218 z"
       fill="#1a5c34"
       id="path2181"
       style="stroke-width:1.20936" />
    <path
       d="m 105.84815,75.012267 -15.484693,18.05943 v 7.641973 l 22.999683,-26.337528 36.86745,-3.120159 -54.042837,56.847357 7.127987,0.41118 39.2487,-40.44838 v 38.39488 l -4.38999,4.12514 11.15154,0.6591 v 10.6412 l -34.81275,-2.94843 17.68574,-17.20683 v -8.53811 L 106.9523,138.29948 77.055618,135.76829 125.18588,83.400414 117.20045,83.872066 82.443334,122.43263 V 89.669756 l 3.270119,-3.936479 -8.03985,0.47528 v -8.811425 z"
       fill="url(#a)"
       id="path2183"
       style="fill:url(#a);stroke-width:1.20936" />
    <g
       transform="matrix(3.1637441,0,0,3.1637441,161.71108,-104.10177)"
       id="g2197"
       style="fill:#fffff9;fill-opacity:1">
      <path
         d="m 2.907,66.777 h 3.918 v 2.452 H 2.907 v 5.458 h -2.11 v 0.001 -13.184 h 7.421 v 2.461 H 2.907 Z"
         id="path2185"
         style="fill:#fffff9;fill-opacity:1" />
      <path
         d="m 11.13,66.777 h 3.919 v 2.452 H 11.13 v 5.458 H 9.021 v 0.001 -13.184 h 7.421 v 2.461 H 11.13 Z"
         id="path2187"
         style="fill:#fffff9;fill-opacity:1" />
      <path
         d="m 19.69,69.063 v 5.625 H 17.229 V 66.154 L 19.69,65.89 v 0.782 c 0.551,-0.517 1.254,-0.773 2.109,-0.773 1.113,0 1.963,0.337 2.549,1.011 0.645,-0.674 1.611,-1.011 2.9,-1.011 1.113,0 1.963,0.337 2.549,1.011 0.586,0.675 0.879,1.45 0.879,2.329 v 5.449 h -2.461 v -4.834 c 0,-0.586 -0.132,-1.04 -0.396,-1.362 -0.264,-0.321 -0.691,-0.491 -1.283,-0.51 -0.486,0.035 -0.908,0.357 -1.266,0.967 -0.029,0.183 -0.044,0.366 -0.044,0.555 v 5.186 h -2.461 v -4.834 c 0,-0.586 -0.132,-1.04 -0.396,-1.362 -0.264,-0.321 -0.689,-0.492 -1.281,-0.511 -0.539,0.034 -1.005,0.394 -1.398,1.08 z"
         id="path2189"
         style="fill:#fffff9;fill-opacity:1" />
      <path
         d="M 31.913,78.379 V 66.154 l 2.461,-0.264 v 0.703 c 0.656,-0.47 1.301,-0.703 1.934,-0.703 1.348,0 2.417,0.438 3.208,1.317 0.791,0.88 1.187,1.904 1.187,3.076 0,1.172 -0.396,2.197 -1.187,3.076 -0.791,0.879 -1.86,1.318 -3.208,1.318 -0.879,-0.06 -1.523,-0.296 -1.934,-0.712 v 4.421 z m 2.461,-8.885 v 1.425 c 0.117,0.983 0.732,1.562 1.846,1.73 1.406,-0.111 2.197,-0.841 2.373,-2.188 -0.059,-1.642 -0.85,-2.49 -2.373,-2.55 -1.114,0.176 -1.729,0.704 -1.846,1.583 z"
         id="path2191"
         style="fill:#fffff9;fill-opacity:1" />
      <path
         d="m 41.094,70.293 c 0,-1.289 0.41,-2.345 1.23,-3.164 0.82,-0.82 1.875,-1.23 3.164,-1.23 1.289,0 2.314,0.41 3.076,1.23 0.762,0.819 1.143,1.875 1.143,3.164 v 0.879 h -6.064 c 0.059,0.469 0.264,0.835 0.615,1.099 0.351,0.264 0.762,0.396 1.23,0.396 0.82,0 1.553,-0.233 2.197,-0.702 l 1.406,1.405 c -0.645,0.879 -1.846,1.318 -3.604,1.318 -1.289,0 -2.344,-0.41 -3.164,-1.23 -0.82,-0.82 -1.229,-1.875 -1.229,-3.165 z m 5.625,-1.977 c -0.352,-0.264 -0.762,-0.396 -1.23,-0.396 -0.468,0 -0.879,0.132 -1.23,0.396 -0.351,0.264 -0.527,0.63 -0.527,1.099 h 3.516 C 47.246,68.946 47.07,68.58 46.719,68.316 Z"
         id="path2193"
         style="fill:#fffff9;fill-opacity:1" />
      <path
         d="m 59.037,66.163 v 7.822 c 0,1.23 -0.366,2.259 -1.099,3.085 -0.733,0.826 -1.655,1.263 -2.769,1.311 l -0.527,0.053 c -1.699,-0.035 -3.018,-0.521 -3.955,-1.459 l 1.143,-1.318 c 0.645,0.47 1.427,0.732 2.347,0.791 0.938,0 1.572,-0.22 1.902,-0.659 0.332,-0.438 0.497,-0.923 0.497,-1.449 v -0.439 c -0.656,0.527 -1.418,0.791 -2.285,0.791 -1.348,0 -2.358,-0.396 -3.032,-1.187 -0.674,-0.791 -1.011,-1.86 -1.011,-3.208 0,-1.289 0.366,-2.345 1.099,-3.164 0.733,-0.82 1.772,-1.23 3.12,-1.23 0.996,0.06 1.699,0.325 2.109,0.8 v -0.8 z m -2.461,4.921 V 69.66 c -0.117,-0.983 -0.732,-1.562 -1.846,-1.73 -1.465,0.053 -2.256,0.782 -2.373,2.188 0.059,1.642 0.85,2.49 2.373,2.55 1.114,-0.177 1.729,-0.705 1.846,-1.584 z"
         id="path2195"
         style="fill:#fffff9;fill-opacity:1" />
    </g>
  </g>
</svg>
