<?xml version="1.0" encoding="UTF-8" standalone="no"?>
<!-- Created with Friction - https://friction2d.com -->

<svg viewBox="0 0 1920 810" xmlns="http://www.w3.org/2000/svg" xmlns:xlink="http://www.w3.org/1999/xlink">
 <rect width="1920" fill="rgba(255, 255, 255, 0)" height="810"/>
 <g transform="translate(24 23.9998)">
  <g>
   <animateTransform keySplines="0 0 1 1;0.0251256 0 0.974874 1;0 0 1 1" repeatCount="indefinite" calcMode="spline" type="translate" keyTimes="0;0.00166667;0.333333;1" attributeName="transform" values="937 0;937 0;936 0;936 0" dur="20s"/>
   <g>
    <animateTransform keySplines="0 0 1 1;0.0251256 0 0.974874 1;0 0 1 1" repeatCount="indefinite" calcMode="spline" type="translate" keyTimes="0;0.00166667;0.333333;1" attributeName="transform" values="0 9.00025;0 9.00025;0 381;0 381" dur="20s"/>
    <g transform="rotate(0)">
     <g transform="scale(50 50)">
      <g transform="skewX(0) skewY(0)">
       <g opacity="1" transform="translate(-24 -23.9998)">
        <g>
         <g transform="translate(24 23.9998)">
          <g transform="translate(0 0)">
           <g transform="rotate(0)">
            <g transform="scale(1 1)">
             <g transform="skewX(0) skewY(0)">
              <g opacity="1" transform="translate(-24 -23.9998)">
               <g>
                <g transform="translate(24 22.5)">
                 <g transform="translate(0 0)">
                  <g transform="rotate(0)">
                   <g transform="scale(1 1)">
                    <g transform="skewX(0) skewY(0)">
                     <g opacity="1" transform="translate(-24 -22.5)">
                      <rect rx="6" x="3" stroke-width="0" width="42" ry="6" y="1.5" fill="rgba(46, 52, 54, 1)" stroke="none" height="42"/>
                     </g>
                    </g>
                   </g>
                  </g>
                 </g>
                </g>
                <g transform="translate(24 22.5)">
                 <g transform="translate(0 0)">
                  <g transform="rotate(0)">
                   <g transform="scale(1 1)">
                    <g transform="skewX(0) skewY(0)">
                     <g opacity="1" transform="translate(-24 -22.5)">
                      <path stroke-width="0" d="M9 2.5938C6.2609 2.5938 4.0938 4.7609 4.0938 7.5C4.0938 7.5 4.0938 37.5 4.0938 37.5C4.0938 40.2391 6.2609 42.4062 9 42.4062C9 42.4062 39 42.4062 39 42.4062C41.7391 42.4062 43.9062 40.2391 43.9062 37.5C43.9062 37.5 43.9062 7.5 43.9062 7.5C43.9062 4.7609 41.7392 2.5938 39.0002 2.5938C39.0002 2.5938 9.0002 2.5938 9.0002 2.5938C9.0002 2.5938 9 2.5938 9 2.5938Z" fill="rgba(85, 87, 83, 1)" stroke="none"/>
                     </g>
                    </g>
                   </g>
                  </g>
                 </g>
                </g>
                <g transform="translate(9.62475 14.2188)">
                 <g transform="translate(0 0)">
                  <g transform="rotate(0)">
                   <g transform="scale(1 1)">
                    <g transform="skewX(0) skewY(0)">
                     <g opacity="1" transform="translate(-9.62475 -14.2188)">
                      <path stroke-width="0" d="M9 2.5938C8.75374 2.5938 8.5171 2.62243 8.28125 2.6563C8.28125 2.6563 4.09375 11.4688 4.09375 11.4688C4.09375 11.4688 4.09375 25.8438 4.09375 25.8438C4.09375 25.8438 15.1558 2.5938 15.1558 2.5938C15.1558 2.5938 8.99955 2.5938 8.99955 2.5938C8.99955 2.5938 9 2.5938 9 2.5938Z" fill="rgba(46, 52, 54, 1)" stroke="none"/>
                     </g>
                    </g>
                   </g>
                  </g>
                 </g>
                </g>
                <g transform="translate(38.2031 30.4373)">
                 <g transform="translate(0 0)">
                  <g transform="rotate(0)">
                   <g transform="scale(1 1)">
                    <g transform="skewX(0) skewY(0)">
                     <g opacity="1" transform="translate(-38.2031 -30.4373)">
                      <path stroke-width="0" d="M43.906 18.469C43.906 18.469 32.5 42.406 32.5 42.406C32.5 42.406 39 42.406 39 42.406C39.1286 42.406 39.2491 42.3841 39.375 42.3747C39.375 42.3747 43.9062 32.8435 43.9062 32.8435C43.9062 32.8435 43.9062 18.4685 43.9062 18.4685C43.9062 18.4685 43.906 18.469 43.906 18.469Z" fill="rgba(46, 52, 54, 1)" stroke="none"/>
                     </g>
                    </g>
                   </g>
                  </g>
                 </g>
                </g>
                <g transform="translate(20.1092 30.4377)">
                 <g transform="translate(0 0)">
                  <g transform="rotate(0)">
                   <g transform="scale(1 1)">
                    <g transform="skewX(0) skewY(0)">
                     <g opacity="1" transform="translate(-20.1092 -30.4377)">
                      <path stroke-width="0" d="M9.25 18.469C9.25 18.469 4.0938 29.313 4.0938 29.313C4.0938 29.313 4.0938 37.5005 4.0938 37.5005C4.0938 40.2396 6.2609 42.4067 9 42.4067C9 42.4067 30.812 42.4067 30.812 42.4067C30.812 42.4067 36.1245 31.2187 36.1245 31.2187C36.1245 31.2187 9.2495 18.4687 9.2495 18.4687C9.2495 18.4687 9.25 18.469 9.25 18.469Z" fill="url(#0x00005588ace3e160)" stroke="none"/>
                     </g>
                    </g>
                   </g>
                  </g>
                 </g>
                </g>
                <g transform="translate(38.9373 31.9223)">
                 <g transform="translate(0 0)">
                  <g transform="rotate(0)">
                   <g transform="scale(1 1)">
                    <g transform="skewX(0) skewY(0)">
                     <g opacity="1" transform="translate(-38.9373 -31.9223)">
                      <path stroke-width="0" d="M43.906 21.438C43.906 21.438 43.3435 22.6255 43.3435 22.6255C43.3435 22.6255 43.906 22.8755 43.906 22.8755C43.906 22.8755 43.906 21.438 43.906 21.438ZM42.406 24.6255C42.406 24.6255 41.4372 26.6255 41.4372 26.6255C41.4372 26.6255 43.906 27.7817 43.906 27.7817C43.906 27.7817 43.906 25.3442 43.906 25.3442C43.906 25.3442 42.406 24.6255 42.406 24.6255C42.406 24.6255 42.406 24.6255 42.406 24.6255ZM40.4998 28.6255C40.4998 28.6255 39.531 30.6567 39.531 30.6567C39.531 30.6567 42.781 32.1879 42.781 32.1879C42.781 32.1879 43.7498 30.1879 43.7498 30.1879C43.7498 30.1879 40.4998 28.6254 40.4998 28.6254C40.4998 28.6254 40.4998 28.6255 40.4998 28.6255ZM38.5936 32.6567C38.5936 32.6567 37.6248 34.6879 37.6248 34.6879C37.6248 34.6879 40.8748 36.2191 40.8748 36.2191C40.8748 36.2191 41.8123 34.2191 41.8123 34.2191C41.8123 34.2191 38.5935 32.6566 38.5935 32.6566C38.5935 32.6566 38.5936 32.6567 38.5936 32.6567ZM36.6874 36.6879C36.6874 36.6879 35.7186 38.6879 35.7186 38.6879C35.7186 38.6879 38.9686 40.2191 38.9686 40.2191C38.9686 40.2191 39.9061 38.2191 39.9061 38.2191C39.9061 38.2191 36.6873 36.6879 36.6873 36.6879C36.6873 36.6879 36.6874 36.6879 36.6874 36.6879ZM34.7499 40.6879C34.7499 40.6879 33.9686 42.4067 33.9686 42.4067C33.9686 42.4067 37.9374 42.4067 37.9374 42.4067C37.9374 42.4067 37.9994 42.2497 37.9994 42.2497C37.9994 42.2497 34.7494 40.6877 34.7494 40.6877C34.7494 40.6877 34.7499 40.6879 34.7499 40.6879Z" fill="rgba(238, 238, 236, 1)" stroke="none"/>
                     </g>
                    </g>
                   </g>
                  </g>
                 </g>
                </g>
                <g transform="translate(8.90642 12.7189)">
                 <g transform="translate(0 0)">
                  <g transform="rotate(0)">
                   <g transform="scale(1 1)">
                    <g transform="skewX(0) skewY(0)">
                     <g opacity="1" transform="translate(-8.90642 -12.7189)">
                      <path stroke-width="0" d="M11.594 2.5938C11.594 2.5938 13.3128 3.4063 13.3128 3.4063C13.3128 3.4063 13.719 2.5938 13.719 2.5938C13.719 2.5938 11.594 2.5938 11.594 2.5938C11.594 2.5938 11.594 2.5938 11.594 2.5938ZM9.125 3.875C9.125 3.875 8.1562 5.9062 8.1562 5.9062C8.1562 5.9062 11.4062 7.4374 11.4062 7.4374C11.4062 7.4374 12.375 5.4374 12.375 5.4374C12.375 5.4374 9.12495 3.8749 9.12495 3.8749C9.12495 3.8749 9.125 3.875 9.125 3.875ZM7.2188 7.9062C7.2188 7.9062 6.25005 9.9062 6.25005 9.9062C6.25005 9.9062 9.50005 11.4374 9.50005 11.4374C9.50005 11.4374 10.4688 9.4374 10.4688 9.4374C10.4688 9.4374 7.2188 7.9062 7.2188 7.9062ZM5.3126 11.9062C5.3126 11.9062 4.34385 13.9374 4.34385 13.9374C4.34385 13.9374 7.59385 15.4686 7.59385 15.4686C7.59385 15.4686 8.5626 13.4686 8.5626 13.4686C8.5626 13.4686 5.3126 11.9061 5.3126 11.9061C5.3126 11.9061 5.3126 11.9062 5.3126 11.9062ZM4.0938 16.2502C4.0938 16.2502 4.0938 18.719 4.0938 18.719C4.0938 18.719 5.6875 19.5 5.6875 19.5C5.6875 19.5 6.625 17.469 6.625 17.469C6.625 17.469 4.0938 16.25 4.0938 16.25C4.0938 16.25 4.0938 16.2502 4.0938 16.2502ZM4.0938 21.1877C4.0938 21.1877 4.0938 22.8439 4.0938 22.8439C4.0938 22.8439 4.7188 21.5001 4.7188 21.5001C4.7188 21.5001 4.0938 21.1876 4.0938 21.1876C4.0938 21.1876 4.0938 21.1877 4.0938 21.1877Z" fill="rgba(238, 238, 236, 1)" stroke="none"/>
                     </g>
                    </g>
                   </g>
                  </g>
                 </g>
                </g>
                <g transform="translate(26.9063 16.2343)">
                 <g transform="translate(0 0)">
                  <g transform="rotate(0)">
                   <g transform="scale(1 1)">
                    <g transform="skewX(0) skewY(0)">
                     <g opacity="1" transform="translate(-26.9063 -16.2343)">
                      <path stroke-width="0" d="M16.781 2.5938C16.781 2.5938 9.9062 17.1248 9.9062 17.1248C9.9062 17.1248 36.7502 29.8748 36.7502 29.8748C36.7502 29.8748 43.9064 14.8438 43.9064 14.8438C43.9064 14.8438 43.9064 7.5 43.9064 7.5C43.9064 6.91888 43.805 6.3581 43.6251 5.8438C43.6251 5.8438 36.7501 2.5938 36.7501 2.5938C36.7501 2.5938 16.7811 2.5938 16.7811 2.5938C16.7811 2.5938 16.781 2.5938 16.781 2.5938Z" fill="url(#0x00005588ad1e2b00)" stroke="none"/>
                     </g>
                    </g>
                   </g>
                  </g>
                 </g>
                </g>
                <g transform="translate(24 22.5)">
                 <g transform="translate(0 0)">
                  <g transform="rotate(0)">
                   <g transform="scale(1 1)">
                    <g transform="skewX(0) skewY(0)">
                     <g opacity="1" transform="translate(-24 -22.5)">
                      <path stroke-width="0" d="M9 3.2188C6.5944 3.2188 4.7188 5.0944 4.7188 7.5C4.7188 7.5 4.7188 37.5 4.7188 37.5C4.7188 39.9056 6.5944 41.7812 9 41.7812C9 41.7812 39 41.7812 39 41.7812C41.4056 41.7812 43.2812 39.9056 43.2812 37.5C43.2812 37.5 43.2812 7.5 43.2812 7.5C43.2812 5.0944 41.4062 3.2188 39.0002 3.2188C39.0002 3.2188 9.0002 3.2188 9.0002 3.2188C9.0002 3.2188 9 3.2188 9 3.2188Z" fill="none" stroke="url(#0x00005588acd9c000)"/>
                     </g>
                    </g>
                   </g>
                  </g>
                 </g>
                </g>
                <g transform="translate(23.9998 13.6249)">
                 <g transform="translate(0 0)">
                  <g transform="rotate(0)">
                   <g transform="scale(1 1)">
                    <g transform="skewX(0) skewY(0)">
                     <g opacity="1" transform="translate(-23.9998 -13.6249)">
                      <path stroke-width="0" d="M9 2.5938C6.2609 2.5938 4.0938 4.7609 4.0938 7.5C4.0938 7.5 4.0938 24.656 4.0938 24.656C16.1788 19.5229 29.7748 15.0865 43.9058 12.125C43.9058 12.125 43.9058 7.5 43.9058 7.5C43.9058 4.7609 41.7387 2.5938 38.9996 2.5938C38.9996 2.5938 8.9996 2.5938 8.9996 2.5938C8.9996 2.5938 9 2.5938 9 2.5938Z" fill="url(#0x00005588acda86e0)" stroke="none"/>
                     </g>
                    </g>
                   </g>
                  </g>
                 </g>
                </g>
               </g>
              </g>
             </g>
            </g>
           </g>
          </g>
         </g>
        </g>
       </g>
      </g>
     </g>
    </g>
   </g>
  </g>
 </g>
 <g transform="translate(5 5)">
  <g transform="translate(0 0)">
   <g transform="rotate(0)">
    <g transform="scale(1 1)">
     <g transform="skewX(0) skewY(0)">
      <g opacity="1" transform="translate(-5 -5)">
       <rect rx="0" x="0" stroke-width="1" width="1920" ry="0" y="0" stroke="rgba(0, 0, 0, 1)" height="810">
        <animate repeatCount="indefinite" calcMode="linear" keyTimes="0;0.238333;0.24;0.241667;0.243333;0.245;0.246667;0.248333;0.25;0.251667;0.253333;0.255;0.256667;0.258333;0.26;0.261667;0.263333;0.265;0.266667;0.268333;0.27;0.271667;0.273333;0.275;0.276667;0.278333;0.28;0.281667;0.283333;0.285;0.286667;0.288333;0.29;0.291667;0.293333;0.295;0.296667;0.298333;0.3;0.301667;0.303333;0.305;0.306667;0.308333;0.31;0.311667;0.313333;0.315;0.316667;0.318333;0.32;0.321667;0.323333;0.325;0.326667;0.328333;0.33;0.331667;0.333333;0.335;0.336667;0.338333;0.34;0.341667;0.343333;0.345;0.346667;0.348333;0.35;0.351667;0.353333;0.355;0.356667;0.358333;0.36;0.361667;0.363333;0.365;0.366667;0.368333;0.37;0.371667;0.373333;0.375;0.376667;0.378333;0.38;0.381667;0.383333;0.385;0.386667;0.388333;0.39;0.391667;0.393333;0.395;0.396667;0.398333;0.4;0.401667;0.403333;0.405;0.406667;0.408333;0.41;0.411667;0.413333;0.415;0.416667;0.418333;0.42;0.421667;0.423333;0.425;0.426667;0.428333;0.43;0.431667;0.433333;0.435;0.436667;0.438333;0.44;0.441667;0.443333;0.445;0.446667;0.448333;0.45;0.451667;0.453333;0.455;0.456667;0.458333;0.46;0.461667;0.463333;0.465;0.466667;0.468333;0.47;0.471667;0.473333;0.475;0.476667;0.478333;0.48;0.481667;0.483333;0.485;0.486667;0.488333;0.49;0.491667;0.493333;0.495;0.496667;0.498333;0.5;0.666667;0.668333;0.67;0.671667;0.673333;0.675;0.676667;0.678333;0.68;0.681667;0.683333;0.685;0.686667;0.688333;0.69;0.691667;0.693333;0.695;0.696667;0.698333;0.7;0.701667;0.703333;0.705;0.706667;0.708333;1" attributeName="fill" values="rgba(0, 0, 0, 0.767605);rgba(0, 0, 0, 0.767605);rgba(0, 0, 0, 0.758465);rgba(0, 0, 0, 0.749325);rgba(0, 0, 0, 0.740169);rgba(0, 0, 0, 0.731029);rgba(0, 0, 0, 0.721889);rgba(0, 0, 0, 0.712749);rgba(0, 0, 0, 0.703609);rgba(0, 0, 0, 0.694453);rgba(0, 0, 0, 0.685313);rgba(0, 0, 0, 0.676173);rgba(0, 0, 0, 0.667033);rgba(0, 0, 0, 0.657893);rgba(0, 0, 0, 0.648737);rgba(0, 0, 0, 0.639597);rgba(0, 0, 0, 0.630457);rgba(0, 0, 0, 0.621317);rgba(0, 0, 0, 0.612161);rgba(0, 0, 0, 0.603021);rgba(0, 0, 0, 0.593881);rgba(0, 0, 0, 0.584741);rgba(0, 0, 0, 0.575601);rgba(0, 0, 0, 0.566445);rgba(0, 0, 0, 0.557305);rgba(0, 0, 0, 0.548165);rgba(0, 0, 0, 0.539025);rgba(0, 0, 0, 0.529885);rgba(0, 0, 0, 0.520729);rgba(0, 0, 0, 0.511589);rgba(0, 0, 0, 0.502449);rgba(0, 0, 0, 0.493309);rgba(0, 0, 0, 0.484169);rgba(0, 0, 0, 0.475013);rgba(0, 0, 0, 0.465873);rgba(0, 0, 0, 0.456733);rgba(0, 0, 0, 0.447593);rgba(0, 0, 0, 0.438437);rgba(0, 0, 0, 0.429297);rgba(0, 0, 0, 0.420157);rgba(0, 0, 0, 0.411017);rgba(0, 0, 0, 0.401877);rgba(0, 0, 0, 0.392721);rgba(0, 0, 0, 0.383581);rgba(0, 0, 0, 0.374441);rgba(0, 0, 0, 0.365301);rgba(0, 0, 0, 0.356161);rgba(0, 0, 0, 0.347005);rgba(0, 0, 0, 0.337865);rgba(0, 0, 0, 0.328725);rgba(0, 0, 0, 0.319585);rgba(0, 0, 0, 0.31043);rgba(0, 0, 0, 0.301289);rgba(0, 0, 0, 0.292149);rgba(0, 0, 0, 0.283009);rgba(0, 0, 0, 0.273869);rgba(0, 0, 0, 0.264714);rgba(0, 0, 0, 0.255573);rgba(0, 0, 0, 0.246433);rgba(0, 0, 0, 0.237293);rgba(0, 0, 0, 0.228153);rgba(0, 0, 0, 0.218997);rgba(0, 0, 0, 0.209857);rgba(0, 0, 0, 0.200717);rgba(0, 0, 0, 0.191577);rgba(0, 0, 0, 0.182437);rgba(0, 0, 0, 0.173281);rgba(0, 0, 0, 0.164141);rgba(0, 0, 0, 0.155001);rgba(0, 0, 0, 0.153277);rgba(0, 0, 0, 0.151553);rgba(0, 0, 0, 0.149828);rgba(0, 0, 0, 0.148104);rgba(0, 0, 0, 0.146395);rgba(0, 0, 0, 0.144671);rgba(0, 0, 0, 0.142947);rgba(0, 0, 0, 0.141222);rgba(0, 0, 0, 0.139498);rgba(0, 0, 0, 0.137774);rgba(0, 0, 0, 0.136049);rgba(0, 0, 0, 0.13434);rgba(0, 0, 0, 0.132616);rgba(0, 0, 0, 0.130892);rgba(0, 0, 0, 0.129168);rgba(0, 0, 0, 0.127443);rgba(0, 0, 0, 0.125719);rgba(0, 0, 0, 0.123995);rgba(0, 0, 0, 0.122271);rgba(0, 0, 0, 0.120562);rgba(0, 0, 0, 0.118837);rgba(0, 0, 0, 0.117113);rgba(0, 0, 0, 0.115389);rgba(0, 0, 0, 0.113664);rgba(0, 0, 0, 0.11194);rgba(0, 0, 0, 0.110216);rgba(0, 0, 0, 0.108507);rgba(0, 0, 0, 0.106783);rgba(0, 0, 0, 0.105058);rgba(0, 0, 0, 0.103334);rgba(0, 0, 0, 0.10161);rgba(0, 0, 0, 0.0998856);rgba(0, 0, 0, 0.0981613);rgba(0, 0, 0, 0.096437);rgba(0, 0, 0, 0.094728);rgba(0, 0, 0, 0.0930037);rgba(0, 0, 0, 0.0912795);rgba(0, 0, 0, 0.0895552);rgba(0, 0, 0, 0.0878309);rgba(0, 0, 0, 0.0861067);rgba(0, 0, 0, 0.0843824);rgba(0, 0, 0, 0.0826734);rgba(0, 0, 0, 0.0809491);rgba(0, 0, 0, 0.0792248);rgba(0, 0, 0, 0.0775006);rgba(0, 0, 0, 0.0757763);rgba(0, 0, 0, 0.074052);rgba(0, 0, 0, 0.0723278);rgba(0, 0, 0, 0.0706035);rgba(0, 0, 0, 0.0688945);rgba(0, 0, 0, 0.0671702);rgba(0, 0, 0, 0.0654459);rgba(0, 0, 0, 0.0637217);rgba(0, 0, 0, 0.0619974);rgba(0, 0, 0, 0.0602731);rgba(0, 0, 0, 0.0585489);rgba(0, 0, 0, 0.0568399);rgba(0, 0, 0, 0.0551156);rgba(0, 0, 0, 0.0533913);rgba(0, 0, 0, 0.051667);rgba(0, 0, 0, 0.0499428);rgba(0, 0, 0, 0.0482185);rgba(0, 0, 0, 0.0464942);rgba(0, 0, 0, 0.0447852);rgba(0, 0, 0, 0.043061);rgba(0, 0, 0, 0.0413367);rgba(0, 0, 0, 0.0396124);rgba(0, 0, 0, 0.0378882);rgba(0, 0, 0, 0.0361639);rgba(0, 0, 0, 0.0344396);rgba(0, 0, 0, 0.0327153);rgba(0, 0, 0, 0.0310063);rgba(0, 0, 0, 0.0292821);rgba(0, 0, 0, 0.0275578);rgba(0, 0, 0, 0.0258335);rgba(0, 0, 0, 0.0241093);rgba(0, 0, 0, 0.022385);rgba(0, 0, 0, 0.0206607);rgba(0, 0, 0, 0.0189517);rgba(0, 0, 0, 0.0172274);rgba(0, 0, 0, 0.0155032);rgba(0, 0, 0, 0.0137789);rgba(0, 0, 0, 0.0120546);rgba(0, 0, 0, 0.0103304);rgba(0, 0, 0, 0.00860609);rgba(0, 0, 0, 0.00688182);rgba(0, 0, 0, 0.00517281);rgba(0, 0, 0, 0.00344854);rgba(0, 0, 0, 0.00172427);rgba(0, 0, 0, 0);rgba(0, 0, 0, 0);rgba(0, 0, 0, 0.0400092);rgba(0, 0, 0, 0.0800031);rgba(0, 0, 0, 0.119997);rgba(0, 0, 0, 0.160006);rgba(0, 0, 0, 0.2);rgba(0, 0, 0, 0.240009);rgba(0, 0, 0, 0.280003);rgba(0, 0, 0, 0.319997);rgba(0, 0, 0, 0.359991);rgba(0, 0, 0, 0.4);rgba(0, 0, 0, 0.440009);rgba(0, 0, 0, 0.480003);rgba(0, 0, 0, 0.519997);rgba(0, 0, 0, 0.559991);rgba(0, 0, 0, 0.6);rgba(0, 0, 0, 0.640009);rgba(0, 0, 0, 0.680003);rgba(0, 0, 0, 0.719997);rgba(0, 0, 0, 0.759991);rgba(0, 0, 0, 0.8);rgba(0, 0, 0, 0.839994);rgba(0, 0, 0, 0.880003);rgba(0, 0, 0, 0.919997);rgba(0, 0, 0, 0.959991);rgba(0, 0, 0, 1);rgba(0, 0, 0, 1)" dur="20s"/>
       </rect>
      </g>
     </g>
    </g>
   </g>
  </g>
 </g>
 <g transform="translate(0 0)">
  <g>
   <animateTransform keySplines="0 0 1 1;0 0 1 1;0 0 1 1" repeatCount="indefinite" calcMode="spline" type="translate" keyTimes="0;0.3;0.35;1" attributeName="transform" values="1533.54 0;1533.54 0;1223.14 0;1223.14 0" dur="20s"/>
   <g>
    <animateTransform keySplines="0 0 1 1;0 0 1 1;0 0 1 1" repeatCount="indefinite" calcMode="spline" type="translate" keyTimes="0;0.3;0.35;1" attributeName="transform" values="0 -168.605;0 -168.605;0 492.695;0 492.695" dur="20s"/>
    <g transform="rotate(25)">
     <g transform="scale(1 1)">
      <g transform="skewX(0) skewY(0)">
       <g opacity="1" transform="translate(0 0)">
        <path stroke-width="1" d="M176.367 -22.7539C176.367 -22.7539 176.367 0 176.367 0C176.367 0 0.78125 0 0.78125 0C0.78125 0 0.78125 -45.9961 0.78125 -45.9961C0.78125 -60.8399 2.73436 -72.7213 6.64062 -81.6406C10.612 -90.5599 16.1458 -97.1679 23.2422 -101.465C30.4037 -105.762 38.5416 -108.691 47.6562 -110.254C56.7709 -111.816 69.5637 -113.346 86.0352 -114.844C104.199 -116.797 115.788 -118.164 120.801 -118.945C125.879 -119.792 130.794 -121.777 135.547 -124.902C140.299 -128.027 143.75 -132.943 145.898 -139.648C148.112 -146.354 149.219 -156.217 149.219 -169.238C149.219 -185.775 147.624 -197.754 144.434 -205.176C141.243 -212.663 135.677 -217.546 127.734 -219.824C119.857 -222.103 107.552 -223.242 90.8203 -223.242C73.5025 -223.242 60.4167 -222.298 51.5625 -220.41C43.8802 -218.913 38.2162 -215.755 34.5703 -210.938C30.9896 -206.185 28.776 -200.814 27.9297 -194.824C27.1484 -188.835 26.7578 -181.087 26.7578 -171.582C26.7578 -171.582 26.7578 -161.23 26.7578 -161.23C26.7578 -161.23 0.78125 -161.23 0.78125 -161.23C0.78125 -174.902 1.20442 -186.035 2.05078 -194.629C2.89714 -203.223 4.91535 -210.97 8.10547 -217.871C11.3607 -224.837 16.6341 -230.599 23.9258 -235.156C31.2826 -239.779 41.0481 -242.871 53.2227 -244.434C67.0248 -245.736 79.5572 -246.387 90.8203 -246.387C112.565 -246.387 129.46 -244.499 141.504 -240.723C153.548 -237.012 162.435 -229.622 168.164 -218.555C173.893 -207.552 176.758 -191.113 176.758 -169.238C176.758 -155.046 175.781 -143.229 173.828 -133.789C171.875 -124.349 167.122 -116.276 159.57 -109.57C150.195 -101.628 136.621 -96.6797 118.848 -94.7266C101.074 -92.7734 85.5144 -91.2435 72.168 -90.1367C58.8215 -89.095 47.9167 -85.3516 39.4531 -78.9062C30.9895 -72.526 26.7578 -60.6121 26.7578 -43.1641C26.7578 -39.2578 27.3112 -32.4545 28.418 -22.7539C28.418 -22.7539 176.367 -22.7539 176.367 -22.7539ZM192.773 0C192.773 0 192.773 -245.215 192.773 -245.215C192.773 -245.215 305.957 -245.215 305.957 -245.215C323.926 -245.215 338.737 -243.001 350.391 -238.574C362.109 -234.212 371.191 -227.702 377.637 -219.043C384.147 -210.384 388.704 -199.707 391.309 -187.012C393.913 -174.381 395.215 -158.854 395.215 -140.43C395.215 -140.43 395.215 -117.188 395.215 -117.188C395.215 -92.5129 393.457 -71.9727 389.941 -55.5664C386.426 -39.1601 378.646 -25.7813 366.602 -15.4297C354.557 -5.14318 336.621 0 312.793 0C312.793 0 192.773 0 192.773 0ZM219.531 -24.0234C219.531 -24.0234 299.609 -24.0234 299.609 -24.0234C312.63 -24.0234 323.6 -24.9023 332.52 -26.6602C341.439 -28.418 348.6 -32.5846 354.004 -39.1602C363.314 -51.4649 367.969 -74.2837 367.969 -107.617C367.969 -107.617 367.969 -119.238 367.969 -119.238C367.969 -145.345 367.025 -164.518 365.137 -176.758C362.988 -194.336 357.064 -205.99 347.363 -211.719C337.663 -217.513 323.6 -220.41 305.176 -220.41C305.176 -220.41 219.531 -220.41 219.531 -220.41C219.531 -220.41 219.531 -24.0234 219.531 -24.0234Z" stroke="none">
         <animate repeatCount="indefinite" calcMode="linear" keyTimes="0;0.666667;0.668333;0.67;0.671667;0.673333;0.675;0.676667;0.678333;0.68;0.681667;0.683333;0.685;0.686667;0.688333;0.69;0.691667;0.693333;0.695;0.696667;0.698333;0.7;0.701667;0.703333;0.705;0.706667;0.708333;1" attributeName="fill" values="rgba(255, 255, 255, 1);rgba(255, 255, 255, 1);rgba(255, 255, 255, 0.959991);rgba(255, 255, 255, 0.919997);rgba(255, 255, 255, 0.880003);rgba(255, 255, 255, 0.839994);rgba(255, 255, 255, 0.8);rgba(255, 255, 255, 0.759991);rgba(255, 255, 255, 0.719997);rgba(255, 255, 255, 0.680003);rgba(255, 255, 255, 0.640009);rgba(255, 255, 255, 0.6);rgba(255, 255, 255, 0.559991);rgba(255, 255, 255, 0.519997);rgba(255, 255, 255, 0.480003);rgba(255, 255, 255, 0.440009);rgba(255, 255, 255, 0.4);rgba(255, 255, 255, 0.359991);rgba(255, 255, 255, 0.319997);rgba(255, 255, 255, 0.280003);rgba(255, 255, 255, 0.240009);rgba(255, 255, 255, 0.2);rgba(255, 255, 255, 0.160006);rgba(255, 255, 255, 0.119997);rgba(255, 255, 255, 0.0800031);rgba(255, 255, 255, 0.0400092);rgba(255, 255, 255, 0);rgba(255, 255, 255, 0)" dur="20s"/>
        </path>
       </g>
      </g>
     </g>
    </g>
   </g>
  </g>
 </g>
 <g transform="translate(56.5756 131.363)">
  <g>
   <animateTransform keySplines="0 0 1 1;0 0 1 1;0 0 1 1" repeatCount="indefinite" calcMode="spline" type="translate" keyTimes="0;0.333333;0.35;1" attributeName="transform" values="854.324 273.637;854.324 273.637;347.424 273.637;347.424 273.637" dur="20s"/>
   <g transform="rotate(0)">
    <g transform="scale(8 8)">
     <g transform="skewX(0) skewY(0)">
      <g transform="translate(-56.5756 -131.363)">
       <g>
        <g transform="translate(30.1617 131.273)">
         <g transform="translate(0 0)">
          <g transform="rotate(0)">
           <g transform="scale(1 1)">
            <g transform="skewX(0) skewY(0)">
             <g opacity="1" transform="translate(-30.1617 -131.273)">
              <path stroke-width="0.264583" d="M27.1728 125.063C27.1728 125.063 27.1728 130.445 27.1728 130.445C27.1728 130.445 34.6948 130.445 34.6948 130.445C34.6948 130.445 34.6948 131.921 34.6948 131.921C34.6948 131.921 27.1728 131.921 27.1728 131.921C27.1728 131.921 27.1728 139.059 27.1728 139.059C27.1728 139.059 25.3992 139.059 25.3992 139.059C25.3992 139.059 25.3992 123.488 25.3992 123.488C25.3992 123.488 34.9242 123.488 34.9242 123.488C34.9242 123.488 34.9242 125.063 34.9242 125.063C34.9242 125.063 27.1728 125.063 27.1728 125.063Z" fill="rgba(255, 255, 255, 1)" stroke="none"/>
             </g>
            </g>
           </g>
          </g>
         </g>
        </g>
        <g transform="translate(39.4666 133.484)">
         <g transform="translate(0 0)">
          <g transform="rotate(0)">
           <g transform="scale(1 1)">
            <g transform="skewX(0) skewY(0)">
             <g opacity="1" transform="translate(-39.4666 -133.484)">
              <path stroke-width="0.264583" d="M35.6312 128.163C35.6312 128.163 37.2063 128.163 37.2063 128.163C37.2063 128.163 37.1814 129.41 37.1814 129.41C37.8016 128.409 38.7917 127.909 40.1518 127.909C42.252 127.909 43.302 129.195 43.302 131.766C43.302 131.766 41.7269 131.766 41.7269 131.766C41.7269 130.927 41.6008 130.298 41.3486 129.881C41.0965 129.463 40.5797 129.255 39.7984 129.255C38.1034 129.255 37.2559 130.102 37.2559 131.797C37.2559 131.797 37.2559 139.059 37.2559 139.059C37.2559 139.059 35.6312 139.059 35.6312 139.059C35.6312 139.059 35.6312 128.163 35.6312 128.163Z" fill="rgba(255, 255, 255, 1)" stroke="none"/>
             </g>
            </g>
           </g>
          </g>
         </g>
        </g>
        <g transform="translate(44.8647 131.273)">
         <g transform="translate(0 0)">
          <g transform="rotate(0)">
           <g transform="scale(1 1)">
            <g transform="skewX(0) skewY(0)">
             <g opacity="1" transform="translate(-44.8647 -131.273)">
              <path stroke-width="0.264583" d="M45.6895 123.488C45.6895 123.488 45.6895 125.292 45.6895 125.292C45.6895 125.292 44.04 125.292 44.04 125.292C44.04 125.292 44.04 123.488 44.04 123.488C44.04 123.488 45.6895 123.488 45.6895 123.488ZM45.6895 139.059C45.6895 139.059 44.04 139.059 44.04 139.059C44.04 139.059 44.04 128.163 44.04 128.163C44.04 128.163 45.6895 128.163 45.6895 128.163C45.6895 128.163 45.6895 139.059 45.6895 139.059Z" fill="rgba(255, 255, 255, 1)" stroke="none"/>
             </g>
            </g>
           </g>
          </g>
         </g>
        </g>
        <g transform="translate(51.3294 133.583)">
         <g transform="translate(0 0)">
          <g transform="rotate(0)">
           <g transform="scale(1 1)">
            <g transform="skewX(0) skewY(0)">
             <g opacity="1" transform="translate(-51.3294 -133.583)">
              <path stroke-width="0.264583" d="M54.4021 135.071C54.4021 135.071 56.0268 135.071 56.0268 135.071C56.0268 136.188 55.8739 137.037 55.5679 137.62C55.2661 138.199 54.7907 138.596 54.1417 138.811C53.4926 139.026 52.5893 139.133 51.4317 139.133C50.299 139.133 49.4081 139.021 48.759 138.798C48.11 138.571 47.6325 138.224 47.3266 137.756C47.0248 137.285 46.8325 136.717 46.7499 136.051C46.6713 135.385 46.632 134.449 46.632 133.242C46.632 131.96 46.7664 130.95 47.0351 130.21C47.3038 129.465 47.7855 128.918 48.48 128.566C49.1787 128.211 50.1626 128.033 51.4317 128.033C52.8291 128.033 53.906 128.258 54.6626 128.709C55.4232 129.155 55.8036 130.04 55.8036 131.363C55.8036 131.363 55.8036 131.716 55.8036 131.716C55.8036 131.716 54.2285 131.716 54.2285 131.716C54.2285 131.059 54.1417 130.563 53.968 130.228C53.7985 129.893 53.5277 129.664 53.1557 129.54C52.7877 129.416 52.273 129.354 51.6116 129.354C50.6235 129.354 49.9042 129.449 49.4536 129.639C49.003 129.829 48.7032 130.176 48.5544 130.681C48.4056 131.181 48.3312 131.975 48.3312 133.062C48.3312 133.062 48.3312 134.154 48.3312 134.154C48.3312 135.117 48.3849 135.842 48.4924 136.33C48.604 136.818 48.8727 137.192 49.2985 137.453C49.7244 137.709 50.3941 137.837 51.3077 137.837C52.18 137.837 52.8229 137.781 53.2363 137.67C53.6497 137.554 53.9474 137.302 54.1293 136.913C54.3112 136.52 54.4021 135.906 54.4021 135.071C54.4021 135.071 54.4021 135.071 54.4021 135.071Z" fill="rgba(255, 255, 255, 1)" stroke="none"/>
             </g>
            </g>
           </g>
          </g>
         </g>
        </g>
        <g transform="translate(60.6622 132.364)">
         <g transform="translate(0 0)">
          <g transform="rotate(0)">
           <g transform="scale(1 1)">
            <g transform="skewX(0) skewY(0)">
             <g opacity="1" transform="translate(-60.6622 -132.364)">
              <path stroke-width="0.264583" d="M64.0821 128.163C64.0821 128.163 64.0821 129.484 64.0821 129.484C64.0821 129.484 59.8901 129.484 59.8901 129.484C59.8901 129.484 59.8901 136.138 59.8901 136.138C59.8901 136.795 59.9894 137.244 60.1878 137.484C60.3862 137.719 60.7955 137.837 61.4156 137.837C62.0936 137.837 62.5256 137.686 62.7117 137.384C62.8977 137.083 62.9907 136.591 62.9907 135.908C62.9907 135.908 62.9907 135.226 62.9907 135.226C62.9907 135.226 64.51 135.226 64.51 135.226C64.51 136.549 64.3095 137.539 63.9085 138.197C63.5116 138.854 62.6807 139.183 61.4156 139.183C60.6095 139.183 59.977 139.09 59.5181 138.904C59.0633 138.718 58.7367 138.405 58.5383 137.967C58.3398 137.529 58.2406 136.919 58.2406 136.138C58.2406 136.138 58.2406 129.484 58.2406 129.484C58.2406 129.484 56.8144 129.484 56.8144 129.484C56.8144 129.484 56.8144 128.163 56.8144 128.163C56.8144 128.163 58.2406 128.163 58.2406 128.163C58.2406 128.163 58.2406 125.546 58.2406 125.546C58.2406 125.546 59.8901 125.546 59.8901 125.546C59.8901 125.546 59.8901 128.163 59.8901 128.163C59.8901 128.163 64.0821 128.163 64.0821 128.163Z" fill="rgba(255, 255, 255, 1)" stroke="none"/>
             </g>
            </g>
           </g>
          </g>
         </g>
        </g>
        <g transform="translate(66.327 131.273)">
         <g transform="translate(0 0)">
          <g transform="rotate(0)">
           <g transform="scale(1 1)">
            <g transform="skewX(0) skewY(0)">
             <g opacity="1" transform="translate(-66.327 -131.273)">
              <path stroke-width="0.264583" d="M67.1517 123.488C67.1517 123.488 67.1517 125.292 67.1517 125.292C67.1517 125.292 65.5022 125.292 65.5022 125.292C65.5022 125.292 65.5022 123.488 65.5022 123.488C65.5022 123.488 67.1517 123.488 67.1517 123.488ZM67.1517 139.059C67.1517 139.059 65.5022 139.059 65.5022 139.059C65.5022 139.059 65.5022 128.163 65.5022 128.163C65.5022 128.163 67.1517 128.163 67.1517 128.163C67.1517 128.163 67.1517 139.059 67.1517 139.059Z" fill="rgba(255, 255, 255, 1)" stroke="none"/>
             </g>
            </g>
           </g>
          </g>
         </g>
        </g>
        <g transform="translate(72.8568 133.598)">
         <g transform="translate(0 0)">
          <g transform="rotate(0)">
           <g transform="scale(1 1)">
            <g transform="skewX(0) skewY(0)">
             <g opacity="1" transform="translate(-72.8568 -133.598)">
              <path stroke-width="0.264583" d="M68.0447 133.292C68.0447 131.973 68.1584 130.937 68.3857 130.185C68.6173 129.432 69.0637 128.874 69.7252 128.51C70.3867 128.143 71.3664 127.959 72.6646 127.959C74.0619 127.959 75.114 128.111 75.821 128.417C76.532 128.719 77.0178 129.238 77.2782 129.974C77.5387 130.71 77.6689 131.783 77.6689 133.192C77.6689 134.672 77.5924 135.809 77.4395 136.603C77.2906 137.397 76.8896 138.035 76.2364 138.519C75.5874 138.999 74.558 139.238 73.1482 139.238C71.7964 139.238 70.7608 139.11 70.0415 138.854C69.3263 138.594 68.8136 138.114 68.5036 137.415C68.1976 136.717 68.0447 135.689 68.0447 134.333C68.0447 134.333 68.0447 133.292 68.0447 133.292ZM69.6942 133.292C69.6942 133.292 69.6942 134.209 69.6942 134.209C69.6942 135.884 69.9133 136.959 70.3515 137.434C70.6616 137.74 71.2466 137.893 72.1065 137.893C72.1065 137.893 72.894 137.893 72.894 137.893C73.5885 137.893 74.1404 137.837 74.5497 137.725C74.959 137.614 75.2773 137.391 75.5047 137.056C75.7362 136.721 75.8726 136.221 75.914 135.555C75.9347 134.976 75.945 134.145 75.945 133.062C75.945 132.008 75.8995 131.237 75.8086 130.749C75.7217 130.261 75.4882 129.9 75.1078 129.664C74.7316 129.424 74.1115 129.304 73.2475 129.304C73.2475 129.304 72.894 129.304 72.894 129.304C71.9184 129.304 71.2114 129.395 70.7732 129.577C70.3391 129.759 70.0497 130.094 69.905 130.582C69.7645 131.069 69.6942 131.855 69.6942 132.938C69.6942 132.938 69.6942 133.292 69.6942 133.292Z" fill="rgba(255, 255, 255, 1)" stroke="none"/>
             </g>
            </g>
           </g>
          </g>
         </g>
        </g>
        <g transform="translate(83.1693 133.484)">
         <g transform="translate(0 0)">
          <g transform="rotate(0)">
           <g transform="scale(1 1)">
            <g transform="skewX(0) skewY(0)">
             <g opacity="1" transform="translate(-83.1693 -133.484)">
              <path stroke-width="0.264583" d="M78.5867 128.163C78.5867 128.163 80.0564 128.163 80.0564 128.163C80.0564 128.163 80.0564 129.583 80.0564 129.583C80.4698 128.947 80.9845 128.508 81.6004 128.269C82.2164 128.029 82.9461 127.909 83.7895 127.909C84.7817 127.909 85.5609 128.031 86.1273 128.275C86.6978 128.519 87.1112 128.928 87.3675 129.503C87.6239 130.077 87.752 130.859 87.752 131.847C87.752 131.847 87.752 139.059 87.752 139.059C87.752 139.059 86.1025 139.059 86.1025 139.059C86.1025 139.059 86.1025 131.971 86.1025 131.971C86.1025 131.235 86.0343 130.677 85.8979 130.296C85.7614 129.916 85.5051 129.647 85.1289 129.49C84.7569 129.333 84.1926 129.255 83.436 129.255C81.2863 129.255 80.2114 130.296 80.2114 132.38C80.2114 132.38 80.2114 139.059 80.2114 139.059C80.2114 139.059 78.5867 139.059 78.5867 139.059C78.5867 139.059 78.5867 128.163 78.5867 128.163Z" fill="rgba(255, 255, 255, 1)" stroke="none"/>
             </g>
            </g>
           </g>
          </g>
         </g>
        </g>
       </g>
       <animate keySplines="0 0 1 1;0 0 1 1;0 0.333333 1 0.666667;0 0 1 1;0 0 1 1" repeatCount="indefinite" calcMode="spline" keyTimes="0;0.331667;0.333333;0.666667;0.708333;1" attributeName="opacity" values="0;0;1;1;0;0" dur="20s"/>
      </g>
     </g>
    </g>
   </g>
  </g>
 </g>
 <g transform="translate(24 23.9998)">
  <g>
   <animateTransform keySplines="0 0 1 1;0.0472991 0 0.669172 1;0.383943 7.80566e-15 0.72315 0.306289;0.227125 0.772604 0.614596 1;0.473039 1.11022e-14 0.942446 1;0 0 1 1;0 0.333333 1 0.666667;0 0.333333 1 0.666667;0.517381 0.165801 0.955152 1;0.05 0.333333 0.955152 0.666667" repeatCount="indefinite" calcMode="spline" type="translate" keyTimes="0;0.00166667;0.157245;0.175;0.248103;0.333333;0.35;0.5;0.666667;0.833333;1" attributeName="transform" values="1152.15 0;1152.15 0;897.843 0;912.397 0;956.561 0;936 0;936 0;936 0;936 0;1152.15 0;1152.15 0" dur="20s"/>
   <g>
    <animateTransform keySplines="0 0 1 1;0.0549451 0 0.600228 0.897079;0.252489 0.528464 0.953704 1;0 0.333333 1 0.666667;0 0.333333 1 0.666667;0 0.333333 1 0.666667;0.517381 0.165801 0.955152 1;0.05 0.333333 0.955152 0.666667" repeatCount="indefinite" calcMode="spline" type="translate" keyTimes="0;0.00166667;0.153333;0.333333;0.35;0.5;0.666667;0.833333;1" attributeName="transform" values="0 -462.261;0 -462.261;0 273.58;0 381;0 381;0 381;0 381;0 -462.261;0 -462.261" dur="20s"/>
    <g>
     <animateTransform keySplines="0 0 1 1;0.027933 0 0.972067 1;0.166667 0 0.833333 1;0.0555556 0.333333 0.944444 0.666667;0.05 0.333333 0.95 0.666667;0.05 0 0.95 1;0.05 0 0.525 1;0.475 0 0.95 1" repeatCount="indefinite" calcMode="spline" type="rotate" keyTimes="0;0.00166667;0.3;0.35;0.5;0.666667;0.833333;0.916667;1" attributeName="transform" values="178.5;178.5;25;0;0;0;178.5;231.7;178.5" dur="20s"/>
     <g>
      <animateTransform keySplines="0 0 1 1;0.027933 0 0.972067 1;0.25 0 0.75 1;0 0 1 1;0.0555556 0.333333 0.944444 0.666667;0.05 0.333333 0.95 0.666667;0.05 0 0.95 1;0.05 0.333333 0.95 0.666667" repeatCount="indefinite" calcMode="spline" type="scale" keyTimes="0;0.00166667;0.3;0.333333;0.35;0.5;0.666667;0.833333;1" attributeName="transform" values="80 1;80 1;5 1;15 1;10 1;10 1;10 1;80 1;80 1" dur="20s"/>
      <g>
       <animateTransform keySplines="0 0 1 1;0.027933 0 0.972067 1;0.25 0 0.75 1;0 0 1 1;0.0555556 0.333333 0.944444 0.666667;0.05 0.333333 0.95 0.666667;0.05 0 0.95 1;0.05 0.333333 0.95 0.666667" repeatCount="indefinite" calcMode="spline" type="scale" keyTimes="0;0.00166667;0.3;0.333333;0.35;0.5;0.666667;0.833333;1" attributeName="transform" values="1 80;1 80;1 5;1 15;1 10;1 10;1 10;1 80;1 80" dur="20s"/>
       <g transform="skewX(0) skewY(0)">
        <g opacity="1" transform="translate(-24 -23.9998)">
         <g>
          <g transform="translate(24 23.9998)">
           <g transform="translate(0 0)">
            <g transform="rotate(0)">
             <g transform="scale(1 1)">
              <g transform="skewX(0) skewY(0)">
               <g opacity="1" transform="translate(-24 -23.9998)">
                <g>
                 <g transform="translate(24 22.5)">
                  <g transform="translate(0 0)">
                   <g transform="rotate(0)">
                    <g transform="scale(1 1)">
                     <g transform="skewX(0) skewY(0)">
                      <g opacity="1" transform="translate(-24 -22.5)">
                       <rect rx="6" x="3" stroke-width="0" width="42" ry="6" y="1.5" fill="rgba(46, 52, 54, 1)" stroke="none" height="42"/>
                      </g>
                     </g>
                    </g>
                   </g>
                  </g>
                 </g>
                 <g transform="translate(24 22.5)">
                  <g transform="translate(0 0)">
                   <g transform="rotate(0)">
                    <g transform="scale(1 1)">
                     <g transform="skewX(0) skewY(0)">
                      <g opacity="1" transform="translate(-24 -22.5)">
                       <path stroke-width="0" d="M9 2.5938C6.2609 2.5938 4.0938 4.7609 4.0938 7.5C4.0938 7.5 4.0938 37.5 4.0938 37.5C4.0938 40.2391 6.2609 42.4062 9 42.4062C9 42.4062 39 42.4062 39 42.4062C41.7391 42.4062 43.9062 40.2391 43.9062 37.5C43.9062 37.5 43.9062 7.5 43.9062 7.5C43.9062 4.7609 41.7392 2.5938 39.0002 2.5938C39.0002 2.5938 9.0002 2.5938 9.0002 2.5938C9.0002 2.5938 9 2.5938 9 2.5938Z" fill="rgba(85, 87, 83, 1)" stroke="none"/>
                      </g>
                     </g>
                    </g>
                   </g>
                  </g>
                 </g>
                 <g transform="translate(9.62475 14.2188)">
                  <g transform="translate(0 0)">
                   <g transform="rotate(0)">
                    <g transform="scale(1 1)">
                     <g transform="skewX(0) skewY(0)">
                      <g opacity="1" transform="translate(-9.62475 -14.2188)">
                       <path stroke-width="0" d="M9 2.5938C8.75374 2.5938 8.5171 2.62243 8.28125 2.6563C8.28125 2.6563 4.09375 11.4688 4.09375 11.4688C4.09375 11.4688 4.09375 25.8438 4.09375 25.8438C4.09375 25.8438 15.1558 2.5938 15.1558 2.5938C15.1558 2.5938 8.99955 2.5938 8.99955 2.5938C8.99955 2.5938 9 2.5938 9 2.5938Z" fill="rgba(46, 52, 54, 1)" stroke="none"/>
                      </g>
                     </g>
                    </g>
                   </g>
                  </g>
                 </g>
                 <g transform="translate(38.2031 30.4373)">
                  <g transform="translate(0 0)">
                   <g transform="rotate(0)">
                    <g transform="scale(1 1)">
                     <g transform="skewX(0) skewY(0)">
                      <g opacity="1" transform="translate(-38.2031 -30.4373)">
                       <path stroke-width="0" d="M43.906 18.469C43.906 18.469 32.5 42.406 32.5 42.406C32.5 42.406 39 42.406 39 42.406C39.1286 42.406 39.2491 42.3841 39.375 42.3747C39.375 42.3747 43.9062 32.8435 43.9062 32.8435C43.9062 32.8435 43.9062 18.4685 43.9062 18.4685C43.9062 18.4685 43.906 18.469 43.906 18.469Z" fill="rgba(46, 52, 54, 1)" stroke="none"/>
                      </g>
                     </g>
                    </g>
                   </g>
                  </g>
                 </g>
                 <g transform="translate(20.1092 30.4377)">
                  <g transform="translate(0 0)">
                   <g transform="rotate(0)">
                    <g transform="scale(1 1)">
                     <g transform="skewX(0) skewY(0)">
                      <g opacity="1" transform="translate(-20.1092 -30.4377)">
                       <path stroke-width="0" d="M9.25 18.469C9.25 18.469 4.0938 29.313 4.0938 29.313C4.0938 29.313 4.0938 37.5005 4.0938 37.5005C4.0938 40.2396 6.2609 42.4067 9 42.4067C9 42.4067 30.812 42.4067 30.812 42.4067C30.812 42.4067 36.1245 31.2187 36.1245 31.2187C36.1245 31.2187 9.2495 18.4687 9.2495 18.4687C9.2495 18.4687 9.25 18.469 9.25 18.469Z" fill="url(#0x00005588ad572580)" stroke="none"/>
                      </g>
                     </g>
                    </g>
                   </g>
                  </g>
                 </g>
                 <g transform="translate(38.9373 31.9223)">
                  <g transform="translate(0 0)">
                   <g transform="rotate(0)">
                    <g transform="scale(1 1)">
                     <g transform="skewX(0) skewY(0)">
                      <g opacity="1" transform="translate(-38.9373 -31.9223)">
                       <path stroke-width="0" d="M43.906 21.438C43.906 21.438 43.3435 22.6255 43.3435 22.6255C43.3435 22.6255 43.906 22.8755 43.906 22.8755C43.906 22.8755 43.906 21.438 43.906 21.438ZM42.406 24.6255C42.406 24.6255 41.4372 26.6255 41.4372 26.6255C41.4372 26.6255 43.906 27.7817 43.906 27.7817C43.906 27.7817 43.906 25.3442 43.906 25.3442C43.906 25.3442 42.406 24.6255 42.406 24.6255C42.406 24.6255 42.406 24.6255 42.406 24.6255ZM40.4998 28.6255C40.4998 28.6255 39.531 30.6567 39.531 30.6567C39.531 30.6567 42.781 32.1879 42.781 32.1879C42.781 32.1879 43.7498 30.1879 43.7498 30.1879C43.7498 30.1879 40.4998 28.6254 40.4998 28.6254C40.4998 28.6254 40.4998 28.6255 40.4998 28.6255ZM38.5936 32.6567C38.5936 32.6567 37.6248 34.6879 37.6248 34.6879C37.6248 34.6879 40.8748 36.2191 40.8748 36.2191C40.8748 36.2191 41.8123 34.2191 41.8123 34.2191C41.8123 34.2191 38.5935 32.6566 38.5935 32.6566C38.5935 32.6566 38.5936 32.6567 38.5936 32.6567ZM36.6874 36.6879C36.6874 36.6879 35.7186 38.6879 35.7186 38.6879C35.7186 38.6879 38.9686 40.2191 38.9686 40.2191C38.9686 40.2191 39.9061 38.2191 39.9061 38.2191C39.9061 38.2191 36.6873 36.6879 36.6873 36.6879C36.6873 36.6879 36.6874 36.6879 36.6874 36.6879ZM34.7499 40.6879C34.7499 40.6879 33.9686 42.4067 33.9686 42.4067C33.9686 42.4067 37.9374 42.4067 37.9374 42.4067C37.9374 42.4067 37.9994 42.2497 37.9994 42.2497C37.9994 42.2497 34.7494 40.6877 34.7494 40.6877C34.7494 40.6877 34.7499 40.6879 34.7499 40.6879Z" fill="rgba(238, 238, 236, 1)" stroke="none"/>
                      </g>
                     </g>
                    </g>
                   </g>
                  </g>
                 </g>
                 <g transform="translate(8.90642 12.7189)">
                  <g transform="translate(0 0)">
                   <g transform="rotate(0)">
                    <g transform="scale(1 1)">
                     <g transform="skewX(0) skewY(0)">
                      <g opacity="1" transform="translate(-8.90642 -12.7189)">
                       <path stroke-width="0" d="M11.594 2.5938C11.594 2.5938 13.3128 3.4063 13.3128 3.4063C13.3128 3.4063 13.719 2.5938 13.719 2.5938C13.719 2.5938 11.594 2.5938 11.594 2.5938C11.594 2.5938 11.594 2.5938 11.594 2.5938ZM9.125 3.875C9.125 3.875 8.1562 5.9062 8.1562 5.9062C8.1562 5.9062 11.4062 7.4374 11.4062 7.4374C11.4062 7.4374 12.375 5.4374 12.375 5.4374C12.375 5.4374 9.12495 3.8749 9.12495 3.8749C9.12495 3.8749 9.125 3.875 9.125 3.875ZM7.2188 7.9062C7.2188 7.9062 6.25005 9.9062 6.25005 9.9062C6.25005 9.9062 9.50005 11.4374 9.50005 11.4374C9.50005 11.4374 10.4688 9.4374 10.4688 9.4374C10.4688 9.4374 7.2188 7.9062 7.2188 7.9062ZM5.3126 11.9062C5.3126 11.9062 4.34385 13.9374 4.34385 13.9374C4.34385 13.9374 7.59385 15.4686 7.59385 15.4686C7.59385 15.4686 8.5626 13.4686 8.5626 13.4686C8.5626 13.4686 5.3126 11.9061 5.3126 11.9061C5.3126 11.9061 5.3126 11.9062 5.3126 11.9062ZM4.0938 16.2502C4.0938 16.2502 4.0938 18.719 4.0938 18.719C4.0938 18.719 5.6875 19.5 5.6875 19.5C5.6875 19.5 6.625 17.469 6.625 17.469C6.625 17.469 4.0938 16.25 4.0938 16.25C4.0938 16.25 4.0938 16.2502 4.0938 16.2502ZM4.0938 21.1877C4.0938 21.1877 4.0938 22.8439 4.0938 22.8439C4.0938 22.8439 4.7188 21.5001 4.7188 21.5001C4.7188 21.5001 4.0938 21.1876 4.0938 21.1876C4.0938 21.1876 4.0938 21.1877 4.0938 21.1877Z" fill="rgba(238, 238, 236, 1)" stroke="none"/>
                      </g>
                     </g>
                    </g>
                   </g>
                  </g>
                 </g>
                 <g transform="translate(26.9063 16.2343)">
                  <g transform="translate(0 0)">
                   <g transform="rotate(0)">
                    <g transform="scale(1 1)">
                     <g transform="skewX(0) skewY(0)">
                      <g opacity="1" transform="translate(-26.9063 -16.2343)">
                       <path stroke-width="0" d="M16.781 2.5938C16.781 2.5938 9.9062 17.1248 9.9062 17.1248C9.9062 17.1248 36.7502 29.8748 36.7502 29.8748C36.7502 29.8748 43.9064 14.8438 43.9064 14.8438C43.9064 14.8438 43.9064 7.5 43.9064 7.5C43.9064 6.91888 43.805 6.3581 43.6251 5.8438C43.6251 5.8438 36.7501 2.5938 36.7501 2.5938C36.7501 2.5938 16.7811 2.5938 16.7811 2.5938C16.7811 2.5938 16.781 2.5938 16.781 2.5938Z" fill="url(#0x00005588ad5d2f20)" stroke="none"/>
                      </g>
                     </g>
                    </g>
                   </g>
                  </g>
                 </g>
                 <g transform="translate(24 22.5)">
                  <g transform="translate(0 0)">
                   <g transform="rotate(0)">
                    <g transform="scale(1 1)">
                     <g transform="skewX(0) skewY(0)">
                      <g opacity="1" transform="translate(-24 -22.5)">
                       <path stroke-width="0" d="M9 3.2188C6.5944 3.2188 4.7188 5.0944 4.7188 7.5C4.7188 7.5 4.7188 37.5 4.7188 37.5C4.7188 39.9056 6.5944 41.7812 9 41.7812C9 41.7812 39 41.7812 39 41.7812C41.4056 41.7812 43.2812 39.9056 43.2812 37.5C43.2812 37.5 43.2812 7.5 43.2812 7.5C43.2812 5.0944 41.4062 3.2188 39.0002 3.2188C39.0002 3.2188 9.0002 3.2188 9.0002 3.2188C9.0002 3.2188 9 3.2188 9 3.2188Z" fill="none" stroke="url(#0x00005588ad6581a0)"/>
                      </g>
                     </g>
                    </g>
                   </g>
                  </g>
                 </g>
                 <g transform="translate(23.9998 13.6249)">
                  <g transform="translate(0 0)">
                   <g transform="rotate(0)">
                    <g transform="scale(1 1)">
                     <g transform="skewX(0) skewY(0)">
                      <g opacity="1" transform="translate(-23.9998 -13.6249)">
                       <path stroke-width="0" d="M9 2.5938C6.2609 2.5938 4.0938 4.7609 4.0938 7.5C4.0938 7.5 4.0938 24.656 4.0938 24.656C16.1788 19.5229 29.7748 15.0865 43.9058 12.125C43.9058 12.125 43.9058 7.5 43.9058 7.5C43.9058 4.7609 41.7387 2.5938 38.9996 2.5938C38.9996 2.5938 8.9996 2.5938 8.9996 2.5938C8.9996 2.5938 9 2.5938 9 2.5938Z" fill="url(#0x00005588ad65ab00)" stroke="none"/>
                      </g>
                     </g>
                    </g>
                   </g>
                  </g>
                 </g>
                </g>
               </g>
              </g>
             </g>
            </g>
           </g>
          </g>
         </g>
        </g>
       </g>
      </g>
     </g>
    </g>
   </g>
  </g>
 </g>
 <defs>
  <linearGradient id="0x00005588acd2f440">
   <stop stop-color="rgba(255, 183, 0, 1)" offset="0"/>
   <stop stop-color="rgba(255, 114, 0, 1)" offset="1"/>
  </linearGradient>
  <linearGradient id="0x00005588acd37b00">
   <stop stop-color="rgba(52, 101, 164, 1)" offset="0"/>
   <stop stop-color="rgba(32, 74, 135, 1)" offset="1"/>
  </linearGradient>
  <linearGradient id="0x00005588acd37320">
   <stop stop-color="rgba(46, 52, 54, 1)" offset="0"/>
   <stop stop-color="rgba(46, 52, 54, 0)" offset="1"/>
  </linearGradient>
  <linearGradient id="0x00005588acd36c60">
   <stop stop-color="rgba(255, 255, 255, 0.8)" offset="0"/>
   <stop stop-color="rgba(255, 255, 255, 0)" offset="1"/>
  </linearGradient>
  <linearGradient id="0x00005588ad15c6c0">
   <stop stop-color="rgba(238, 238, 236, 1)" offset="0"/>
   <stop stop-color="rgba(238, 238, 236, 0)" offset="1"/>
  </linearGradient>
  <radialGradient id="0x00005588ace3e160" r="19.3033" xlink:href="#0x00005588acd37b00" gradientUnits="userSpaceOnUse" cy="22.0171" cx="14.7591"/>
  <radialGradient id="0x00005588ad1e2b00" r="19.308" xlink:href="#0x00005588acd2f440" gradientUnits="userSpaceOnUse" cy="2.59359" cx="28.7927"/>
  <linearGradient x2="0" y1="2.7188" id="0x00005588acd9c000" x1="0" xlink:href="#0x00005588acd36c60" gradientUnits="userSpaceOnUse" y2="42.281"/>
  <linearGradient x2="15.298" y1="-59.512" id="0x00005588acda86e0" x1="4.0938" xlink:href="#0x00005588ad15c6c0" gradientUnits="userSpaceOnUse" y2="32.406"/>
  <radialGradient id="0x00005588ad572580" r="19.3033" xlink:href="#0x00005588acd37b00" gradientUnits="userSpaceOnUse" cy="22.0171" cx="14.7591"/>
  <radialGradient id="0x00005588ad5d2f20" r="19.308" xlink:href="#0x00005588acd2f440" gradientUnits="userSpaceOnUse" cy="2.59359" cx="28.7927"/>
  <linearGradient x2="0" y1="2.7188" id="0x00005588ad6581a0" x1="0" xlink:href="#0x00005588acd36c60" gradientUnits="userSpaceOnUse" y2="42.281"/>
  <linearGradient x2="15.298" y1="-59.512" id="0x00005588ad65ab00" x1="4.0938" xlink:href="#0x00005588ad15c6c0" gradientUnits="userSpaceOnUse" y2="32.406"/>
 </defs>
</svg>
