<?xml version="1.0" encoding="UTF-8" standalone="no"?>
<!-- Created with Friction - https://friction.graphics -->

<svg
   viewBox="0 0 267 80"
   version="1.1"
   id="svg117"
   width="267"
   height="80"
   sodipodi:docname="logo.svg"
   inkscape:version="1.2.2 (b0a8486541, 2022-12-01)"
   xmlns:inkscape="http://www.inkscape.org/namespaces/inkscape"
   xmlns:sodipodi="http://sodipodi.sourceforge.net/DTD/sodipodi-0.dtd"
   xmlns:xlink="http://www.w3.org/1999/xlink"
   xmlns="http://www.w3.org/2000/svg"
   xmlns:svg="http://www.w3.org/2000/svg">
  <sodipodi:namedview
     id="namedview201"
     pagecolor="#505050"
     bordercolor="#ffffff"
     borderopacity="1"
     inkscape:showpageshadow="0"
     inkscape:pageopacity="0"
     inkscape:pagecheckerboard="1"
     inkscape:deskcolor="#505050"
     showgrid="false"
     inkscape:zoom="4.7230463"
     inkscape:cx="131.90639"
     inkscape:cy="39.063771"
     inkscape:window-width="1920"
     inkscape:window-height="962"
     inkscape:window-x="0"
     inkscape:window-y="29"
     inkscape:window-maximized="1"
     inkscape:current-layer="svg117" />
  <g
     id="g807">
    <g
       id="g59779"
       transform="matrix(0.61295602,0,0,0.61295602,11.852056,3.2644014)"
       style="filter:url(#filter365)">
      <g
         id="g59864"
         transform="matrix(0.86099437,0,0,0.86099437,31.801191,8.3308665)">
        <g
           id="g117"
           style="fill:#ffffff;fill-opacity:1"
           transform="matrix(0.21037793,0,0,0.21037793,66.091074,-118.60095)">
          <path
             d="m 503.10287,622.23456 c 0,0 0,-30.83976 0,-30.83976 0,0 -135.82665,0 -135.82665,0 0,0 0,298.52928 0,298.52928 0,0 33.25576,0 33.25576,0 0,0 0,-148.10426 0,-148.10426 0,0 99.38074,0 99.38074,0 0,0 0,-30.83926 0,-30.83926 0,0 -99.38074,0 -99.38074,0 0,0 0,-88.746 0,-88.746 z m 84.17573,81.59256 c 0,0 -31.71,0 -31.71,0 0,0 0,186.09696 0,186.09696 0,0 31.71,0 31.71,0 0,0 0,-93.09686 0,-93.09686 0,-24.07188 1.54728,-68.83179 36.34848,-68.83179 8.31432,0 12.66552,3.96363 19.04616,8.31399 0,0 15.07968,-28.90558 15.07968,-28.90558 -9.18288,-5.21976 -17.8836,-8.70072 -28.518,-8.70072 -20.59176,0 -30.16272,10.6344 -41.18352,25.32869 0,0 -0.7728,0 -0.7728,0 z m 140.16408,0 c 0,0 -31.61256,0 -31.61256,0 0,0 0,186.09696 0,186.09696 0,0 31.61256,0 31.61256,0 z m -15.7584,-92.7108 c -12.27744,0 -22.6212,10.34376 -22.6212,22.62288 0,12.66384 10.34376,22.52376 22.6212,22.52376 12.27744,0 22.52544,-9.85992 22.52544,-22.52376 0,-12.27912 -10.248,-22.62288 -22.52544,-22.62288 z M 932.23972,717.26544 C 915.61108,705.3744 895.021,698.70312 874.81564,698.70312 c -54.62016,0 -99.3804,42.72996 -99.3804,98.1241 0,56.2642 42.72912,98.22057 98.994,98.22057 22.13736,0 40.79544,-6.67049 58.97136,-18.94806 0,0 0,-42.43986 0,-42.43986 0,0 -0.77448,0 -0.77448,0 -15.46776,20.20486 -34.0284,32.09573 -60.6144,32.09573 -38.766,0 -64.09536,-32.09573 -64.09536,-68.92838 0,-37.2194 27.26304,-68.83179 65.7384,-68.83179 24.94296,0 43.1172,12.66435 57.81216,31.22566 0,0 0.7728,0 0.7728,0 z m 83.17178,15.85366 c 0,0 33.2556,0 33.2556,0 0,0 0,-29.29198 0,-29.29198 0,0 -33.2556,0 -33.2556,0 0,0 0,-66.8976 0,-66.8976 0,0 -31.61258,0 -31.61258,0 0,0 0,66.8976 0,66.8976 0,0 -19.43088,0 -19.43088,0 0,0 0,29.29198 0,29.29198 0,0 19.43088,0 19.43088,0 0,0 0,156.80498 0,156.80498 0,0 31.61258,0 31.61258,0 z m 100.1112,-29.29198 c 0,0 -31.6126,0 -31.6126,0 0,0 0,186.09696 0,186.09696 0,0 31.6126,0 31.6126,0 z m -15.7584,-92.7108 c -12.2775,0 -22.6212,10.34376 -22.6212,22.62288 0,12.66384 10.3437,22.52376 22.6212,22.52376 12.2774,0 22.5254,-9.85992 22.5254,-22.52376 0,-12.27912 -10.248,-22.62288 -22.5254,-22.62288 z m 163.5177,283.93147 c 54.2338,0 97.8348,-43.11657 97.8348,-97.73724 0,-54.71743 -43.2146,-98.60743 -97.8348,-98.60743 -54.6201,0 -97.8331,43.89 -97.8331,98.60743 0,54.62067 43.5994,97.73724 97.8331,97.73724 z m 0,-167.05236 c 39.1524,0 66.1248,31.22566 66.1248,68.83179 0,38.08946 -26.9724,68.92838 -66.1248,68.92838 -39.2498,0 -66.1248,-30.83892 -66.1248,-68.92838 0,-37.60613 26.875,-68.83179 66.1248,-68.83179 z m 172.2639,-24.16831 c 0,0 -31.71,0 -31.71,0 0,0 0,186.09696 0,186.09696 0,0 31.71,0 31.71,0 0,0 0,-88.26317 0,-88.26317 0,-33.25577 2.8022,-73.66548 46.3058,-73.66548 36.8323,0 39.2499,26.8753 39.2499,57.03751 0,0 0,104.89114 0,104.89114 0,0 31.6125,0 31.6125,0 0,0 0,-110.49814 0,-110.49814 0,-43.50326 -11.7953,-80.72282 -63.3209,-80.72282 -23.0092,0 -40.0243,9.8616 -53.0745,27.64877 0,0 -0.7728,0 -0.7728,0 z"
             fill="rgba(255, 255, 255, 1)"
             id="FrictionPath"
             stroke="none"
             stroke-linejoin="round"
             stroke-width="6.72"
             stroke-linecap="round"
             style="fill:#ffffff;fill-opacity:1" />
          <path
             d="m 406.13176,995.93428 c 15.96353,0 25.50206,12.25842 25.50206,27.43352 0,15.3329 -8.7108,28.7343 -25.34448,28.7343 -16.16059,0 -24.87139,-14.0321 -24.87139,-28.892 0,-14.1896 9.69629,-27.27582 24.71381,-27.27582 z m 37.76052,-9.85404 c 0,0 -12.92844,0 -12.92844,0 0,0 0,10.80005 0,10.80005 0,0 -0.31534,0 -0.31534,0 -6.14896,-8.23805 -15.33285,-12.88913 -25.81756,-12.88913 -22.46698,0 -36.65683,19.03794 -36.65683,40.36204 0,21.127 14.0321,39.6919 36.14443,39.6919 10.20885,0 20.181,-4.6905 26.32996,-12.5737 0,0 0.31534,0 0.31534,0 0,0 0,9.0263 0,9.0263 0,17.1066 -4.33574,31.8088 -24.35916,31.8088 -13.87445,0 -24.04366,-8.8687 -24.24072,-22.9402 0,0 -12.88911,0 -12.88911,0 0.47299,21.4818 16.12109,34.8831 37.28758,34.8831 11.31228,0 22.27008,-4.3357 29.36489,-13.4013 7.76496,-10.0117 7.76496,-20.4964 7.76496,-32.5971 z m 122.67192,0 c 0,0 -12.9276,0 -12.9276,0 0,0 0,75.87586 0,75.87586 0,0 12.9276,0 12.9276,0 0,0 0,-37.9576 0,-37.9576 0,-9.8145 0.63168,-28.06422 14.82096,-28.06422 3.39024,0 5.16264,1.616 7.76496,3.38974 0,0 6.1488,-11.78537 6.1488,-11.78537 -3.74472,-2.12839 -7.2912,-3.54749 -11.62728,-3.54749 -8.39664,0 -12.2976,4.33575 -16.7916,10.32713 0,0 -0.31584,0 -0.31584,0 z m 157.71672,9.85404 c 16.002,0 25.5024,12.25842 25.5024,27.43352 0,15.3329 -8.7108,28.7343 -25.34448,28.7343 -16.12128,0 -24.8724,-14.0321 -24.8724,-28.892 0,-14.1896 9.69696,-27.27582 24.71448,-27.27582 z m 37.75968,-9.85404 c 0,0 -12.88896,0 -12.88896,0 0,0 0,10.80005 0,10.80005 0,0 -0.31584,0 -0.31584,0 -6.30504,-8.04098 -15.68616,-12.88913 -26.01312,-12.88913 -22.74384,0 -36.49968,18.56504 -36.49968,40.20444 0,20.9693 14.07168,39.8495 36.34176,39.8495 10.64112,0 19.55016,-4.178 26.17104,-12.5737 0,0 0.31584,0 0.31584,0 0,0 0,10.4847 0,10.4847 0,0 12.88896,0 12.88896,0 z m 144.24816,9.85404 c 15.96336,0 25.5024,12.25842 25.5024,27.43352 0,15.3329 -8.7108,28.7343 -25.34448,28.7343 -16.1616,0 -24.8724,-14.0321 -24.8724,-28.892 0,-14.1896 9.69696,-27.27582 24.71448,-27.27582 z m -24.04416,-9.85404 c 0,0 -12.9276,0 -12.9276,0 0,0 0,118.48456 0,118.48456 0,0 12.9276,0 12.9276,0 0,0 0,-53.251 0,-53.251 0,0 0.31584,0 0.31584,0 6.11016,8.2379 15.64752,12.7313 25.97448,12.7313 22.78248,0 36.49968,-18.2496 36.49968,-39.8495 0,-21.0088 -14.03136,-40.20444 -36.34176,-40.20444 -10.48488,0 -19.82568,4.4935 -26.1324,12.88913 0,0 -0.31584,0 -0.31584,0 z M 1047.108,928.7694 c 0,0 0,133.1867 0,133.1867 0,0 12.9276,0 12.9276,0 0,0 0,-35.9868 0,-35.9868 0,-13.5591 1.1441,-30.03502 18.8799,-30.03502 15.0175,0 16.0037,10.95762 16.0037,23.25542 0,0 0,42.7664 0,42.7664 0,0 12.8889,0 12.8889,0 0,0 0,-45.0526 0,-45.0526 0,-17.73706 -4.8081,-32.91234 -25.8182,-32.91234 -9.3811,0 -16.3179,4.02058 -21.6384,11.27297 0,0 -0.3159,-0.31533 -0.3159,-0.31533 0,0 0,-66.1794 0,-66.1794 z m 185.7728,57.31084 c 0,0 -12.889,0 -12.889,0 0,0 0,75.87586 0,75.87586 0,0 12.889,0 12.889,0 z m -6.4244,-37.8 c -5.0064,0 -9.2248,4.21764 -9.2248,9.22337 0,5.16348 4.2184,9.18406 9.2248,9.18406 5.0048,0 9.1829,-4.02058 9.1829,-9.18406 0,-5.00573 -4.1781,-9.22337 -9.1829,-9.22337 z m 174.216,43.27882 c -6.7788,-4.84814 -15.1754,-7.5679 -23.4124,-7.5679 -22.2701,0 -40.52,17.42194 -40.52,40.00734 0,22.9401 17.4216,40.0466 40.362,40.0466 9.0267,0 16.6337,-2.7197 24.0442,-7.7255 0,0 0,-17.3036 0,-17.3036 0,0 -0.3158,0 -0.3158,0 -6.3068,8.2379 -13.8752,13.0861 -24.7145,13.0861 -15.8055,0 -26.1324,-13.0861 -26.1324,-28.1036 0,-15.1753 11.1149,-28.06422 26.8027,-28.06422 10.169,0 17.5795,5.16352 23.5704,12.73142 0,0 0.3158,0 0.3158,0 z m 147.1815,6.4643 c -3.3903,-7.92271 -11.4711,-14.0322 -20.1819,-14.0322 -12.2589,0 -22.5859,8.71097 -22.5859,21.44234 0,23.9256 34.2132,18.0919 34.2132,35.0409 0,6.9372 -5.3205,11.6277 -12.2573,11.6277 -8.5932,0 -12.2976,-5.0058 -15.5299,-12.1007 0,0 -11.4307,4.8481 -11.4307,4.8481 4.0202,11.9431 14.0314,19.1956 26.7624,19.1956 14.0717,0 25.699,-10.3269 25.699,-24.6744 0,-12.7707 -8.7108,-18.0919 -17.6182,-21.797 -8.8687,-3.7446 -17.5795,-6.3066 -17.5795,-13.2438 0,-4.84813 4.8485,-8.39562 9.3408,-8.39562 4.6905,0 8.5545,3.70508 10.3673,7.72552 z"
             fill="rgba(255, 255, 255, 1)"
             id="GraphicsPath"
             stroke="none"
             stroke-linejoin="round"
             stroke-width="3.36"
             stroke-linecap="round"
             style="fill:#ffffff;fill-opacity:1" />
        </g>
      </g>
    </g>
    <g
       transform="matrix(0.2370738,0,0,0.2370738,-4806.7166,-5935.225)"
       id="g221"
       style="clip-rule:evenodd;fill-rule:evenodd;stroke-linejoin:round;stroke-miterlimit:2;filter:url(#filter793)">
        <g
   transform="translate(12384.927,11352.184)"
   id="g219">
            <g
   id="Friction_Icon_1"
   transform="matrix(1.773342,0,0,1.773342,-7145.9121,-10598.995)">
                <g
   id="Background"
   transform="matrix(0.202805,0,0,0.202805,4770.2187,9727.4496)">
                    <path
   d="m 19281.819,19738.182 v 569.455 c 0,39.286 -31.896,71.182 -71.182,71.182 h -569.455 c -39.286,0 -71.182,-31.896 -71.182,-71.182 v -569.455 c 0,-39.286 31.896,-71.182 71.182,-71.182 h 569.455 c 39.286,0 71.182,31.896 71.182,71.182 z"
   style="fill:url(#_Radial1)"
   id="path212" />

                </g>

                <g
   id="F"
   transform="matrix(0.250131,0,0,0.226554,8428.773,12624.411)">
                    <path
   d="m 575.124,5268 h 96.209 c 26.346,0 47.736,-23.616 47.736,-52.703 0,-29.088 -21.39,-52.704 -47.736,-52.704 h -96.209 c -21.593,0 -39.124,-19.355 -39.124,-43.195 0,-23.84 17.531,-43.195 39.124,-43.195 h 183.807 c 26.346,0 47.736,-23.615 47.736,-52.703 0,-29.088 -21.39,-52.703 -47.736,-52.703 H 536 V 4942 h 332.182 c 40.741,0 73.818,36.519 73.818,81.5 0,44.981 -33.077,81.5 -73.818,81.5 H 671.333 v 28.797 h 109.251 c 40.742,0 73.818,36.519 73.818,81.5 0,44.981 -33.076,81.5 -73.818,81.5 H 671.333 v 57.593 H 536 v -43.195 c 0,-23.84 17.531,-43.195 39.124,-43.195 z"
   style="fill:#2a0162"
   id="path215" />

                </g>

            </g>

        </g>

    </g>
  </g>
  <defs
     id="defs117">
    <linearGradient
       id="0x00007f7dd61d0860">
      <stop
         stop-color="rgba(0, 0, 187, 0.554055)"
         offset="0"
         id="stop96" />
      <stop
         stop-color="rgba(255, 24, 255, 0.589288)"
         offset="1"
         id="stop97" />
    </linearGradient>
    <linearGradient
       id="0x00007f7dd61d0f40">
      <stop
         stop-color="rgba(52, 101, 164, 1)"
         offset="0"
         id="stop98" />
      <stop
         stop-color="rgba(32, 74, 135, 1)"
         offset="1"
         id="stop99" />
    </linearGradient>
    <linearGradient
       id="0x00007f7dd61cbaf0">
      <stop
         stop-color="rgba(255, 183, 0, 1)"
         offset="0"
         id="stop100" />
      <stop
         stop-color="rgba(255, 114, 0, 1)"
         offset="1"
         id="stop101" />
    </linearGradient>
    <linearGradient
       id="0x00007f7dd661bfa0">
      <stop
         stop-color="rgba(238, 238, 236, 1)"
         offset="0"
         id="stop102" />
      <stop
         stop-color="rgba(238, 238, 236, 0)"
         offset="1"
         id="stop103" />
    </linearGradient>
    <linearGradient
       id="0x00007f7dd661dde0">
      <stop
         stop-color="rgba(238, 238, 236, 0.282612)"
         offset="0"
         id="stop104" />
      <stop
         stop-color="rgba(238, 238, 236, 0)"
         offset="1"
         id="stop105" />
    </linearGradient>
    <linearGradient
       id="0x00007f7dd66200a0">
      <stop
         stop-color="rgba(83, 28, 187, 1)"
         offset="0"
         id="stop106" />
      <stop
         stop-color="rgba(255, 24, 255, 0.589288)"
         offset="1"
         id="stop107" />
    </linearGradient>
    <linearGradient
       id="0x00007f7dd6622360">
      <stop
         stop-color="rgba(0, 0, 187, 0.182437)"
         offset="0"
         id="stop108" />
      <stop
         stop-color="rgba(255, 24, 255, 0.589288)"
         offset="1"
         id="stop109" />
    </linearGradient>
    <linearGradient
       id="0x00007f7dd6624990">
      <stop
         stop-color="rgba(52, 101, 164, 1)"
         offset="0"
         id="stop110" />
      <stop
         stop-color="rgba(32, 74, 135, 1)"
         offset="1"
         id="stop111" />
    </linearGradient>
    <linearGradient
       id="0x00007f7dd66268e0">
      <stop
         stop-color="rgba(255, 183, 0, 1)"
         offset="0"
         id="stop112" />
      <stop
         stop-color="rgba(255, 114, 0, 1)"
         offset="1"
         id="stop113" />
    </linearGradient>
    <linearGradient
       id="0x00007f7dd6628ba0">
      <stop
         stop-color="rgba(238, 238, 236, 1)"
         offset="0"
         id="stop114" />
      <stop
         stop-color="rgba(238, 238, 236, 0)"
         offset="1"
         id="stop115" />
    </linearGradient>
    <linearGradient
       id="0x00007f7dd662ae60">
      <stop
         stop-color="rgba(238, 238, 236, 0.282612)"
         offset="0"
         id="stop116" />
      <stop
         stop-color="rgba(238, 238, 236, 0)"
         offset="1"
         id="stop117" />
    </linearGradient>
    <radialGradient
       gradientUnits="userSpaceOnUse"
       id="0x00007f7dd6717100"
       r="18.6131"
       xlink:href="#0x00007f7dd6624990"
       cx="24.678801"
       cy="40.355" />
    <radialGradient
       gradientUnits="userSpaceOnUse"
       id="0x00007f7dd674bf30"
       r="11.8065"
       xlink:href="#0x00007f7dd66268e0"
       cx="41.367699"
       cy="19.015499" />
    <radialGradient
       gradientUnits="userSpaceOnUse"
       id="0x00007f7dd67610f0"
       r="32.899899"
       xlink:href="#0x00007f7dd6628ba0"
       cx="23.7061"
       cy="8.6182499" />
    <linearGradient
       y2="34.3965"
       gradientUnits="userSpaceOnUse"
       id="0x00007f7dd676b2f0"
       xlink:href="#0x00007f7dd662ae60"
       x1="64.238998"
       x2="-2.2810199"
       y1="-15.6365" />
    <radialGradient
       id="radialGradient3930"
       xlink:href="#linearGradient3195"
       gradientUnits="userSpaceOnUse"
       cy="54.693001"
       cx="34.993999"
       gradientTransform="matrix(0.5138,0.24418,-0.20225,0.42559,7.8408,-9.8045)"
       r="26.132" />
    <linearGradient
       id="linearGradient3195">
      <stop
         id="stop3197"
         stop-color="#3465a4"
         offset="0" />
      <stop
         id="stop3199"
         stop-color="#204a87"
         offset="1" />
    </linearGradient>
    <radialGradient
       id="radialGradient3928"
       xlink:href="#linearGradient91644"
       gradientUnits="userSpaceOnUse"
       cy="14.209"
       cx="42.623001"
       gradientTransform="matrix(0.5138,0.24418,-0.20238,0.42585,9.7686,-13.865)"
       r="26.132" />
    <linearGradient
       id="linearGradient91644">
      <stop
         id="stop91640"
         stop-color="#3465a4"
         offset="0"
         style="stop-color:#ffb700;stop-opacity:1" />
      <stop
         id="stop91642"
         stop-color="#204a87"
         offset="1"
         style="stop-color:#ff7200;stop-opacity:1" />
    </linearGradient>
    <linearGradient
       id="linearGradient2946"
       gradientUnits="userSpaceOnUse"
       x2="0"
       y1="4.2188001"
       y2="43.780998"
       gradientTransform="translate(0,-1.5)">
      <stop
         id="stop3435"
         stop-color="#ffffff"
         stop-opacity=".8"
         offset="0" />
      <stop
         id="stop3437"
         stop-color="#ffffff"
         stop-opacity="0"
         offset="1" />
    </linearGradient>
    <linearGradient
       id="linearGradient2500"
       y2="33.905998"
       gradientUnits="userSpaceOnUse"
       x2="15.298"
       gradientTransform="translate(0,-1.5)"
       y1="-58.012001"
       x1="4.0938001">
      <stop
         id="stop3458"
         stop-color="#eeeeec"
         offset="0" />
      <stop
         id="stop3460"
         stop-color="#eeeeec"
         stop-opacity="0"
         offset="1" />
    </linearGradient>
    <filter
       style="color-interpolation-filters:sRGB;"
       inkscape:label="Drop Shadow"
       id="filter365"
       x="-0.034286805"
       y="-0.12119455"
       width="1.0714308"
       height="1.2524887">
      <feFlood
         flood-opacity="0.498039"
         flood-color="rgb(0,0,0)"
         result="flood"
         id="feFlood355" />
      <feComposite
         in="flood"
         in2="SourceGraphic"
         operator="in"
         result="composite1"
         id="feComposite357" />
      <feGaussianBlur
         in="composite1"
         stdDeviation="5"
         result="blur"
         id="feGaussianBlur359" />
      <feOffset
         dx="1"
         dy="1"
         result="offset"
         id="feOffset361" />
      <feComposite
         in="SourceGraphic"
         in2="offset"
         operator="over"
         result="composite2"
         id="feComposite363" />
    </filter>
    <radialGradient
       id="_Radial1"
       cx="0"
       cy="0"
       r="1"
       gradientUnits="userSpaceOnUse"
       gradientTransform="matrix(657.15358,813.73921,-813.73921,657.15358,18570,19611.874)">
      <stop
         offset="0"
         style="stop-color:rgb(250,181,36);stop-opacity:1"
         id="stop223" />
      <stop
         offset="0.5"
         style="stop-color:rgb(208,43,167);stop-opacity:1"
         id="stop225" />
      <stop
         offset="1"
         style="stop-color:rgb(157,51,167);stop-opacity:1"
         id="stop227" />
    </radialGradient>
    <filter
       style="color-interpolation-filters:sRGB;"
       inkscape:label="Drop Shadow"
       id="filter793"
       x="-0.046874917"
       y="-0.046874917"
       width="1.0976561"
       height="1.0976561">
      <feFlood
         flood-opacity="0.498039"
         flood-color="rgb(0,0,0)"
         result="flood"
         id="feFlood783" />
      <feComposite
         in="flood"
         in2="SourceGraphic"
         operator="in"
         result="composite1"
         id="feComposite785" />
      <feGaussianBlur
         in="composite1"
         stdDeviation="5"
         result="blur"
         id="feGaussianBlur787" />
      <feOffset
         dx="1"
         dy="1"
         result="offset"
         id="feOffset789" />
      <feComposite
         in="SourceGraphic"
         in2="offset"
         operator="over"
         result="composite2"
         id="feComposite791" />
    </filter>
  </defs>
</svg>
