<?xml version="1.0" encoding="UTF-8" standalone="no"?>
<!-- Generator: Adobe Illustrator 19.2.1, SVG Export Plug-In . SVG Version: 6.00 Build 0)  -->

<svg
   version="1.1"
   id="OpenGL"
   x="0px"
   y="0px"
   width="425.83804"
   height="234.83107"
   viewBox="0 0 425.83804 234.83107"
   enable-background="new 0 0 1200 500"
   xml:space="preserve"
   sodipodi:docname="qt-white.svg"
   inkscape:version="1.1.2 (0a00cf5339, 2022-02-04)"
   xmlns:inkscape="http://www.inkscape.org/namespaces/inkscape"
   xmlns:sodipodi="http://sodipodi.sourceforge.net/DTD/sodipodi-0.dtd"
   xmlns="http://www.w3.org/2000/svg"
   xmlns:svg="http://www.w3.org/2000/svg"><defs
   id="defs1169" /><sodipodi:namedview
   id="namedview1167"
   pagecolor="#505050"
   bordercolor="#ffffff"
   borderopacity="1"
   inkscape:pageshadow="0"
   inkscape:pageopacity="0"
   inkscape:pagecheckerboard="1"
   showgrid="false"
   inkscape:zoom="0.956"
   inkscape:cx="357.74059"
   inkscape:cy="3.1380753"
   inkscape:window-width="1920"
   inkscape:window-height="1026"
   inkscape:window-x="0"
   inkscape:window-y="0"
   inkscape:window-maximized="1"
   inkscape:current-layer="OpenGL" />

<g
   id="g1665"
   transform="matrix(0.3617539,0,0,0.3617539,198.53968,163.95918)"><path
     fill="#41cd52"
     d="M -183.58438,-354.66108 H 347.74894 V 11.725578 C 319.21561,40.352243 290.58895,68.885576 261.89561,97.338909 H -268.25104 V -270.14108 c 28.10667,-28.28 56.45333,-56.34667 84.66666,-84.52 z"
     id="path6"
     style="stroke-width:1.33333" /><path
     d="m -105.09104,-259.55442 c 20.173329,-13.34666 45.119995,-16.72 68.839994,-16.50666 22.586666,0.28 46.293332,4.24 65.013332,17.72 13.6,9.56 22.439999,24.32 28.333333,39.58666 9.533333,25.06667 12.333333,52.13334 12.653333,78.77333 0.04,26.82667 -1.173334,54.240003 -10.053334,79.800003 -5.946666,17.386666 -17.266666,32.826665 -32.199999,43.546665 C 38.242286,0.77891111 49.202285,18.058911 59.948952,35.472244 46.442285,41.69891 32.975619,47.965577 19.455619,54.165576 7.9489531,35.17891 -3.50438,16.152244 -15.051046,-2.8077555 c -15.613333,2.55999997 -31.586666,2.35999998 -47.279999,0.6266667 -18.8,-2.2533333 -37.959995,-7.9866662 -52.466665,-20.6399992 -11.14667,-9.653333 -18.14667,-23.16 -22.93333,-36.893333 -7.84,-23.226666 -9.94667,-47.946669 -10.30667,-72.319999 -0.18667,-26.34666 1.49333,-53.10666 9.44,-78.38666 6.14667,-19.01334 16.32,-37.98667 33.50667,-49.13334 z"
     id="path8"
     fill="#ffffff"
     style="stroke-width:1.33333" /><path
     d="m 123.92228,-260.40775 c 14.13334,-0.0133 28.26667,-0.0133 42.4,0 0.04,18.69333 -0.0133,37.37333 0.0267,56.06667 18.06667,0.0267 36.13333,0 54.2,0.0133 -0.30667,12.13333 -0.64,24.26667 -0.98667,36.4 -18.05333,0.04 -36.09333,-0.0133 -54.14666,0.0267 0.04,30.63999 -0.0933,61.27999 0.0667,91.919993 0.34667,8.386666 0.16,17.24 3.85334,24.986666 2.69333,5.973333 9.94666,7.506667 15.85333,7.706667 11.13333,-0.04 22.25333,-0.693334 33.38666,-0.893334 0.68,11.146667 1.33334,22.306666 1.97334,33.453333 -22.14667,3.7199996 -45.38667,8.1733329 -67.38667,1.213333 -9.26666,-2.746667 -17.90666,-8.893333 -21.66666,-18.053333 -6.73334,-15.586666 -7.28,-32.933332 -7.57334,-49.666665 -0.0267,-30.22667 0,-60.44 -0.0133,-90.66666 -9.85333,-0.0267 -19.70667,0.0133 -29.559999,-0.0267 -0.02667,-12.12 -0.02667,-24.25333 0,-36.38667 9.853329,-0.04 19.693329,0.0133 29.546669,-0.0267 0.04,-18.69334 -0.0133,-37.37334 0.0267,-56.06667 z"
     id="path10"
     fill="#ffffff"
     style="stroke-width:1.33333" /><path
     fill="#41cd52"
     d="m -54.237712,-237.72775 c 13.72,-1.78667 28.119999,-1.30667 41.106666,3.88 10.5199994,4.16 19.4533325,12.30667 24.173332,22.62667 7.24,15.64 10.013333,32.90666 11.413333,49.96 1.52,22.69333 1.306667,45.59999 -1.826666,68.159993 -2.2,13.426667 -5.333333,27.573333 -14.4266665,38.16 -9.2266665,10.626666 -23.4533325,15.186666 -37.1066655,16.253332 -14.4,1.053334 -29.586666,0 -42.586666,-6.813333 -7.586666,-4.04 -14.026666,-10.373333 -17.786666,-18.133333 -4.56,-9.293333 -7.066667,-19.439999 -8.826669,-29.599999 -5.30666,-32.21333 -6.58666,-65.54666 0.666669,-97.57333 2.986667,-12.08 7.333333,-24.48 16.16,-33.58667 7.68,-7.8 18.373333,-11.82666 29.039999,-13.33333 z"
     id="path12"
     style="stroke-width:1.33333" /></g>
</svg>
