<?xml version="1.0" encoding="UTF-8" standalone="no"?>
<svg
   style="color: white"
   viewBox="0 0 512 512"
   version="1.1"
   id="svg1008"
   sodipodi:docname="reddit.svg"
   inkscape:version="1.1.2 (0a00cf5339, 2022-02-04)"
   xmlns:inkscape="http://www.inkscape.org/namespaces/inkscape"
   xmlns:sodipodi="http://sodipodi.sourceforge.net/DTD/sodipodi-0.dtd"
   xmlns="http://www.w3.org/2000/svg"
   xmlns:svg="http://www.w3.org/2000/svg">
  <defs
     id="defs1012" />
  <sodipodi:namedview
     id="namedview1010"
     pagecolor="#ffffff"
     bordercolor="#666666"
     borderopacity="1.0"
     inkscape:pageshadow="2"
     inkscape:pageopacity="0.0"
     inkscape:pagecheckerboard="true"
     showgrid="false"
     inkscape:zoom="0.89426166"
     inkscape:cx="276.76463"
     inkscape:cy="315.90307"
     inkscape:window-width="1866"
     inkscape:window-height="1016"
     inkscape:window-x="54"
     inkscape:window-y="27"
     inkscape:window-maximized="1"
     inkscape:current-layer="svg1008" />
  <path
     id="path1352"
     style="fill:#ffffff;stroke-width:0px;fill-opacity:1"
     class="cls-2"
     d="M 256,17.761058 C 124.42882,17.761058 17.761058,124.42882 17.761058,256 c 0,65.7949 26.672041,125.35418 69.7784,168.46054 l -45.375045,45.37505 c -9.00841,9.00841 -2.624928,24.40335 10.105966,24.40335 H 256 C 387.57118,494.23894 494.23894,387.57118 494.23894,256 494.23894,124.4288 387.57118,17.76104 256,17.761058 Z m 87.10756,63.503968 c 21.92543,0 39.70044,17.774988 39.70044,39.700414 0,21.92543 -17.77501,39.70046 -39.70044,39.70046 -18.77992,0 -34.50697,-13.04716 -38.63893,-30.56144 v 0.0363 c -22.7816,3.21993 -40.35114,22.83874 -40.35114,46.47651 v 0.14908 c 35.27053,1.32149 67.50767,11.25877 93.04392,27.06071 9.38064,-7.2216 21.12362,-11.52004 33.87313,-11.52004 30.7291,0 55.63369,24.90454 55.63369,55.63366 0,22.16741 -12.99205,41.31957 -31.77198,50.25353 -1.74956,64.64095 -72.2172,116.64387 -158.78355,116.64387 -86.56635,0 -156.940928,-51.94973 -158.783558,-116.53482 -18.928828,-8.87812 -32.030071,-28.08308 -32.030071,-50.38076 0,-30.7291 24.904568,-55.63367 55.633669,-55.63367 12.80534,0 24.60474,4.33712 34.00401,11.61458 25.31289,-15.69027 57.19641,-25.63033 92.1133,-27.10071 v -0.20356 c 0,-32.99982 25.0686,-60.23153 57.17502,-63.67483 3.72248,-18.072656 19.7117,-31.659274 38.88249,-31.659274 z M 182.61182,247.56625 c -15.5786,0 -28.98012,15.48581 -29.91074,35.66167 -0.93062,20.17586 12.71403,28.38394 28.31124,28.38394 15.59721,0 27.23157,-7.33198 28.16219,-27.50784 0.93062,-20.17586 -10.98408,-36.53777 -26.56269,-36.53777 z m 147.01993,0 c -15.59721,0 -27.48967,16.36191 -26.55905,36.53777 0.93062,20.19448 12.5836,27.50784 28.16219,27.50784 15.57859,0 29.23821,-8.20808 28.30759,-28.38394 -0.91201,-20.17586 -14.31353,-35.66167 -29.91073,-35.66167 z m -73.51905,79.6626 c -19.3383,0 -37.85591,0.94821 -54.97933,2.67916 -2.92215,0.2978 -4.78514,3.33162 -3.64979,6.04904 9.60401,22.91188 32.2181,39.01337 58.62912,39.01337 26.41102,0 49.04372,-16.10149 58.62911,-39.01337 1.13536,-2.71742 -0.72398,-5.75124 -3.64613,-6.04904 -17.14204,-1.73095 -35.64468,-2.67916 -54.98298,-2.67916 z" />
</svg>
