<?xml version="1.0" encoding="UTF-8" standalone="no"?>
<svg
   width="425.83803044"
   height="234.831069214"
   viewBox="0 0 515.0 284.0"
   version="1.1"
   id="svg921"
   sodipodi:docname="Skia_Project_Logo222.svg"
   inkscape:version="1.1.2 (0a00cf5339, 2022-02-04)"
   xmlns:inkscape="http://www.inkscape.org/namespaces/inkscape"
   xmlns:sodipodi="http://sodipodi.sourceforge.net/DTD/sodipodi-0.dtd"
   xmlns="http://www.w3.org/2000/svg"
   xmlns:svg="http://www.w3.org/2000/svg">
  <defs
     id="defs925">
    <defs
       id="defs915">
      <linearGradient
         id="grad"
         gradientUnits="userSpaceOnUse"
         x1="160"
         y1="290"
         x2="341"
         y2="290"
         gradientTransform="translate(-25,-15)">
        <stop
           offset="0"
           stop-color="rgb(86,86,86)"
           stop-opacity="0.1882353"
           id="stop910" />
        <stop
           offset="1"
           stop-color="rgb(86,86,86)"
           id="stop912" />
      </linearGradient>
    </defs>
  </defs>
  <sodipodi:namedview
     id="namedview923"
     pagecolor="#ffffff"
     bordercolor="#666666"
     borderopacity="1.0"
     inkscape:pageshadow="2"
     inkscape:pageopacity="0.0"
     inkscape:pagecheckerboard="true"
     showgrid="false"
     inkscape:zoom="2.3929285"
     inkscape:cx="212.91902"
     inkscape:cy="117.22038"
     inkscape:window-width="1920"
     inkscape:window-height="1016"
     inkscape:window-x="0"
     inkscape:window-y="27"
     inkscape:window-maximized="1"
     inkscape:current-layer="svg921" />
  <rect
     fill="#70bf4f"
     stroke="none"
     x="301"
     y="67.25"
     width="17.899994"
     height="166.95"
     id="rect894" />
  <rect
     fill="#e94037"
     stroke="none"
     x="285.20001"
     y="67.25"
     width="16.799988"
     height="166.95"
     id="rect896" />
  <rect
     fill="#465ba6"
     stroke="none"
     x="317.89999"
     y="67.25"
     width="15.970001"
     height="166.95"
     id="rect898" />
  <path
     id="ellipse900"
     style="fill:#ffffff;fill-opacity:1;stroke-width:0.82687"
     d="M 256.62305 1.4179688 A 24.185947 24.185945 0 0 0 232.4375 25.603516 A 24.185947 24.185945 0 0 0 256.62305 49.789062 A 24.185947 24.185945 0 0 0 280.80859 25.603516 A 24.185947 24.185945 0 0 0 256.62305 1.4179688 z "
     transform="scale(1.20938)" />
  <path
     id="path902"
     style="fill:#fffff9;fill-opacity:1;stroke-width:0.82687"
     d="M 51.734375 54.115234 C 48.236848 54.117487 44.735599 54.319678 41.244141 54.738281 C 28.832822 56.110885 16.024873 60.832636 7.9628906 70.804688 C 0.75258444 79.586047 -0.7518524 91.683557 0.91015625 102.62305 C 2.0760429 111.46229 6.7712886 119.67233 13.642578 125.32812 C 24.755711 134.49811 38.830085 138.64193 51.291016 145.52148 C 54.656376 147.4977 58.409885 150.29976 58.591797 154.56641 C 59.038307 158.70076 56.09533 162.50461 52.349609 163.94336 C 47.272628 165.89477 41.690277 165.5814 36.365234 165.16797 C 23.457794 163.84498 10.938549 159.71029 -0.62109375 153.88086 L -0.5625 187.16992 C 7.9707981 191.04794 16.984623 194.0825 26.361328 194.95898 C 38.995901 196.14141 52.051387 196.39045 64.289062 192.57031 C 74.269383 189.48609 83.704753 183.5313 89.410156 174.60938 C 95.868011 164.8027 97.198262 152.25943 94.560547 140.97266 C 92.882001 133.86984 88.76354 127.4291 83.066406 122.87305 C 70.836999 112.7687 54.977767 108.86657 41.822266 100.27539 C 38.465174 98.133797 36.068717 93.792411 37.796875 89.873047 C 39.591183 85.614667 44.535957 84.133668 48.769531 83.976562 C 61.222193 83.430828 73.218828 87.779927 84.439453 92.724609 L 95.808594 63.974609 C 81.968858 57.847503 66.890324 54.105472 51.734375 54.115234 z "
     transform="scale(1.20938)" />
  <path
     id="path904"
     style="fill:#fffffd;fill-opacity:1;stroke-width:0.82687"
     d="M 190.03906 56.095703 L 149.70508 115.88672 L 149.70508 56.103516 L 112.30469 56.103516 L 112.30469 193.83398 L 149.70508 193.83398 L 149.85352 147.55469 L 160.5625 141.1875 L 187.93164 193.81836 L 229.94336 193.83398 L 187.30273 117.63867 L 230.70508 56.103516 L 190.03906 56.095703 z "
     transform="scale(1.20938)" />
  <path
     id="path906"
     style="fill:#ffffff;fill-opacity:1;stroke-width:0.82687"
     d="M 329.44922 55.541016 L 284.55078 193.83398 L 325.37305 193.87695 L 331.97656 167.71484 L 331.94727 167.98633 L 376.80859 167.98633 L 383.92383 193.81836 L 424.63086 193.83398 L 379.16992 55.548828 L 329.44922 55.541016 z M 354.51953 78.412109 L 369.41992 137.49219 L 339.60547 137.49219 L 354.51953 78.412109 z "
     transform="scale(1.20938)" />
  <path
     id="path908"
     style="fill:#ffffff;fill-opacity:1;stroke-width:0.82687"
     d="M 279.18359 200.36719 L 233.83789 200.5 L 256.57031 230.19336 L 279.18359 200.36719 z "
     transform="scale(1.20938)" />
</svg>
